<svg xmlns="http://www.w3.org/2000/svg" viewBox="0 0 512 512"><text xml:space="preserve" x="140.5" y="375" font-family="sans-serif" font-size="333.3" font-weight="400" style="-inkscape-font-specification:sans-serif"><tspan x="140.5" y="375">B</tspan></text><path fill="none" stroke="#000" d="M94.5 220.3c3-3.4 6 2.5 5.6 5.1-1.2 7.2-10.2 8.8-15.8 6.2-10-4.6-12-17.7-6.7-26.6 7.5-13 25.3-15.1 37.3-7.3 16 10.5 18.4 33 7.8 48.1-13.3 19.1-40.5 21.7-58.8 8.4-22.2-16.1-25-48.2-9-69.6 19-25.2 56-28.3 80.4-9.5 28.3 21.8 31.6 63.6 10 91.2-24.5 31.3-71.2 34.9-101.9 10.5-34.3-27.3-38.2-78.9-11-112.6 30.1-37.5 86.5-41.5 123.4-11.6m310.3 110.9c-1.1 1.7-2.9-.7-2.8-2 0-3.2 4-4.5 6.7-3.7 4.8 1.4 6.4 7.1 4.7 11.4-2.6 6.4-10.4 8.4-16.3 5.7-7.8-3.7-10.3-13.6-6.6-21 4.8-9.4 16.8-12.3 25.8-7.6 11 5.8 14.3 20 8.5 30.6a26 26 0 0 1-35.4 9.4c-14-8-18.2-26.4-10.3-40.1a33 33 0 0 1 45-11.3 36.4 36.4 0 0 1 12.1 49.7 40 40 0 0 1-54.5 13.1m-56.4-240c-2.8-.3-1-3.9.5-4.6 4-2 8 1.8 8.7 5.5 1.5 6.6-4.3 12.3-10.5 13-9.2 1-16.6-7-17.1-15.7-.7-11.7 9.4-21 20.7-21.3 14.2-.4 25.3 12 25.4 25.8.1 16.7-14.6 29.7-30.9 29.6a35 35 0 0 1-33.7-35.9 39.7 39.7 0 0 1 41-38 44.4 44.4 0 0 1 42 46.1 49.1 49.1 0 0 1-51 46.3 53.8 53.8 0 0 1-50.5-56.2m-133 13.8c.4.8-.9 1-1.3.7-1.2-.8-.8-2.5 0-3.3 1.6-1.5 4.1-.8 5.3.8 1.8 2.3.8 5.6-1.5 7.2-3.1 2-7.3.8-9.2-2.3-2.4-3.8-.8-8.8 3-11a9.4 9.4 0 0 1 13 3.6 11 11 0 0 1-4.4 15c-6 3.4-13.7.8-17-5.1a14.1 14.1 0 0 1 6-19c7.4-4 16.9-.8 20.8 6.6a17 17 0 0 1-7.3 22.9M381.8 466c.7-1 1.5.4 1.4 1-.1 1.7-2.2 2.3-3.6 1.8-2.5-1-3.2-4-2.1-6.2 1.5-3.2 5.7-4 8.7-2.4 4 2.1 5 7.4 2.8 11.2a10 10 0 0 1-13.8 3.1c-5.6-3.4-6.8-11-3.4-16.3 4-6.3 12.6-7.7 18.8-3.8a15.5 15.5 0 0 1 4 21.4 17.3 17.3 0 0 1-23.8 4.4 19.1 19.1 0 0 1-4.8-26.4 21 21 0 0 1 29-5m11.2-58.6c-.4-2 2.4-1.5 3.2-.7 2.3 2.3.5 6-1.8 7.3-4.3 2.4-9.4-.4-11.2-4.5-2.7-6 1.1-12.9 7-15.1 7.9-3 16.4 2 19.1 9.6 3.3 9.6-2.8 20-12.2 23-11.4 3.7-23.5-3.6-27-14.8-4-13.2 4.4-27 17.4-30.9 15-4.4 30.6 5.2 34.8 20a32 32 0 0 1-22.4 38.8 35.3 35.3 0 0 1-42.8-25.1 38.7 38.7 0 0 1 27.6-46.7m-327 100.2c-.6.8-1.4-.4-1.4-1 .1-1.6 2-2.1 3.3-1.7 2.3.8 3 3.6 2 5.6-1.3 3-5 3.8-7.8 2.4-3.7-1.9-4.8-6.7-2.8-10.2 2.4-4.4 8.3-5.6 12.5-3.1 5.2 3 6.5 9.8 3.5 14.8a12.5 12.5 0 0 1-17.1 3.9c-6.6-4.1-8.3-13-4.3-19.5a15.8 15.8 0 0 1 21.8-4.6c8 5.1 10 16.2 5 24.1a19.2 19.2 0 0 1-26.4 5.3m114.3-19c-1-.7.5-1.9 1.2-1.8 2.1 0 3 2.5 2.5 4.2-.9 3-4.5 4.1-7.2 3-4-1.5-5.5-6.4-3.8-10.2 2.2-5 8.5-6.7 13.3-4.4 6 3 8 10.5 5 16.3-3.6 7-12.5 9.3-19.3 5.7a16.5 16.5 0 0 1-6.3-22.3c4.9-9 16.5-11.8 25.3-7a20.9 20.9 0 0 1 7.6 28.4 23.1 23.1 0 0 1-31.4 8.2 25.3 25.3 0 0 1-8.8-34.4"/><path fill="none" stroke="#000" d="M76.6 367c11-4.6 11.6 12.6 7.6 18.3-10.9 15.5-33.9 9.2-44.3-3.1-18.6-22-8.2-55 13.9-70.1 32.3-22.3 76.4-7.4 96 24.5 26.2 42.5 6.6 98-35.2 122-52.6 30-119.7 5.7-147.9-46-34.2-62.6-5-141.3 56.6-173.8 72.7-38.2 163-4.2 199.7 67.4 42.3 82.6 3.5 184.7-78 225.6-92.7 46.4-206.5 2.7-251.5-88.8-50.5-102.7-2-228.2 99.4-277.4 112.7-54.6 250-1.3 303.4 110.2"/></svg>