<svg xmlns="http://www.w3.org/2000/svg" viewBox="0 0 512 512"><text xml:space="preserve" x="62.75" y="428.25" style="font-style:normal;font-variant:normal;font-weight:400;font-stretch:normal;font-size:500px;font-family:sans-serif;-inkscape-font-specification:sans-serif;fill:#000"><tspan x="62.75" y="428.25" style="font-style:normal;font-variant:normal;font-weight:400;font-stretch:normal;font-size:500px;font-family:P052;-inkscape-font-specification:P052">D</tspan></text><path d="M94.499 220.321c3.071-3.398 6.095 2.464 5.647 5.105-1.215 7.157-10.223 8.752-15.857 6.19-10.079-4.585-11.894-17.716-6.732-26.61 7.577-13.053 25.307-15.123 37.361-7.273 16.068 10.462 18.39 32.932 7.816 48.113-13.306 19.103-40.576 21.674-58.865 8.358-22.151-16.128-24.97-48.228-8.9-69.618 18.937-25.206 55.886-28.272 80.37-9.442 28.266 21.74 31.578 63.549 9.983 91.122-24.537 31.33-71.213 34.89-101.873 10.526C9.052 249.46 5.247 197.912 32.38 164.166c30.123-37.464 86.548-41.516 123.377-11.61m310.355 110.918c-1.156 1.718-2.885-.711-2.854-1.922.084-3.28 4.013-4.571 6.698-3.786 4.803 1.404 6.458 7.163 4.719 11.474-2.553 6.326-10.353 8.39-16.25 5.65-7.86-3.65-10.34-13.554-6.583-21.025 4.727-9.4 16.764-12.3 25.801-7.515 10.946 5.794 14.266 19.976 8.448 30.577-6.856 12.493-23.191 16.235-35.354 9.38-14.042-7.913-18.205-26.407-10.312-40.13 8.969-15.591 29.625-20.178 44.906-11.244 17.143 10.022 22.152 32.842 12.177 49.682-11.075 18.695-36.061 24.127-54.458 13.109M386.616 57.716c-2.776-.272-1.002-3.877.453-4.614 3.944-2 7.989 1.833 8.776 5.52 1.409 6.594-4.361 12.242-10.586 12.938-9.136 1.021-16.575-6.908-17.1-15.654-.701-11.657 9.457-20.937 20.72-21.262 14.174-.41 25.315 12.009 25.424 25.788.133 16.688-14.56 29.701-30.855 29.586-19.202-.136-34.093-17.113-33.747-35.923.398-21.716 19.665-38.488 40.989-37.909 24.23.658 42.887 22.218 42.071 46.057-.915 26.743-24.77 47.286-51.123 46.233-29.257-1.17-51.689-27.324-50.395-56.191M198.2 66.142c.372.805-.902.898-1.338.618-1.182-.76-.782-2.485.102-3.294 1.581-1.447 4.057-.773 5.25.822 1.749 2.34.771 5.654-1.542 7.205-3.083 2.067-7.26.774-9.161-2.261-2.392-3.82-.78-8.871 2.98-11.117 4.554-2.72 10.485-.785 13.074 3.7 3.05 5.287.791 12.1-4.42 15.03-6.018 3.382-13.715.798-16.985-5.141-3.717-6.748-.807-15.33 5.86-18.94 7.478-4.05 16.947-.814 20.896 6.58 4.384 8.208.822 18.564-7.3 22.852M381.79 465.908c.663-.862 1.49.468 1.433 1.1-.152 1.717-2.253 2.264-3.634 1.765-2.47-.894-3.148-3.966-2.095-6.167 1.545-3.231 5.7-4.056 8.7-2.427 3.999 2.17 4.973 7.442 2.759 11.233-2.787 4.77-9.189 5.894-13.767 3.09-5.545-3.396-6.819-10.936-3.422-16.3 4.003-6.32 12.686-7.744 18.833-3.753 7.098 4.608 8.672 14.436 4.085 21.367-5.212 7.875-16.186 9.6-23.9 4.416-8.653-5.815-10.528-17.937-4.747-26.433 6.417-9.432 19.688-11.457 28.966-5.08m11.183-58.487c-.414-1.963 2.442-1.526 3.263-.687 2.224 2.272.47 5.875-1.887 7.213-4.219 2.392-9.34-.343-11.164-4.462-2.677-6.045 1.152-12.862 7.037-15.114 7.843-3.003 16.405 1.957 19.064 9.611 3.347 9.632-2.76 19.96-12.186 23.015-11.417 3.701-23.52-3.56-26.966-14.76-4.06-13.2 4.362-27.085 17.336-30.917 14.98-4.424 30.651 5.161 34.867 19.911 4.79 16.76-5.96 34.22-22.486 38.817-18.54 5.158-37.789-6.76-42.767-25.06-5.527-20.319 7.558-41.36 27.635-46.718M70.863 451.275c-.586.803-1.372-.395-1.335-.975.1-1.574 2.01-2.122 3.285-1.696 2.28.762 2.97 3.557 2.056 5.595-1.34 2.991-5.123 3.84-7.905 2.417-3.707-1.896-4.718-6.697-2.778-10.216 2.442-4.427 8.274-5.6 12.526-3.138 5.15 2.982 6.486 9.852 3.499 14.836-3.52 5.874-11.432 7.372-17.146 3.86-6.598-4.056-8.26-13.012-4.22-19.457 4.59-7.323 14.592-9.148 21.767-4.58 8.048 5.125 10.037 16.173 4.94 24.077-5.658 8.774-17.754 10.927-26.387 5.301m114.365-19.013c-1.102-.716.42-1.837 1.188-1.83 2.081.019 2.941 2.497 2.472 4.208-.841 3.061-4.476 4.17-7.228 3.113-4.039-1.553-5.43-6.479-3.754-10.247 2.233-5.024 8.49-6.7 13.266-4.395 6.012 2.9 7.977 10.504 5.036 16.285-3.56 7.003-12.52 9.257-19.304 5.677-7.995-4.217-10.539-14.538-6.319-22.324 4.873-8.988 16.558-11.822 25.344-6.96 9.982 5.526 13.107 18.579 7.6 28.364-6.177 10.977-20.598 14.392-31.382 8.241-11.972-6.828-15.678-22.618-8.883-34.401" style="fill:none;fill-rule:evenodd;stroke:#000"/><path d="M76.558 366.992c11.016-4.574 11.6 12.593 7.602 18.31-10.835 15.49-33.815 9.205-44.22-3.106-18.614-22.021-8.253-54.952 13.812-70.132 32.38-22.279 76.418-7.392 96.044 24.52 26.157 42.532 6.578 98.008-35.227 121.955-52.608 30.134-119.66 5.792-147.867-45.934-34.164-62.647-5.02-141.344 56.64-173.779 72.667-38.223 163.05-4.259 199.691 67.349 42.303 82.673 3.503 184.77-78.056 225.601-92.672 46.396-206.5 2.753-251.513-88.763-50.498-102.666-2.005-228.237 99.47-277.425 112.657-54.607 249.98-1.259 303.337 110.178" style="fill:none;fill-rule:evenodd;stroke:#000"/></svg>