<svg xmlns="http://www.w3.org/2000/svg" viewBox="0 0 400 500"><path d="M27.181 515.572c-2.629-10.718 1.327-19.998 8.49-27.957 1.992-2.213 6.151-5.5 7.428-8.49.43-1.006-.32-1.523 0-2.484.902-2.706 3.065-4.832 4.245-7.428 4.422-9.729-.878-3.393 6.367-11.674 4.226-4.829 2.229-1.817 7.428-6.367 3.077-2.692 5.322-6.268 8.49-8.852 3.308-2.699 18.653-8.88 23.346-9.55 8.8-1.258 18.608-2.422 27.591-1.424 10.028 1.114 7.767 1.591 15.918-2.485.317-.158.811.25 1.062 0 .559-.559.533-1.533 1.06-2.122.57-.635 1.686-.695 2.123-1.427.363-.607-.171-1.436 0-2.122 2.323-9.29 2.123-18.876 2.123-28.653 0-21.496-2.107-42.651-4.245-64.034-3.103-31.026-1.32-63.862 1.06-94.812.805-10.45-.414-20.803 1.062-31.138.15-1.05-.335-2.176 0-3.183 1.039-3.116 2.506-2.988 4.245-5.306 1.015-1.353.993-3.35 2.122-4.61 1.086-1.21 12.809-8.89 14.857-9.914 2.122-1.06 0 2.123 3.184 0 .658-.438.326-1.828 1.06-2.122 2.589-1.035 20.24.44 23.347.7 8.584.715 16.837 3.58 25.469 4.245 4.188.322 8.558-.465 12.734 0 9.124 1.013 25.903 3.591 32.897 9.187a97.417 97.417 0 0 0 10.612 7.429c1.706 1.039 2.645 2.811 4.245 3.878 3.135 2.09 8.046 3.338 11.673 4.245.363.09 1.415-.244 1.061-.365-3.564-1.228.311 9.229 1.062 16.979.397 4.106 0 8.25 0 12.375 0 10.388.985 21.486 0 31.836-.748 7.85-3.82 20.154-5.306 27.59-1.801 9.004-2.133 18.317-4.245 27.226-.594 2.506-1.583 4.91-2.123 7.429-3.705 17.293.632-.81-1.06 12.734-.43 3.44-2.74 5.99-3.184 9.55-.64 5.119-.58 10.417-1.062 15.556-.506 5.398-2.431 10.656-3.183 15.918-.485 3.397-.629 16.262-2.123 18.74-1.64 2.72-2.722-.827-4.244.695-.52.52-.449 4.979-2.123 6.367-1.318 1.093-.61 1.83-2.122 2.821-1.634 1.071 3.477-1.802 5.306-2.488 7.304-2.739 13.428-3.546 21.224-3.546 10.018 0 17.399 2.943 26.53 6.367 5.556 2.084 2.687.024 7.428 2.123 9.821 4.347-6.827-1.61 9.55 4.94 9.915 3.966 20.1 6.867 29.714 11.674 12.797 6.398 9.288 14.609 13.796 27.231.906 2.537 2.332 4.873 3.184 7.428 2.67 8.013 3.545 17.083 4.244 25.47.21 2.514.887 14.835-4.244 13.067"/><path d="M254.277 201.292c13.973-50.867-2.675-41.537 23.346-49.543 5.668-1.744 11.251-3.775 16.98-5.306.475-.127 7.3-1.16 8.49-.366 6.081 4.054 1.303 10.47 2.122 15.917.352 2.348 2.326 6.659 1.06 9.19-.157.316-.744-.159-1.06 0-3.636 1.817-7.429.332-7.429.701 0 1.459 2.89-.52 4.245-1.06 5.64-2.257 29.36-14.984 35.02-13.097 1.21.403 2.215 1.292 3.183 2.122 9.402 8.059 8.435 14.697 9.55 25.469.139 1.333 1.236 2.55 1.062 3.879-.45 3.45-5.573 9.153-8.49 10.612-2.663 1.331-7.297 4.305-10.612 3.183-.705-.239 1.425.44 2.123.702 2.095.786 4.26 1.37 6.367 2.123 2.846 1.016 5.823 1.761 8.49 3.183 4.733 2.525 22.656 14.034 19.101 21.92-2.072 4.597-18.685 11.777-23.346 10.612-1.848-.462-3.565-1.349-5.306-2.122-1.498-.666-5.742-1.816-4.245-2.485 19.598-8.765 31.76 12.207 24.408 29.347-4.94 11.512-23.186 12.437-32.898 6.367-2.048-1.28-3.575-5.493-3.183-5.668.969-.433 2.122 0 3.183 0 7.08 0 11.717.795 18.04 4.245 1.812.987 3.936 1.642 5.307 3.183 9.523 10.714 2.67 32.203-8.49 38.899-7.814 4.688-15.692 1.148-21.224-5.306-.83-.969-1.97-1.918-2.122-3.184-1.53-12.763 21.214-13.632 28.652-9.913 7.427 3.713 9.816 12.603 10.612 20.163.722 6.858.882 16.837-6.367 20.865-11.555 6.42-41.977-13.596-32.897-20.53 1.778-1.357 4.216-1.507 6.367-2.122 4.478-1.28 11.017-3.347 15.918-2.122 7.677 1.92 14.183 13.695 11.673 21.224-6.218 18.655-44.57 27.681-44.57 2.818 0-7.027 5.022-7.791 10.612-7.791 4.038 0 10.164-.783 13.795 2.122 12.347 9.878 2.917 28.247-6.367 35.719-10.347 8.328-18.703 10.728-30.774 3.183-1.446-.903-4.13-7.321-5.306-6.733-3.35 1.675-8.906 4.804-12.735 5.306-1.059.14-2.122-.481-3.183-.365-5.622.614-11.365 2.481-16.98 3.183-4.243.53-8.531-.362-12.734-.362M150.28 259.978c-15.918 12.26-32.641 23.54-47.754 36.78-37.175 32.566-14.728 16.808 6.367 18.37 33.555 2.486-.175 2.599 36.08 2.123 8.721-.115 6.535 1.593 9.552-1.424m-8.038 73.72c-.614-.665-1.684-.03-2.387-.265-.202-.068-.33-.288-.531-.356-.698-.234-1.729-.302-2.388-.796-2.04-1.53-4.668-3.152-5.836-5.488-.367-.734-.266-1.653-.266-2.478 0-.986-.114-2.118.266-3.01.237-.555.597-.398.796-.795.08-.163-.11-.476 0-.622.052-.071.176 0 .265 0 .088-.089.196-.162.265-.266.334-.5.538-1.147 1.061-1.326.113-.039-.084-.272 0-.356.063-.063.203.062.266 0 .06-.06.765-.97.796-1.061.313-.94.518-2.794.265-3.805-.03-.121-.226-.147-.265-.265-.056-.168.056-.363 0-.53-.434-1.303-5.71-1.801-5.041-3.806.365-1.095 3.51-2.915 4.51-3.54 1.832-1.145 3.388-2.58 5.306-3.54.112-.056.177-.176.265-.265.266-.177.5-.412.796-.53.264-.106 1.088-.275 1.327-.357m-3.978 61.148c-.688-.919-1.508-1.751-2.064-2.755 0-.002-.476-4.347-.375-4.754.077-.308.646-1.063.75-1.378.06-.178-.069-.389 0-.563.163-.406 1.081-1.183 1.314-1.688.116-.253.063-.566.187-.815.113-.225.45-.338.563-.563.089-.177.086-.393.188-.563.09-.151.269-.233.375-.375.335-.447.338-.964.75-1.377.304-.304.75-.35.75-.563m-2.706-165.674c-.503-3.266-8.995 0-9.754-1.519-.534-1.067-.75-4.723-.75-6.003 0-1.116-.5-2.635.75-3.26 4.432-2.216 8.16 2.053 11.255.986"/><path fill="red" d="m221.252 345.642 57.029-71.3M124.495 512.866c.526-2.851 2.133-5.314 3.002-8.067 1.216-3.853 1.857-7.88 3.189-11.695 1.041-2.983 3.71-8.201 5.628-10.693 1.89-2.458 4.05-4.699 6.19-6.941a92.81 92.81 0 0 1 5.628-5.44c1.302-1.152 2.762-2.114 4.127-3.19.698-.55 1.406-1.09 2.064-1.688.062-.056.07-.297 0-.251-.36.239-.592.678-.938.938-.158.119-.423.048-.563.188-.25.25.046.71 0 1.061-.026.196-.14.371-.188.563-.182.728 0 1.5 0 2.251 0 1.313.022 2.627 0 3.94-.086 5.253-.22 12.883-1.125 17.821-.758 4.132-2.17 8.118-3.19 12.194l-2.438 10.317c-.313 1.605-.567 3.222-.938 4.814-.126.543-1.646 5.198-1.688 5.44-.205 1.161-.188 2.95-.188 4.315m22.323-.449c3.878-21.491 7.497-43.03 11.632-64.473.201-1.046.102 2.127.187 3.189.04.502.142.998.188 1.5.122 1.346-.038 2.273.375 3.688.244.837.625 1.626.938 2.44.313 1.125.637 2.247.938 3.376.45 1.685.917 3.366 1.313 5.065.48 2.054.707 4.17 1.313 6.19 3.298 10.992 8.305 20.937 14.258 30.701 1.245 2.044 2.611 4.012 3.94 6.003.548.823 1.085 1.655 1.687 2.44.039.049.188.062.188 0 0-.505-.125-1.001-.188-1.502m9.381-8.949c-.188-.312-.459-.588-.564-.938-4.532-15.11 14.77-43.768 15.758-45.46 1.57-2.687 2.263 5.802 3.565 8.629 2.577 5.597 4.762 11.43 8.066 16.632 2.808 4.42 12.518 12.356 16.696 15.007 13.941 8.845 3.457.697 12.569 5.253m16.133-9.073c-.003-10.815 12.826-25.377 17.259-28.455 3.135-2.176 2.042 7.38 3.564 10.88.997 2.293 2.68 4.22 3.94 6.38 5.032 8.626 4.321 9.23 10.693 16.132 2.412 2.614 2.365 2.506 4.314 3.312"/><path fill="teal" d="M154.23 436.024c.87 15.448 3.213 30.858 4.244 46.33.141 2.118 0 8.49 0 6.368 0-27.886 16.573-37.512 30.775-56.61.548-.737-1.301 1.346-2.123 1.757-5.858 2.929-2.693 1.812-9.55 3.183-5.276 1.056-11.595 2.025-16.98 1.062-2.198-.394-4.134-2.03-6.367-2.09-11.706-.31-2.911 3.23-13.795-.399m55.182 10.562c1.415 16.86-2.951 35.266 4.245 50.578 3.3 7.022 5.593-14.551 9.55-21.224 6.115-10.307 9.485-9.85 15.918-16.284 2.25-2.25 3.619-4.315 3.184-4.606-4.786-3.21-19.714-3.781-25.469-5.306-2.6-.69-4.952-2.105-7.428-3.158zm51.999 2.063c34.104 42.495 17.198 40.462 43.509-6.027.39-.688 2.122-.27 2.122-1.061 0-1.767-1.567.58-6.367 1.06-5.122.513-9.767-.424-14.857-1.06"/><path d="M27.181 515.572c-2.629-10.718 1.327-19.998 8.49-27.957 1.992-2.213 6.151-5.5 7.428-8.49.43-1.006-.32-1.523 0-2.484.902-2.706 3.065-4.832 4.245-7.428 4.422-9.729-.878-3.393 6.367-11.674 4.226-4.829 2.229-1.817 7.428-6.367 3.077-2.692 5.322-6.268 8.49-8.852 3.308-2.699 18.653-8.88 23.346-9.55 8.8-1.258 18.608-2.422 27.591-1.424 10.028 1.114 7.767 1.591 15.918-2.485.317-.158.811.25 1.062 0 .559-.559.533-1.533 1.06-2.122.57-.635 1.686-.695 2.123-1.427.363-.607-.171-1.436 0-2.122 2.323-9.29 2.123-18.876 2.123-28.653 0-21.496-2.107-42.651-4.245-64.034-3.103-31.026-1.32-63.862 1.06-94.812.805-10.45-.414-20.803 1.062-31.138.15-1.05-.335-2.176 0-3.183 1.039-3.116 2.506-2.988 4.245-5.306 1.015-1.353.993-3.35 2.122-4.61 1.086-1.21 12.809-8.89 14.857-9.914 2.122-1.06 0 2.123 3.184 0 .658-.438.326-1.828 1.06-2.122 2.589-1.035 20.24.44 23.347.7 8.584.715 16.837 3.58 25.469 4.245 4.188.322 8.558-.465 12.734 0 9.124 1.013 25.903 3.591 32.897 9.187a97.417 97.417 0 0 0 10.612 7.429c1.706 1.039 2.645 2.811 4.245 3.878 3.135 2.09 8.046 3.338 11.673 4.245.363.09 1.415-.244 1.061-.365-3.564-1.228.311 9.229 1.062 16.979.397 4.106 0 8.25 0 12.375 0 10.388.985 21.486 0 31.836-.748 7.85-3.82 20.154-5.306 27.59-1.801 9.004-2.133 18.317-4.245 27.226-.594 2.506-1.583 4.91-2.123 7.429-3.705 17.293.632-.81-1.06 12.734-.43 3.44-2.74 5.99-3.184 9.55-.64 5.119-.58 10.417-1.062 15.556-.506 5.398-2.431 10.656-3.183 15.918-.485 3.397-.629 16.262-2.123 18.74-1.64 2.72-2.722-.827-4.244.695-.52.52-.449 4.979-2.123 6.367-1.318 1.093-.61 1.83-2.122 2.821-1.634 1.071 3.477-1.802 5.306-2.488 7.304-2.739 13.428-3.546 21.224-3.546 10.018 0 17.399 2.943 26.53 6.367 5.556 2.084 2.687.024 7.428 2.123 9.821 4.347-6.827-1.61 9.55 4.94 9.915 3.966 20.1 6.867 29.714 11.674 12.797 6.398 9.288 14.609 13.796 27.231.906 2.537 2.332 4.873 3.184 7.428 2.67 8.013 3.545 17.083 4.244 25.47.21 2.514.887 14.835-4.244 13.067"/><path d="M254.277 201.292c13.973-50.867-2.675-41.537 23.346-49.543 5.668-1.744 11.251-3.775 16.98-5.306.475-.127 7.3-1.16 8.49-.366 6.081 4.054 1.303 10.47 2.122 15.917.352 2.348 2.326 6.659 1.06 9.19-.157.316-.744-.159-1.06 0-3.636 1.817-7.429.332-7.429.701 0 1.459 2.89-.52 4.245-1.06 5.64-2.257 29.36-14.984 35.02-13.097 1.21.403 2.215 1.292 3.183 2.122 9.402 8.059 8.435 14.697 9.55 25.469.139 1.333 1.236 2.55 1.062 3.879-.45 3.45-5.573 9.153-8.49 10.612-2.663 1.331-7.297 4.305-10.612 3.183-.705-.239 1.425.44 2.123.702 2.095.786 4.26 1.37 6.367 2.123 2.846 1.016 5.823 1.761 8.49 3.183 4.733 2.525 22.656 14.034 19.101 21.92-2.072 4.597-18.685 11.777-23.346 10.612-1.848-.462-3.565-1.349-5.306-2.122-1.498-.666-5.742-1.816-4.245-2.485 19.598-8.765 31.76 12.207 24.408 29.347-4.94 11.512-23.186 12.437-32.898 6.367-2.048-1.28-3.575-5.493-3.183-5.668.969-.433 2.122 0 3.183 0 7.08 0 11.717.795 18.04 4.245 1.812.987 3.936 1.642 5.307 3.183 9.523 10.714 2.67 32.203-8.49 38.899-7.814 4.688-15.692 1.148-21.224-5.306-.83-.969-1.97-1.918-2.122-3.184-1.53-12.763 21.214-13.632 28.652-9.913 7.427 3.713 9.816 12.603 10.612 20.163.722 6.858.882 16.837-6.367 20.865-11.555 6.42-41.977-13.596-32.897-20.53 1.778-1.357 4.216-1.507 6.367-2.122 4.478-1.28 11.017-3.347 15.918-2.122 7.677 1.92 14.183 13.695 11.673 21.224-6.218 18.655-44.57 27.681-44.57 2.818 0-7.027 5.022-7.791 10.612-7.791 4.038 0 10.164-.783 13.795 2.122 12.347 9.878 2.917 28.247-6.367 35.719-10.347 8.328-18.703 10.728-30.774 3.183-1.446-.903-4.13-7.321-5.306-6.733-3.35 1.675-8.906 4.804-12.735 5.306-1.059.14-2.122-.481-3.183-.365-5.622.614-11.365 2.481-16.98 3.183-4.243.53-8.531-.362-12.734-.362M150.28 259.978c-15.918 12.26-32.641 23.54-47.754 36.78-37.175 32.566-14.728 16.808 6.367 18.37 33.555 2.486-.175 2.599 36.08 2.123 8.721-.115 6.535 1.593 9.552-1.424m-8.038 73.72c-.614-.665-1.684-.03-2.387-.265-.202-.068-.33-.288-.531-.356-.698-.234-1.729-.302-2.388-.796-2.04-1.53-4.668-3.152-5.836-5.488-.367-.734-.266-1.653-.266-2.478 0-.986-.114-2.118.266-3.01.237-.555.597-.398.796-.795.08-.163-.11-.476 0-.622.052-.071.176 0 .265 0 .088-.089.196-.162.265-.266.334-.5.538-1.147 1.061-1.326.113-.039-.084-.272 0-.356.063-.063.203.062.266 0 .06-.06.765-.97.796-1.061.313-.94.518-2.794.265-3.805-.03-.121-.226-.147-.265-.265-.056-.168.056-.363 0-.53-.434-1.303-5.71-1.801-5.041-3.806.365-1.095 3.51-2.915 4.51-3.54 1.832-1.145 3.388-2.58 5.306-3.54.112-.056.177-.176.265-.265.266-.177.5-.412.796-.53.264-.106 1.088-.275 1.327-.357m-3.978 61.148c-.688-.919-1.508-1.751-2.064-2.755 0-.002-.476-4.347-.375-4.754.077-.308.646-1.063.75-1.378.06-.178-.069-.389 0-.563.163-.406 1.081-1.183 1.314-1.688.116-.253.063-.566.187-.815.113-.225.45-.338.563-.563.089-.177.086-.393.188-.563.09-.151.269-.233.375-.375.335-.447.338-.964.75-1.377.304-.304.75-.35.75-.563m-2.706-165.674c-.503-3.266-8.995 0-9.754-1.519-.534-1.067-.75-4.723-.75-6.003 0-1.116-.5-2.635.75-3.26 4.432-2.216 8.16 2.053 11.255.986"/><path fill="red" d="m221.252 345.642 57.029-71.3M124.495 512.866c.526-2.851 2.133-5.314 3.002-8.067 1.216-3.853 1.857-7.88 3.189-11.695 1.041-2.983 3.71-8.201 5.628-10.693 1.89-2.458 4.05-4.699 6.19-6.941a92.81 92.81 0 0 1 5.628-5.44c1.302-1.152 2.762-2.114 4.127-3.19.698-.55 1.406-1.09 2.064-1.688.062-.056.07-.297 0-.251-.36.239-.592.678-.938.938-.158.119-.423.048-.563.188-.25.25.046.71 0 1.061-.026.196-.14.371-.188.563-.182.728 0 1.5 0 2.251 0 1.313.022 2.627 0 3.94-.086 5.253-.22 12.883-1.125 17.821-.758 4.132-2.17 8.118-3.19 12.194l-2.438 10.317c-.313 1.605-.567 3.222-.938 4.814-.126.543-1.646 5.198-1.688 5.44-.205 1.161-.188 2.95-.188 4.315m22.323-.449c3.878-21.491 7.497-43.03 11.632-64.473.201-1.046.102 2.127.187 3.189.04.502.142.998.188 1.5.122 1.346-.038 2.273.375 3.688.244.837.625 1.626.938 2.44.313 1.125.637 2.247.938 3.376.45 1.685.917 3.366 1.313 5.065.48 2.054.707 4.17 1.313 6.19 3.298 10.992 8.305 20.937 14.258 30.701 1.245 2.044 2.611 4.012 3.94 6.003.548.823 1.085 1.655 1.687 2.44.039.049.188.062.188 0 0-.505-.125-1.001-.188-1.502m9.381-8.949c-.188-.312-.459-.588-.564-.938-4.532-15.11 14.77-43.768 15.758-45.46 1.57-2.687 2.263 5.802 3.565 8.629 2.577 5.597 4.762 11.43 8.066 16.632 2.808 4.42 12.518 12.356 16.696 15.007 13.941 8.845 3.457.697 12.569 5.253m16.133-9.073c-.003-10.815 12.826-25.377 17.259-28.455 3.135-2.176 2.042 7.38 3.564 10.88.997 2.293 2.68 4.22 3.94 6.38 5.032 8.626 4.321 9.23 10.693 16.132 2.412 2.614 2.365 2.506 4.314 3.312"/><path fill="teal" d="M154.23 436.024c.87 15.448 3.213 30.858 4.244 46.33.141 2.118 0 8.49 0 6.368 0-27.886 16.573-37.512 30.775-56.61.548-.737-1.301 1.346-2.123 1.757-5.858 2.929-2.693 1.812-9.55 3.183-5.276 1.056-11.595 2.025-16.98 1.062-2.198-.394-4.134-2.03-6.367-2.09-11.706-.31-2.911 3.23-13.795-.399m55.182 10.562c1.415 16.86-2.951 35.266 4.245 50.578 3.3 7.022 5.593-14.551 9.55-21.224 6.115-10.307 9.485-9.85 15.918-16.284 2.25-2.25 3.619-4.315 3.184-4.606-4.786-3.21-19.714-3.781-25.469-5.306-2.6-.69-4.952-2.105-7.428-3.158zm51.999 2.063c34.104 42.495 17.198 40.462 43.509-6.027.39-.688 2.122-.27 2.122-1.061 0-1.767-1.567.58-6.367 1.06-5.122.513-9.767-.424-14.857-1.06"/><path d="M27.181 515.572c-2.629-10.718 1.327-19.998 8.49-27.957 1.992-2.213 6.151-5.5 7.428-8.49.43-1.006-.32-1.523 0-2.484.902-2.706 3.065-4.832 4.245-7.428 4.422-9.729-.878-3.393 6.367-11.674 4.226-4.829 2.229-1.817 7.428-6.367 3.077-2.692 5.322-6.268 8.49-8.852 3.308-2.699 18.653-8.88 23.346-9.55 8.8-1.258 18.608-2.422 27.591-1.424 10.028 1.114 7.767 1.591 15.918-2.485.317-.158.811.25 1.062 0 .559-.559.533-1.533 1.06-2.122.57-.635 1.686-.695 2.123-1.427.363-.607-.171-1.436 0-2.122 2.323-9.29 2.123-18.876 2.123-28.653 0-21.496-2.107-42.651-4.245-64.034-3.103-31.026-1.32-63.862 1.06-94.812.805-10.45-.414-20.803 1.062-31.138.15-1.05-.335-2.176 0-3.183 1.039-3.116 2.506-2.988 4.245-5.306 1.015-1.353.993-3.35 2.122-4.61 1.086-1.21 12.809-8.89 14.857-9.914 2.122-1.06 0 2.123 3.184 0 .658-.438.326-1.828 1.06-2.122 2.589-1.035 20.24.44 23.347.7 8.584.715 16.837 3.58 25.469 4.245 4.188.322 8.558-.465 12.734 0 9.124 1.013 25.903 3.591 32.897 9.187a97.417 97.417 0 0 0 10.612 7.429c1.706 1.039 2.645 2.811 4.245 3.878 3.135 2.09 8.046 3.338 11.673 4.245.363.09 1.415-.244 1.061-.365-3.564-1.228.311 9.229 1.062 16.979.397 4.106 0 8.25 0 12.375 0 10.388.985 21.486 0 31.836-.748 7.85-3.82 20.154-5.306 27.59-1.801 9.004-2.133 18.317-4.245 27.226-.594 2.506-1.583 4.91-2.123 7.429-3.705 17.293.632-.81-1.06 12.734-.43 3.44-2.74 5.99-3.184 9.55-.64 5.119-.58 10.417-1.062 15.556-.506 5.398-2.431 10.656-3.183 15.918-.485 3.397-.629 16.262-2.123 18.74-1.64 2.72-2.722-.827-4.244.695-.52.52-.449 4.979-2.123 6.367-1.318 1.093-.61 1.83-2.122 2.821-1.634 1.071 3.477-1.802 5.306-2.488 7.304-2.739 13.428-3.546 21.224-3.546 10.018 0 17.399 2.943 26.53 6.367 5.556 2.084 2.687.024 7.428 2.123 9.821 4.347-6.827-1.61 9.55 4.94 9.915 3.966 20.1 6.867 29.714 11.674 12.797 6.398 9.288 14.609 13.796 27.231.906 2.537 2.332 4.873 3.184 7.428 2.67 8.013 3.545 17.083 4.244 25.47.21 2.514.887 14.835-4.244 13.067"/><path d="M254.277 201.292c13.973-50.867-2.675-41.537 23.346-49.543 5.668-1.744 11.251-3.775 16.98-5.306.475-.127 7.3-1.16 8.49-.366 6.081 4.054 1.303 10.47 2.122 15.917.352 2.348 2.326 6.659 1.06 9.19-.157.316-.744-.159-1.06 0-3.636 1.817-7.429.332-7.429.701 0 1.459 2.89-.52 4.245-1.06 5.64-2.257 29.36-14.984 35.02-13.097 1.21.403 2.215 1.292 3.183 2.122 9.402 8.059 8.435 14.697 9.55 25.469.139 1.333 1.236 2.55 1.062 3.879-.45 3.45-5.573 9.153-8.49 10.612-2.663 1.331-7.297 4.305-10.612 3.183-.705-.239 1.425.44 2.123.702 2.095.786 4.26 1.37 6.367 2.123 2.846 1.016 5.823 1.761 8.49 3.183 4.733 2.525 22.656 14.034 19.101 21.92-2.072 4.597-18.685 11.777-23.346 10.612-1.848-.462-3.565-1.349-5.306-2.122-1.498-.666-5.742-1.816-4.245-2.485 19.598-8.765 31.76 12.207 24.408 29.347-4.94 11.512-23.186 12.437-32.898 6.367-2.048-1.28-3.575-5.493-3.183-5.668.969-.433 2.122 0 3.183 0 7.08 0 11.717.795 18.04 4.245 1.812.987 3.936 1.642 5.307 3.183 9.523 10.714 2.67 32.203-8.49 38.899-7.814 4.688-15.692 1.148-21.224-5.306-.83-.969-1.97-1.918-2.122-3.184-1.53-12.763 21.214-13.632 28.652-9.913 7.427 3.713 9.816 12.603 10.612 20.163.722 6.858.882 16.837-6.367 20.865-11.555 6.42-41.977-13.596-32.897-20.53 1.778-1.357 4.216-1.507 6.367-2.122 4.478-1.28 11.017-3.347 15.918-2.122 7.677 1.92 14.183 13.695 11.673 21.224-6.218 18.655-44.57 27.681-44.57 2.818 0-7.027 5.022-7.791 10.612-7.791 4.038 0 10.164-.783 13.795 2.122 12.347 9.878 2.917 28.247-6.367 35.719-10.347 8.328-18.703 10.728-30.774 3.183-1.446-.903-4.13-7.321-5.306-6.733-3.35 1.675-8.906 4.804-12.735 5.306-1.059.14-2.122-.481-3.183-.365-5.622.614-11.365 2.481-16.98 3.183-4.243.53-8.531-.362-12.734-.362M150.28 259.978c-15.918 12.26-32.641 23.54-47.754 36.78-37.175 32.566-14.728 16.808 6.367 18.37 33.555 2.486-.175 2.599 36.08 2.123 8.721-.115 6.535 1.593 9.552-1.424m-8.038 73.72c-.614-.665-1.684-.03-2.387-.265-.202-.068-.33-.288-.531-.356-.698-.234-1.729-.302-2.388-.796-2.04-1.53-4.668-3.152-5.836-5.488-.367-.734-.266-1.653-.266-2.478 0-.986-.114-2.118.266-3.01.237-.555.597-.398.796-.795.08-.163-.11-.476 0-.622.052-.071.176 0 .265 0 .088-.089.196-.162.265-.266.334-.5.538-1.147 1.061-1.326.113-.039-.084-.272 0-.356.063-.063.203.062.266 0 .06-.06.765-.97.796-1.061.313-.94.518-2.794.265-3.805-.03-.121-.226-.147-.265-.265-.056-.168.056-.363 0-.53-.434-1.303-5.71-1.801-5.041-3.806.365-1.095 3.51-2.915 4.51-3.54 1.832-1.145 3.388-2.58 5.306-3.54.112-.056.177-.176.265-.265.266-.177.5-.412.796-.53.264-.106 1.088-.275 1.327-.357m-3.978 61.148c-.688-.919-1.508-1.751-2.064-2.755 0-.002-.476-4.347-.375-4.754.077-.308.646-1.063.75-1.378.06-.178-.069-.389 0-.563.163-.406 1.081-1.183 1.314-1.688.116-.253.063-.566.187-.815.113-.225.45-.338.563-.563.089-.177.086-.393.188-.563.09-.151.269-.233.375-.375.335-.447.338-.964.75-1.377.304-.304.75-.35.75-.563m-2.706-165.674c-.503-3.266-8.995 0-9.754-1.519-.534-1.067-.75-4.723-.75-6.003 0-1.116-.5-2.635.75-3.26 4.432-2.216 8.16 2.053 11.255.986"/><path fill="red" d="m221.252 345.642 57.029-71.3M124.495 512.866c.526-2.851 2.133-5.314 3.002-8.067 1.216-3.853 1.857-7.88 3.189-11.695 1.041-2.983 3.71-8.201 5.628-10.693 1.89-2.458 4.05-4.699 6.19-6.941a92.81 92.81 0 0 1 5.628-5.44c1.302-1.152 2.762-2.114 4.127-3.19.698-.55 1.406-1.09 2.064-1.688.062-.056.07-.297 0-.251-.36.239-.592.678-.938.938-.158.119-.423.048-.563.188-.25.25.046.71 0 1.061-.026.196-.14.371-.188.563-.182.728 0 1.5 0 2.251 0 1.313.022 2.627 0 3.94-.086 5.253-.22 12.883-1.125 17.821-.758 4.132-2.17 8.118-3.19 12.194l-2.438 10.317c-.313 1.605-.567 3.222-.938 4.814-.126.543-1.646 5.198-1.688 5.44-.205 1.161-.188 2.95-.188 4.315m22.323-.449c3.878-21.491 7.497-43.03 11.632-64.473.201-1.046.102 2.127.187 3.189.04.502.142.998.188 1.5.122 1.346-.038 2.273.375 3.688.244.837.625 1.626.938 2.44.313 1.125.637 2.247.938 3.376.45 1.685.917 3.366 1.313 5.065.48 2.054.707 4.17 1.313 6.19 3.298 10.992 8.305 20.937 14.258 30.701 1.245 2.044 2.611 4.012 3.94 6.003.548.823 1.085 1.655 1.687 2.44.039.049.188.062.188 0 0-.505-.125-1.001-.188-1.502m9.381-8.949c-.188-.312-.459-.588-.564-.938-4.532-15.11 14.77-43.768 15.758-45.46 1.57-2.687 2.263 5.802 3.565 8.629 2.577 5.597 4.762 11.43 8.066 16.632 2.808 4.42 12.518 12.356 16.696 15.007 13.941 8.845 3.457.697 12.569 5.253m16.133-9.073c-.003-10.815 12.826-25.377 17.259-28.455 3.135-2.176 2.042 7.38 3.564 10.88.997 2.293 2.68 4.22 3.94 6.38 5.032 8.626 4.321 9.23 10.693 16.132 2.412 2.614 2.365 2.506 4.314 3.312"/><path fill="teal" d="M154.23 436.024c.87 15.448 3.213 30.858 4.244 46.33.141 2.118 0 8.49 0 6.368 0-27.886 16.573-37.512 30.775-56.61.548-.737-1.301 1.346-2.123 1.757-5.858 2.929-2.693 1.812-9.55 3.183-5.276 1.056-11.595 2.025-16.98 1.062-2.198-.394-4.134-2.03-6.367-2.09-11.706-.31-2.911 3.23-13.795-.399m55.182 10.562c1.415 16.86-2.951 35.266 4.245 50.578 3.3 7.022 5.593-14.551 9.55-21.224 6.115-10.307 9.485-9.85 15.918-16.284 2.25-2.25 3.619-4.315 3.184-4.606-4.786-3.21-19.714-3.781-25.469-5.306-2.6-.69-4.952-2.105-7.428-3.158zm51.999 2.063c34.104 42.495 17.198 40.462 43.509-6.027.39-.688 2.122-.27 2.122-1.061 0-1.767-1.567.58-6.367 1.06-5.122.513-9.767-.424-14.857-1.06"/><path fill="#ffe723" d="M269.866 335.169c-.966 1.046-1.82 2.29-2.827 3.298-.433.433-1.033.696-1.413 1.178-.42.532-.6 1.218-.942 1.804-.287.488-.708.898-.943 1.413-.165.365-.109.798-.235 1.178-.19.567-.518 1.082-.707 1.65-.302.907-.793 3.418-.942 4.24-.428 2.351-1.022 4.716-1.414 7.067-.194 1.163.364 2.39.471 3.534.105 1.119-.657 5.153 0 5.81.278.278.665.43.943.708.277.277.429.664.706.942 2.155 2.155 5.524 2.598 8.325 3.398 1.318.377 2.835.796 4.24.472.584-.135 1.098-.477 1.65-.707 5.836-2.432 7.838-4.92 10.6-10.445 1.338-2.675 2.571-4.226 2.828-7.303.132-1.582-.079-1.674-.471-3.376-.908-3.93-1.472-7.441-4.16-10.6-.394-.465-2.294-2.844-2.826-3.164-1.581-.948.12.682-1.178-.942-.614-.767-.298-.266-1.178-.707-.756-.378-1.465-1.13-2.356-1.257-.9-.128-1.914 0-2.827 0-1.26 0 .534.05-1.178-.235-.79-.132-1.832.157-2.591.157-.275 0-1.984.258-2.035.471-.116.483.811 1.065.46 1.416-2.482-.44-1.194-.515-1.874.617-.078.13.1.324.236.392.142.072.471-.237.471-.078 0 .568.908-.03 1.278.155.275.137.433.333.707.47.14.07.33-.07.471 0 .1.05.13.201.236.236.078.026.157-.105.235-.079.382.127.8.753 1.178.942 2.275 1.138-.439-.303 1.178.236 1.347.449-1.424.045.707.471 1.369.274 5.65.734 6.503 1.491.132.117.112.347.236.471.287.287.526.11.707.471.237.475.585.702.942 1.178.21.281.26.662.471.943.488.65 1.034 1.176 1.178 2.041.183 1.097.16 2.183 0 3.298.244.608-.374.927-.471 1.414-.1.5.044 1.162-.157 1.649-.356.861-.233-.384-.47 1.041-.04.233.087.488 0 .707-.083.206-.373.273-.472.471-.07.14.038.32 0 .471-.385 1.538-.127-.89-.471 1.178-.039.233.046.476 0 .707-.118.59-1.94 3.98-2.356 4.397-.124.124-.33.13-.471.236-.609.456-.974 1.008-1.65 1.413-1.713 1.028-4.667.864-6.595.864-1.082 0-3.724.497-4.63.135-1.465-.586-1.732-3.392-1.65-4.712.102-1.63 1.165-2.685 1.885-4.005.761-1.396 1.333-2.942 2.12-4.32.25-.436.684-.746.942-1.177.723-1.204.904-2.473.471-3.77-.082-.248.076-.534 0-.785-.031-.106-.208-.127-.235-.235-.279-1.116.303-3.033.792-3.855.719-1.21-.178.414.47-.236.125-.124.511-1.177.708-1.177.122 0-.707.746-.707.863"/><path fill="#ffe723" d="M265.686 339.955c.452-1.226 1.178-2.338 1.699-3.555.121-.283.273-.613.333-.916.011-.055-.025-.117 0-.167.103-.205.938-.717 1.166-.75.618-.088.052.129.667-.11.49-.191.856-.63 1.332-.833.592-.254.12-.007.5-.084l.25-.083c.028-.037.04-.096.083-.111.203-.068 1.062-.123 1.298-.083.31.051.425.296.666.416.025.012.06-.015.083 0 .016.01-.017.05 0 .055.053.018.113-.013.167 0 .176.044.323.206.5.25.054.013.122-.033.166 0 .235.176.338.606.5.833.068.096.176.158.25.25.077.097.074.25.166.333.044.039.124.016.167.055.348.32.621.91.833 1.333.025.05-.031.12 0 .167.026.038.086.044.111.083.045.067.041.7 0 .782-.08.16-.245.263-.333.417-.221.387-.09.258-.333.583-.095.127-.098.065-.25.167-.23.153.123.023-.25.222-.623.332-1.219.127-1.832.25-.086.017-.163.068-.25.083-.123.02-.826-.035-.916.055-.04.04.03.12 0 .167-.076.116-.308.304-.388.464-.089.178.089.489 0 .666-.068.136-.243.134-.25.14-.03.024-.25.388-.25.166"/><path fill="#df9900" d="M279.78 179.405c-3.055 4.703-4.24 9.783-4.24 15.374 0 9.073-.247-.333.47 6.125.442 3.977 0 8.241 0 12.25 0 .96 1.077-1.611 1.414-2.51.471-1.257 1.15-2.454 1.413-3.77.386-1.925.226-4.16.471-6.125.253-2.021.496-4.916 1.414-6.753.242-.485.792-.51 1.117-.942l1.885-2.827c.11-.111.33.07.47 0 .981-.49 2.07-1.534 2.828-2.356.903-.981 1.787-1.686 2.827-2.518.442-.354.907-.69 1.413-.943.14-.07.36.111.471 0 .222-.222.189-.69 0-.942-2.02-2.692-5.22-3.787-8.01-5.337-.72-.4-2.34-2.356-3.298-2.356"/><path fill="#df9900" d="M283.02 212.701c.76-6.373 5.71-9.18 9.422-13.82.44-.548.493-1.344.943-1.884.502-.603 1.533-.711 1.884-1.413.1-.199.364-.666.471-.472 2.102 3.783 2.595 7.668 3.77 11.78.642 2.246 2.018 4.438 2.827 6.442.15.373-.401-.747-.752-.942-1.046-.581-2.13-1.154-3.299-1.414-2.592-.576-10.825-.649-12.72-.47-17.239 1.615-1.276 1.413-10.837 1.413m37.618-24.976c-.947 2.89-.296 5.972-.472 8.952-.074 1.264-.56 2.507-.47 3.77.07.99.726 1.857.942 2.827.102.46-.124.958 0 1.413.05.182.47.127.47.316 0 .913-.942 2.385-.942 3.298 0 .157.35.1.472 0 .853-.711 1.662-1.489 2.355-2.356.572-.715.805-1.671 1.414-2.356.668-.751 1.645-1.173 2.356-1.884 1.667-1.668 2.931-3.477 3.769-5.654.482-1.253 1.053-2.477 1.413-3.77 1.156-4.14-.366-1.778 1.414-5.338.253-.507 1.08-.865.942-1.414-.112-.45-4.72-.942-5.654-.942-.472 0-5.654.51-5.654-.471m-23.71 46.534c-.628-.063-1.821-.817-1.884-.19-.064.63 1.278.366 1.884.19 1.807-.521 3.388-1.67 5.183-2.23 6.626-2.067 7.494-1.449 12.721-1.885 1.885-.157 3.789-.16 5.654-.47.017-.004 1.885-.688 1.885-.627 0 .717-8.343 6.683-8.776 7.068-1.056.939-10.108 10.307-10.836 9.724-.694-.555-1.162-1.368-1.885-1.885-.404-.288-.982-.225-1.414-.471-1.211-.693-7.797-4.851-8.01-6.125-.267-1.608.334-4.24 2.357-4.24m34.394 2.524c-4.705 2.78-7.953 6.92-11.598 10.837-1.21 1.3-7.446 6.882-8.48 8.952-.071.14.314.019.47 0 1.102-.138 2.214-.23 3.298-.472 1.748-.388 3.47-.89 5.183-1.413 2.058-.629 4.044-1.493 6.125-2.042 2.771-.731 5.762-.507 8.481-1.413.632-.211.942-.943 1.413-1.414.629-.628 1.488-1.09 1.885-1.884.685-4.11-.08-1.645 1.885-5.183.75-1.352 1.737-3.104 1.413-3.298-2.854-1.713-6.904-1.688-10.075-2.67zm-13.792 38.163c-1.631 1.09-2.222 1.434-3.769 2.672-.173.139-.652.6-.471.471 1.435-1.017 2.737-2.228 4.24-3.143 5.362-3.264 12.634-5.18 16.962-10.05 6.63-7.459-1.128.559 1.885-3.454.094-.125.05.323 0 .472-.652 1.955-.837 3.259-1.414 5.182a895.524 895.524 0 0 0-3.298 11.308c-.534 1.87-2.346 2.645-3.144 4.24-.49.98-.72 2.996-1.885 3.578-.854.428-1.988-.013-2.827-.47-1.076-.588-1.845-1.62-2.826-2.357-2.297-1.722-5.002-3.117-7.068-5.182-.555-.556-1.062-1.183-1.413-1.885-.314-.628-.201-2.827.47-2.827m11.78 29.06c-1.012 3.415-1.04 6.822-1.414 10.365-.49 4.665-1 9.62-2.355 14.135-.487 1.62-1.35 3.107-1.885 4.712-.15.447-.333 1.746 0 1.413.248-.248.264-.658.471-.942 1.414-1.945 4.043-5.466 6.125-7.067 4.218-3.245 9.683-3.771 13.192-8.158.253-.315 3.413-4.952 2.827-5.654-.853-1.024-2.14-1.684-2.827-2.827-1.462-2.438-3.79-8.455-6.91-9.423-1.728-.536-4.663 0-6.597 0m-34.865 8.482c4.8-2.637 9.48-5.611 13.824-8.952.704-.542 1.173-1.352 1.884-1.885.791-.593 1.78-1.221 2.356-1.414.333-.11.857-.811.942-.47.194.776-.41 1.557-.47 2.355-.097 1.253 0 2.513 0 3.77-.158 2.041-.309 4.083-.472 6.124-.442 5.521-.471 10.958-.471 16.49 0 .61-.512-1.133-.942-1.563-1.617-1.617-1.66-1.764-3.77-3.298-1.686-1.226-7.376-4.107-8.48-5.654-.696-.974-.88-2.229-1.414-3.298m-8.481-35.958c1.81 2.436 2.812 5.635 4.712 8.01 1.558 1.947 1.497.905 2.827 3.298 1.944 3.5 2.355 7.407 2.355 11.307 0 .157-.022-.315 0-.47.136-.947.257-1.897.472-2.828l.942-3.298c0-.314-.052-.632 0-.942.663-3.978 2.533-7.527 3.77-11.308.557-1.705.948-6.603 2.505-8.16.112-.111.126.377 0 .471-1.185.889-2.461 1.659-3.769 2.356-2.436 1.3-14.51 5.749-16.961 3.298"/><path fill="#ffe723" d="M311.023 197.88c1.221-.889 2.346-1.927 3.664-2.665 4.693-2.629 3.85-1.26 7.996-3.332.281-.14.444-.444.666-.666.222-.111.804-.54.667-.334-.349.523-.94.843-1.333 1.333-1.644 2.055-3.052 4.09-4.892 5.997-.545.565-1.148 1.075-1.665 1.666-.817.933-.909 1.816-1 1.523-1.045-3.36-.333-7.524-.333-10.994m-23.3 16.528c0-.152-.028-.308 0-.458.028-.147.114-.276.167-.416.058-.152.102-.31.167-.458.255-.589.274-.403.416-1.041.225-1.014-.067-.165.208-1.083.048-.16.108-.316.167-.472.01-.029.032-.054.041-.083.004-.013-.013-.042 0-.042.02 0 .034.024.042.042.09.205.191.408.25.624.067.245.074.502.125.75.163.796.379 1.569.5 2.374.016.105.089.36-.042.458-.084.063-.308.05-.375.042-.68-.091-1.034-.653-1.582-1-.179-.113-.389-.166-.583-.25m4.372 1.237c.091.382.035.745-.041 1.124-.075.376-.187.746-.25 1.124-.011.069 0 .14 0 .209 0 .037-.036.101 0 .111.042.012.063-.06.1-.083.164-.102.343-.179.5-.291.36-.26 1.032-.812 1.207-1.25.031-.077 0-.166 0-.25 0-.055.018-.114 0-.166-.057-.172-.357-.63-.458-.806m-.85 26.029c.09-.886.539-1.236 1.082-1.915.242-.302.474-.61.708-.917.169-.22.335-.443.5-.666.071-.096.089-.291.208-.291.106 0 .09.191.125.291.063.178.143.354.167.541.084.677-.056 1.377-.167 2.041-.034.206.025.629-.208.736-.305.141-1.041-.087-1.208-.125-1.485-.337-.482-.189-1.707-.333m6.593-3.078c-.077 1.546.049.106-.291 1.833-.059.298-.077.602-.125.902-.036.224-.09.443-.125.667-.007.04-.033.15 0 .125.08-.06.102-.174.167-.25.227-.271.48-.52.708-.792.552-.659 1.057-1.36 1.582-2.04.206-.266.402-.54.625-.791.104-.118.444-.222.333-.334-.01-.01-.028-.002-.042 0-.167.026-.331.068-.5.084-.465.042-.912.041-1.374.041m-12.813 4.248c.457-.332.996-.509 1.5-.75.157-.074.3-.177.458-.25.167-.076.79-.388 1.04-.304.038.012.064.05.084.083.235.391.185.36.167.875-.007.208.006.421-.042.624-.076.328-.39 1.071-.651 1.333-.1.1-.373-.127-.542-.208-.543-.26-1.28-.622-1.874-.722"/><path fill="#fc0" d="M309.536 244.896c.483-.105.286.19.666 0"/><path fill="#ffe723" d="M309.869 249.255c-.662-.558-.507-.956-.583-1.79-.054-.593-.33-2.105-.07-2.624.026-.053.083-.083.125-.125.221-.221.413-.414.75-.291.087.031.164.088.25.125.012.005.035-.013.041 0 .13.259.145.562.25.832.094.244.2.484.333.708.315.536.605.85 1.041 1.278.078.076.158.15.25.208.024.015.064-.02.083 0 .001.001-.149.15-.25.208-.024.014-.056-.007-.083 0a7.09 7.09 0 0 0-.75.25c-.463.185-1.227.666-1.707.666m4.789-6.205c.028.611.018 1.225.084 1.833.032.298.137.583.208.874.095.39.188.78.291 1.166.05.183.118.36.167.542.007.026-.012.058 0 .083.006.012.037.013.042 0 .286-.715.37-1.484.624-2.207.024-.068.619-1.402.625-1.416.108-.237.25-.46.333-.708.044-.132.031-.277.042-.417.003-.041.037-.106 0-.124-.354-.177-.823.067-1.166.124-.533.09-.441.084-.75.084m3.832-2.541c.442-.55.927-.784 1.499-1.166.522-.348 1.03-.718 1.54-1.082.226-.162.433-.35.667-.5.112-.072.374-.285.5-.083.402.643.27.621.458 1.415.148.625.487 1.305.25 1.958-.13.354-.451.624-.833.624-.115 0-.25-.006-.334-.083-.207-.19-.335-.45-.5-.68-.238-.33-.449-.683-.707-.999-.651-.795-.594-.707-1.25-1.124m3.29-4.123c-.1.458.086.94.209 1.374.075.27.483 1.75.916 1.75.275 0 .693-.709.833-.875a5.65 5.65 0 0 1 .833-.75c.281-.195.582-.361.874-.541.06-.036.216-.076.167-.125-.093-.093-.232-.126-.333-.208-.38-.31-.594-.566-.958-.916-1.132-1.087-.187-.145-.625-.583m-7.732 13.105c.125-.097.263-.18.375-.292.098-.098.165-.223.25-.333.347-.454.633-.784.832-1.332.135-.37.182-.657.5-.917.057-.046.476-.379.583-.333.169.072.714 1.13.791 1.25.825 1.282-.04-.083.708.916.068.09.124.188.167.291.034.081.094.337.083.25a1.456 1.456 0 0 0-.083-.375c-.024-.058-.482-.705-.583-.624-.365.291.067.11-.583.458a4.416 4.416 0 0 1-1.708.541c-.234.03-.472.01-.708 0-.155-.006-.516-.125-.291-.125m-.917 22.714c.606-.424.309-.105.625-.791.091-.198.168-.405.292-.583.129-.186.31-.329.458-.5.116-.135.208-.29.333-.416.13-.13.324-.216.333-.167.033.18-.041 1.102-.041 1.166 0 1.05.044.283.125 1.166.029.321-.018.645-.084.958-.018.086-.027.182-.083.25-.1.119-.29-.118-.416-.208-.153-.111-.3-.231-.458-.334-.037-.023-.084-.027-.125-.041m-7.08 1.707c-.07.139-.164.268-.208.417-.068.23-.084.472-.125.708l-.167.957c-.09.522-.24 1.162-.208 1.708.038.637.348 1.185.5 1.79.062.248.029.999.416 1.042.276.03 1.36-.89 1.458-.958.592-.41 1.003-.562 1.457-1.125.526-.65.258-1.61.125-2.332-.036-.195-.053-.397-.125-.583-.151-.39-1.398-.144-1.736-.482m4.331 2.166c-.055.097-.133.185-.166.291-.184.581-.168 1.327-.042 1.916.042.195.112.509.458.208.366-.318 1.127-1.668 1.333-2.165.037-.09.216-1 .5-1 .039 0-.06.052-.084.083-.104.134-.172.297-.291.417-.097.097-.244-.217-.458-.458-.411-.462-.358-.391-.875-.667-.168-.089-.107-.083-.208-.083m-35.232.737c.065-.665.443-1.37.667-2 .08-.226.419-1.68.833-1.748a.087.087 0 0 1 .083.041c.379.758.63 1.594.958 2.374.329.782.221.602.624 1.166.047.066.206.208.125.208-.296 0-.581-.117-.874-.166-.233-.039-.472 0-.708 0-.404 0-.925-.06-1.333.042m6.538-3.873c.26.685.056 1.349-.041 2.04-.102.73-.11 1.29-.292 2-.062.242-.163.472-.25.707-.01.03-.051.113-.041.083.278-.834.813-1.52 1.29-2.248.138-.21.308-.4.417-.625.102-.21.146-.442.208-.666.02-.068.064-.439.167-.542.04-.04.225-.108.291-.125.014-.003.055.004.042 0-.882-.264-1.752-.291-2.665-.291m-5.581 7.829c.047-.713.626-.926.958-1.458.236-.376.37-.824.667-1.166.271-.313.478-.172.666.125.23.364.337.7.416 1.125.05.266.065.92.209 1.207.09.182.481.268.25.5-.283.283-1.287.105-1.583-.083-.297-.189.007-.167-.208-.167"/><path fill="#ffe723" d="M287.546 270.102c-.206.464-.167.238-.167.666 0 .32.023.64 0 .958-.113 1.579-.083-.45-.083 1.208 0 .194-.01.389 0 .583.01.239.04.4.083.375.27-.162.281-.522.333-.792.079-.405.127-.879.042-1.29-.168-.813-.235-.373-.5-1.167-.084-.253-.092-.526-.125-.79-.003-.028.013-.06 0-.084-.006-.013-.028-.005-.041 0-.127.05-.247.12-.375.166-.515.188-.451.157-.916.209m6.248 33.68c-.258-.375-.44-.82-.583-1.25a41.988 41.988 0 0 1-.458-1.666c-.035-.191-.071-.39-.042-.583.077-.5.525-1.124 1.083-1.124.47 0 .532.24.875.583.166.167.336.33.5.5.156.163.298.34.457.5.339.338.797.61.917 1.124.05.217-.014.445-.042.666a6.2 6.2 0 0 1-.125.667c-.017.072-.03.155-.083.208-.12.119-.806.162-.833.166-.442.074-.578.113-.958.209m-6.538.236c-.273-.422-.128-.868-.083-1.332.021-.222.009-.446.041-.666.031-.208.245-.844.333-1 .26-.458 1.1-1.117 1.375-.291.285.857.067 1.784.083 2.665.007.362.02.726.083 1.083.344 1.913.073-.25.333.79.01.039-.058-.052-.083-.082-.1-.123-.194-.25-.291-.375-.111-.125-.227-.247-.334-.375-.427-.513-.973-1.062-1.665-1.166-.124-.019-.25 0-.375 0m5.164 3.207c-.05.202-.173.654-.167.832.008.226.1.442.125.667.05.433-.008.99.167 1.416.102.249.316.418.583.25.182-.116.314-.297.458-.459.393-.442.648-.884 1.124-1.249.487-.373.833-.437 1.416-.583.082-.02.203.029.25-.042.034-.051-.107-.065-.167-.083-.122-.037-.251-.048-.374-.083-.572-.164-1.039-.414-1.458-.833m3.54 4.664c.114-.213.343-.328.458-.541.17-.315.156-.545.167-.916.03-1.066-.108-1.883-.625-2.832-.219-.401-.39-.56-.458-.458-.135.202.073.691.125.79.218.42.573.702.958.959.438.292.763.332 1.082.75.295.385-.083 1.513-.083 1.998 0 .399.022.57.167.916.019.047.067.078.083.125.004.014-.028.002-.042 0-.097-.012-.193-.036-.291-.041a29.772 29.772 0 0 0-1.166-.042m20.114-6.593c.111-.194.204-.4.333-.583.177-.249.424-.447.583-.708.39-.639.524-1.22.75-1.915.081-.25.154-.505.25-.75.057-.144.139-.278.208-.416.014-.028.02-.106.042-.084.04.04.039.11.041.167.04.8-.075.683.084 1.582.072.408.204.803.291 1.208.08.373.118.754.208 1.124.184.75.389 1.16.583 1.874.053.192.088.388.125.584.019.096.03.194.042.291.002.014.012.048 0 .042-.062-.031-.111-.084-.167-.125-.124-.07-.245-.149-.374-.209-.052-.024-.113-.022-.167-.041a8.396 8.396 0 0 1-.541-.208 19.751 19.751 0 0 1-1.874-.917c-.11-.059-.673-.236-.542-.5m7.301-3.289c.105 1.01.001 2.03-.042 3.04-.013.32-.01.64-.041.958-.178 1.87-.095-.225-.167 1.499-.004.097-.09.328 0 .291.145-.057.324-.764.417-.957.078-.164.194-.306.291-.459.29-.456.61-.887.916-1.332.068-.099.151-.187.209-.292.093-.171.009-.276-.042-.458-.184-.661-.48-1.402-1-1.874-.168-.153-.36-.277-.54-.416zm-3.581-2.665c.108-.15.515-.704.624-.875.19-.3.37-.605.542-.916.074-.136.125-.285.208-.417.084-.133.204-.243.291-.374.086-.129.13-.31.167-.292.028.014.033.053.042.083.047.165.082.334.125.5.306 1.186.143.426.374 1.75.093.526.196.771.084 1.29-.03.134-.103.254-.167.375-.047.088-.117.163-.167.25-.007.012.014.041 0 .041-.02 0-.03-.026-.041-.041-.127-.165-.254-.33-.375-.5-.157-.22-.282-.462-.458-.666-.276-.32-.465-.453-.75-.667m-1.374 13.515c-.44.622-.598 1.418-.666 2.165-.02.208.008.417 0 .625-.002.057-.137 1.019-.125 1.041.009.018.028-.028.041-.041l.5-.5c.167-.167.33-.337.5-.5.55-.529.6-.534 1.083-1.041.128-.135.236-.291.374-.417.155-.14.331-.253.5-.374.388-.28.679-.308.708-.833.019-.332-.33-.395-.541-.5-.708-.354-1.408-.677-2.166-.916-.247-.078-.5-.138-.75-.208-.31-.087-.189-.084-.333-.084m-39.423-124.97c.373-.922.612-1.911 1.119-2.768.102-.172.39-.132.589-.117.098.007.17.103.235.176.257.286.396.62.59.943.083.139.023.011.117.058.09.045.223.363.236.413.056.212.074.432.118.648.035.177.073.354.117.53.02.078.116.178.06.235-.053.052-.232.034-.295.06-.305.12-.044.176-.471.176-.62 0-.295-.048-.766-.177-.115-.031-.24-.021-.353-.059-.326-.108-.624-.285-.943-.412-.042-.017-.379-.177-.47-.177m.117 5.066 1.06 2.65"/><path fill="#ffe723" d="M278.322 192.677c.028-.36.024-.725.084-1.083.301-1.81.645-3.613 1-5.413.007-.039.043-.084.083-.084.027 0 0 .056 0 .084 0 .305-.04.613 0 .916.016.123.133.213.166.333.052.19.036.393.083.583.064.256.182.495.25.75.164.615 0 .334.167.833.109.327.376.756.416 1.082.021.166-.013.334 0 .5.012.135.163.67.084.75-.07.07-.32.064-.417.083-.557.111-.956.42-1.332-.333m5.914-9.412c.443 1.61.718 3.277 1.332 4.83.153.389.048-.833.083-1.248.29-2.616-.042.628.083-1.25.044-.648.26-1.345.167-1.999-.016-.11-.226.027-.333 0-.166-.041-.319-.25-.5-.25m-8.912 12.411c.322 1.933.148.85.666 4.997.007.055-.024.216 0 .166.202-.403.155-.572.25-.999.193-.869-.056.537.25-.583.123-.45.148-.957.25-1.416.056-.253.467-.962.416-1.166a.711.711 0 0 0-.166-.333c-.03-.03-.206.01-.25 0-.262-.066-.494-.199-.75-.25-.048-.01-.568.036-.583 0-.052-.131-.055-.278-.083-.416zm1.971 17.326c.068-.14.134-.279.203-.417.016-.03.035-.059.052-.088.01-.018.015-.01.021-.016.001 0-.002-.006 0-.005a.397.397 0 0 1 .068.052c.026.065.032.13.047.198.01.05.023.101.036.151.004.016.038.115.016.13a.068.068 0 0 1-.042.01c-.085 0-.09-.024-.161-.067-.047-.029-.095-.04-.146-.057m.984-.375c-.026.652-.102.72.12.463.016-.019.03-.04.046-.057.037-.04.081-.073.115-.115.016-.02.027-.045.042-.068.016-.025.062-.08.062-.114 0-.01-.018-.01-.026-.016-.024-.02-.033-.056-.057-.078-.006-.005-.014-.007-.021-.01-.051-.028-.123-.073-.182-.073m-2.871-4.429c-.235-.094-.082-.025-.5-.353-.042-.032-.084-.064-.118-.103-.008-.01.06-.03.073-.03.025 0 .05-.003.074 0 .007.002.009.012.015.015a.65.65 0 0 0 .206.074c.02.002.04-.003.059 0 .015.002.03.01.044.015.03.005.058.012.088.014.069.005.33-.024.383.03.015.015-.093.023-.103.044-.02.041-.028.089-.044.132-.041.112.024-.123-.044.103-.004.013-.045.193-.045.148m-.323-.957c.24.108.482.213.721.324.036.016.067.042.103.058.01.004.02 0 .03 0 .01 0 .029.01.029 0 0-.048-.126-.05-.147-.058-.033-.014-.035-.063-.06-.089-.03-.033-.07-.056-.102-.088-.156-.156.033.002-.118-.133a1.453 1.453 0 0 0-.25-.176c-.014-.008-.032-.005-.045-.015-.013-.011-.016-.032-.029-.044-.008-.008-.022-.007-.03-.015-.002-.003.004-.011 0-.015-.027-.027-.003.08 0 .118.008.07.015.136.015.206 0 .105.01.01-.014.06-.002.003-.003.017 0 .014.008-.008.01-.02.014-.03m.545-.647c-.22-.197-.458-.376-.662-.59-.036-.036-.001-.146.044-.161.099-.033.42.04.515.088.128.064.088.074.177.177.047.055.127.134.191.176.044.03.102.048.147.074.023.013.083.022.06.03-.064.02-.156-.012-.222 0-.126.02-.188.103-.25.205zm-.486-1.605c.379.303.696.558 1.149.868.041.029.097.03.147.03.04 0-.119-.145-.25-.295-.132-.148-.238-.31-.354-.47-.07-.099-.264-.384-.412-.384m1.252-.058c-.601 0 .06.007-1.576-.442-.052-.014-.112.007-.162-.015-.016-.007.018-.031.03-.044a1.514 1.514 0 0 1 .692-.427c.203-.025.505.082.706.132.006.001.25.07.28.074.03.004.06-.005.088 0 .03.005.187.047.221.059.052.017-.073.043-.073.044-.018.051.003.108 0 .162-.01.145-.059.283-.074.427-.008.078-.008.157-.015.236-.036.4-.03.102-.03.427 0 .04-.003.038.016 0m-.265-1.929c-.344-.349-.675-.71-1.031-1.046-.248-.233-.171-.1-.339-.206-.026-.017-.047-.041-.073-.059-.037-.024-.08-.036-.118-.058-.006-.004-.022-.017-.015-.015.051-.016.078.032.118.044.352.1.718.188.986.456.04.04.068.09.103.133.117.141.242.295.383.412a.78.78 0 0 0 .148.103c.007.003.076.018.088.03.011.011-.013.025-.015.03-.004.008.005.02 0 .029-.008.011-.021.018-.03.029-.029.04-.033.09-.058.132-.033.055-.082.085-.103.148-.005.014 0 .03 0 .044m-1.399-2.267c.417.299.832.601 1.251.898.016.01.164.104.118.044-.13-.17-.198-.202-.309-.339a10.035 10.035 0 0 1-.22-.28c-.024-.03-.1-.145-.148-.176-.022-.015-.05-.018-.074-.03-.106-.053-.197-.132-.324-.132"/><path fill="#ffe723" d="M276.56 202.04c.27.187.538.378.81.56.052.034.11.055.162.088.033.021.058.051.089.074a2.7 2.7 0 0 0 .206.132c.011.007.06.03.073.015.014-.013-.05-.14-.058-.177-.014-.065.039.099 0-.058a.79.79 0 0 0-.06-.162c-.087-.175-.231-.32-.367-.457-.03-.03-.055-.064-.089-.088a1.34 1.34 0 0 0-.309-.147c-.117-.024-.236-.025-.353-.045-.045-.007-.089-.019-.133-.03-.039-.008-.073-.02-.073-.014 0 .005.01-.003.014 0 .037.032.067.071.103.103.017.015.042.021.06.03.019.01.016.028.029.044.062.075.059.029.059.073m.603 7.804c-1.031-.454.02 0-.53-.22-.17-.07.06.014-.117-.074-.027-.014-.061-.003-.089-.015-.016-.007-.027-.023-.044-.03-.01-.004-.088-.005-.088-.029 0-.005.131-.03.147-.03.098 0 .197.015.294.015.201 0 .087-.014.25-.044.02-.004.04 0 .06 0l.059-.015c.011-.003.397-.03.353-.073-.014-.014-.015.039-.015.059 0 .106-.007.15-.03.25-.027.124.003-.006-.043.118-.018.046-.015.103-.074.118-.01.002-.02-.003-.03 0-.006.002-.007.016-.014.014-.032-.009-.065-.067-.088-.044-.108.108.084.103.014.103m-.736-.824c.191-.064.383-.126.574-.192.468-.162.012-.006.28-.118.04-.016.16-.028.191-.059.008-.008.007-.021.015-.029.003-.003.011.003.015 0 .008-.008.009-.02.014-.03.004-.005.015-.007.015-.014s-.04.015-.103.015c-.145 0-.282-.03-.427-.03-.08 0-.185.013-.265 0-.06-.01-.119-.044-.177-.059-.01-.002-.02.003-.03 0-.016-.006-.045-.057-.073-.03-.003.004 0 .01 0 .016l.015.22c.003.054.009.11 0 .162-.009.05-.041.097-.044.148-.002.04.021.078.03.117.022.113-.04-.086.014.074m.942-.972c-.24 0-.497.058-.721-.059-.069-.035-.126-.09-.191-.132-.088-.057-.169-.1-.25-.162-.031-.023-.057-.053-.09-.074-.003-.003-.014.005-.014 0 0-.032.07-.03.089-.03.1 0 .194.01.294.016.054.003.108-.005.162 0 .045.005.088.024.132.029.097.01.34.011.442 0 .028-.003.25-.045.28-.03.024.012-.03.01-.03.03v.118c0 .107.008.217 0 .324-.001.03-.01.058-.014.088 0 .005.003.011 0 .015-.02.02-.015-.025-.015.014m.25-1.737.083-.306.012-.04h.004v.012c.004.013.007.027.012.04a.078.078 0 0 0 .008.012l.008.02.028.091c.006.02.023.066.028.088.007.028.01.058.016.087a.1.1 0 0 0 .004.024.4.4 0 0 0-.14-.072c-.003 0-.007.002-.011 0-.016-.004 0-.003-.016-.003m-.143.64c.067-.106.124-.22.202-.318.008-.01.023.014.032.023.045.045.07.103.096.16.008.017.029.045.023.067-.005.021-.117.01-.127.008-.063-.005-.03-.004-.087-.004-.005 0-.013.004-.016 0l-.004-.012m-.382-.362c.036.085.069.171.108.255.005.01-.007-.022-.004-.032.005-.019.018-.035.027-.052l.02-.036c.037-.056.011-.008.052-.063l.016-.028c.004-.007.007-.014.012-.02h.004c-.093 0-.175-.063-.267-.063m.489-.072c.004.026.006.053.012.08.005.022.013.045.02.067l.008.016c.001.003.002.01.004.008.005-.005.005-.014.008-.02a.086.086 0 0 1 .012-.02h.004c.01-.009.04-.065.036-.08-.002-.006-.007-.001-.012-.003l-.012-.008a.55.55 0 0 0-.072-.02h-.015c-.011-.002-.017-.008-.028-.008m.333.223c0-.084-.003-.125.056-.227.01-.018.017.037.024.056.004.01.059.146.056.155-.001.003-.001.007-.004.008-.008.002-.016-.001-.024 0-.003 0-.005.003-.008.004a.286.286 0 0 1-.072 0c-.004-.001-.008-.005-.011-.004-.006 0-.011.005-.016.008zm.016-.485c0 .073-.002.127.068.202.019.02.018-.053.028-.08.009-.022.016-.045.028-.067.002-.003.047-.052.047-.056h-.016c-.034.005-.068.016-.103.016m.028.788c.018-.074.055-.147.087-.211.004-.008-.005.018-.004.028.004.045.014.09.02.135.001.01.02.157.016.175 0 .002-.003-.002-.004-.004-.007-.015-.011-.03-.02-.044a.51.51 0 0 0-.075-.08c-.006-.002-.013 0-.02 0zm-.336-1.29c.041-.14.13-.287.186-.404.005-.012.005-.032.017-.034.01-.002.007.019.012.028.015.04.036.077.045.118.011.058.01.121.016.18.001.013.007.026.006.04-.002.011-.046.01-.056.01-.024 0-.05.007-.073 0-.02-.004-.037-.016-.056-.022a.34.34 0 0 0-.096-.017m.315-.68c.047.107.075.224.14.32.018.027.01-.063.012-.095.003-.047 0-.094.006-.14 0-.002.011-.076.022-.102a.14.14 0 0 1 .011-.022c.001-.003.006-.004.006-.007 0 0-.026.007-.045.006-.018 0-.037-.004-.056-.006-.024-.004-.048-.009-.073-.01-.024-.003-.049 0-.073 0m.202-.22c.17-.254.131-.292.196-.078.011.036.025.071.04.107.007.017.022.032.022.05 0 .002-.004 0-.006 0-.013-.002-.027 0-.04-.006-.05-.02-.079-.05-.123-.073-.052-.028-.015.007-.033-.011m-.652.332c.04.065.078.133.123.197.004.006 0-.015 0-.023 0-.098-.003-.028.006-.095.012-.086-.009-.026.023-.068.007-.009.01-.02.017-.028 0 0 .034-.028.028-.034h-.186m.23.253.017-.241c.002.003.01-.003.011 0a.47.47 0 0 1 .08.19c.002.027 0 .054.005.08 0 .002.007.006.006.005-.042-.041-.058-.053-.118-.033zm-.365.186c.011.07-.005.15.034.208.02.03.017-.073.033-.107.003-.006.08-.092.08-.096 0-.002-.005.001-.007 0-.002 0-.004-.004-.006-.006l-.022-.006c-.016-.004-.03-.013-.045-.017-.02-.005-.152-.029-.152-.01m.934.084c-.002.06-.006.12-.006.18 0 .003.004-.003.006-.006.012-.018.026-.035.034-.056.017-.047.005-.169.078-.169h-.046a.822.822 0 0 1-.072-.01c-.017-.004-.033-.012-.05-.012m-.163.579c.047-.08.078-.172.14-.241.014-.016.021.036.028.056.01.025.014.053.023.079.01.03.02.06.033.09.014.027.059.039.04.067-.039.058-.124-.01-.169-.022-.052-.015-.103-.012-.157-.012m-.444-.135c.052.092.08.204.157.276.03.028 0-.083.006-.124.008-.062.033-.054.05-.101.021-.056-.007-.058-.05-.084-.09-.056-.175-.13-.287-.13m-.321.27c.038-.105.074-.21.113-.315.004-.01.02.013.022.023.04.14.025.131.051.247a.161.161 0 0 0 .028.062c.012.017.018.011.017.011-.034 0 .002.002-.045-.011h-.011c-.054-.015-.106-.045-.163-.045m.691-1.669c.045.114.045.259.135.342.051.047.008-.138.011-.208v-.022c.001-.007.015-.011.012-.017a.139.139 0 0 0-.045-.04c-.007-.003-.016-.002-.023-.006-.01-.006-.018-.016-.028-.022-.02-.012-.042-.018-.062-.028zm.59-.051.124-.355c.004-.004.01-.016.011-.01.006.03.003.063.006.095.006.066.01.086.029.146l.056.186c0 .004.006.007.006.01s-.004.001-.006 0a1.239 1.239 0 0 1-.214-.101c-.024-.014-.06-.044-.09-.044m-.742-.326c0 .136-.005.215.258.297.06.02.016-.124.028-.185.017-.084.014-.078.096-.107.017-.006.028.004.028 0 0 0-.025.002-.04 0s-.03-.007-.044-.011c-.098-.03-.19-.08-.287-.113m.877-.09c-.004-.007-.009-.014-.011-.022a.138.138 0 0 1-.006-.045c.015-.162.031-.323.056-.484.003-.017.01.034.011.051.004.047-.009.096.006.14.025.074.143.098.135.186-.003.03-.01.025-.028.04-.014.01-.044.039-.062.039-.002 0 .002-.005 0-.006-.012-.007-.026-.011-.039-.017-.048-.02-.033-.02-.09-.017-.02.001-.062.002-.062.034m-.074-.858c.067-.18.097-.378.2-.54.035-.057.012.132.015.198.003.069-.004.138 0 .207.001.024.005.048.008.071.002.016.02.037.008.048-.049.05-.123-.025-.159-.048l-.12-.071"/></svg>