<?xml version="1.0" encoding="UTF-8" standalone="no"?>
<!-- Created with Inkscape (http://www.inkscape.org/) -->

<svg
   width="400"
   height="500"
   viewBox="0 0 400 500"
   version="1.1"
   id="SVGRoot"
   sodipodi:docname="unknowndrinker.svg"
   inkscape:version="1.2.2 (b0a8486541, 2022-12-01)"
   xmlns:inkscape="http://www.inkscape.org/namespaces/inkscape"
   xmlns:sodipodi="http://sodipodi.sourceforge.net/DTD/sodipodi-0.dtd"
   xmlns="http://www.w3.org/2000/svg"
   xmlns:svg="http://www.w3.org/2000/svg"
   xmlns:rdf="http://www.w3.org/1999/02/22-rdf-syntax-ns#"
   xmlns:cc="http://creativecommons.org/ns#">
  <sodipodi:namedview
     id="namedview21"
     pagecolor="#ffffff"
     bordercolor="#000000"
     borderopacity="0.25"
     inkscape:showpageshadow="2"
     inkscape:pageopacity="0"
     inkscape:pagecheckerboard="0"
     inkscape:deskcolor="#d1d1d1"
     inkscape:document-units="px"
     showgrid="true"
     inkscape:zoom="2"
     inkscape:cx="-24.25"
     inkscape:cy="350.5"
     inkscape:window-width="1920"
     inkscape:window-height="1011"
     inkscape:window-x="0"
     inkscape:window-y="32"
     inkscape:window-maximized="1"
     inkscape:current-layer="layer1">
    <inkscape:grid
       type="xygrid"
       id="grid27"
       originx="0"
       originy="0" />
  </sodipodi:namedview>
  <defs
     id="defs16" />
  <g
     inkscape:label="Layer 1"
     inkscape:groupmode="layer"
     id="layer1">
    <path
       style="fill:#000000;fill-opacity:1;stroke-width:0.56308;stroke-dasharray:none"
       d="m 27.181052,515.57189 c -2.629014,-10.71745 1.326899,-19.99803 8.48958,-27.95651 1.991916,-2.21324 6.151713,-5.50013 7.428383,-8.48959 0.42977,-1.00635 -0.32034,-1.52388 0,-2.48491 0.901838,-2.70551 3.064675,-4.83208 4.24479,-7.42832 4.422022,-9.72839 -0.878217,-3.39271 6.367185,-11.67317 4.225573,-4.82923 2.228884,-1.81763 7.428382,-6.36718 3.07681,-2.69221 5.321564,-6.26784 8.489581,-8.8521 3.30845,-2.69882 18.65326,-8.88035 23.346277,-9.55077 8.79969,-1.2571 18.60761,-2.42151 27.59114,-1.42333 10.02807,1.11423 7.76668,1.59105 15.91796,-2.4846 0.31639,-0.15819 0.81106,0.25012 1.06119,0 0.5593,-0.5593 0.53307,-1.53357 1.0612,-2.12239 0.56923,-0.63465 1.68488,-0.6954 2.12239,-1.4271 0.36308,-0.60719 -0.17158,-1.43604 0,-2.12238 2.32255,-9.29018 2.1224,-18.8753 2.1224,-28.65228 0,-21.49635 -2.10654,-42.65175 -4.24479,-64.03423 -3.10259,-31.02586 -1.31959,-63.86194 1.0612,-94.81228 0.80385,-10.45013 -0.41518,-20.8026 1.06119,-31.13728 0.15009,-1.05053 -0.33557,-2.17685 0,-3.18359 1.03874,-3.11619 2.506,-2.98764 4.24473,-5.30599 1.01501,-1.35337 0.99274,-3.35073 2.12239,-4.60998 1.08563,-1.21016 12.80871,-8.88951 14.85678,-9.91355 2.12239,-1.06119 0,2.1224 3.18359,0 0.65812,-0.43875 0.3268,-1.82863 1.0612,-2.12239 2.58796,-1.03519 20.23923,0.44083 23.34633,0.69976 8.58416,0.71535 16.83668,3.5808 25.46869,4.24479 4.18779,0.32214 8.55782,-0.46406 12.73437,0 9.12425,1.01381 25.90231,3.59188 32.89712,9.18773 3.52981,2.82384 6.77334,5.08997 10.61191,7.42834 1.70549,1.03894 2.64434,2.81178 4.24479,3.87875 3.13453,2.08968 8.04625,3.33805 11.67318,4.24479 0.36296,0.0908 1.41493,-0.2437 1.06119,-0.36554 -3.56473,-1.22791 0.31102,9.22934 1.0612,16.97912 0.39744,4.10581 0,8.24999 0,12.37498 0,10.38863 0.98566,21.4864 0,31.8359 -0.74764,7.85024 -3.81864,20.15435 -5.30599,27.5911 -1.80061,9.00302 -2.13282,18.31619 -4.24478,27.22563 -0.594,2.50577 -1.58282,4.91033 -2.1224,7.42838 -3.70573,17.29343 0.6319,-0.81046 -1.0612,12.73437 -0.42991,3.43933 -2.73839,5.98917 -3.18359,9.55078 -0.63974,5.11788 -0.57905,10.41641 -1.06121,15.55526 -0.50646,5.39817 -2.43189,10.65606 -3.18358,15.9179 -0.48524,3.39668 -0.62872,16.26175 -2.1224,18.73948 -1.63989,2.72029 -2.72256,-0.82685 -4.24472,0.69531 -0.51977,0.51977 -0.44861,4.97919 -2.1224,6.36719 -1.31851,1.09338 -0.60994,1.82987 -2.1224,2.8212 -1.63377,1.07086 3.47692,-1.80212 5.306,-2.48802 7.30436,-2.73916 13.42803,-3.54605 21.22388,-3.54605 10.01869,0 17.39886,2.94303 26.52994,6.36718 5.55623,2.08359 2.68764,0.024 7.42838,2.1224 9.82108,4.34725 -6.82748,-1.6105 9.55072,4.9408 9.91367,3.96548 20.09931,6.86606 29.71352,11.67317 12.79627,6.39813 9.28751,14.60889 13.79557,27.23142 0.90608,2.53699 2.33171,4.87264 3.1836,7.42832 2.67093,8.01277 3.54595,17.08277 4.24479,25.46874 0.20956,2.51477 0.88639,14.8363 -4.24479,13.06774"
       id="path4468" />
    <path
       style="fill:#000000;fill-opacity:1;stroke-width:0.56308;stroke-dasharray:none"
       d="m 254.27712,201.29217 c 13.97252,-50.8676 -2.67541,-41.53674 23.34629,-49.54342 5.66742,-1.74382 11.25058,-3.77499 16.97916,-5.30599 0.47502,-0.12696 7.30001,-1.15929 8.48958,-0.36624 6.08205,4.0547 1.30432,10.47055 2.1224,15.91796 0.35256,2.34763 2.32652,6.6581 1.06119,9.18877 -0.15819,0.31639 -0.74481,-0.1582 -1.06119,0 -3.63549,1.81774 -7.42839,0.3329 -7.42839,0.70205 0,1.45848 2.89063,-0.51953 4.24479,-1.06119 5.64004,-2.256 29.35989,-14.98306 35.01945,-13.09654 1.20996,0.40333 2.21524,1.29238 3.1836,2.1224 9.40186,8.0587 8.43517,14.6971 9.55078,25.46871 0.1381,1.33342 1.23483,2.54986 1.06119,3.87912 -0.45079,3.45107 -5.57248,9.15343 -8.48957,10.61197 -2.66328,1.33164 -7.29747,4.30543 -10.61198,3.18359 -0.70584,-0.23889 1.42468,0.44039 2.12239,0.70203 2.09476,0.78553 4.26033,1.36992 6.36719,2.12236 2.84621,1.01651 5.82285,1.76134 8.48957,3.1836 4.73321,2.52438 22.65606,14.03391 19.10157,21.91967 -2.07207,4.59693 -18.68552,11.77719 -23.34635,10.61198 -1.84804,-0.46202 -3.56526,-1.34874 -5.30599,-2.12239 -1.49825,-0.66589 -5.74148,-1.81562 -4.24478,-2.48498 19.59748,-8.76446 31.7605,12.20768 24.40754,29.34726 -4.93895,11.51255 -23.18544,12.43703 -32.89713,6.36718 -2.04817,-1.28011 -3.57507,-5.49308 -3.18353,-5.66815 0.96876,-0.43313 2.12235,0 3.18353,0 7.07913,0 11.71656,0.79547 18.04036,4.2448 1.81075,0.98766 3.93568,1.64195 5.30599,3.18355 9.52356,10.71398 2.66948,32.20295 -8.48959,38.89836 -7.81441,4.68863 -15.69195,1.14794 -21.22388,-5.30599 -0.83002,-0.96835 -1.97058,-1.91725 -2.12239,-3.18359 -1.53007,-12.76293 21.21375,-13.63233 28.65226,-9.91307 7.42636,3.71317 9.8162,12.60279 10.61198,20.16272 0.72192,6.85831 0.88177,16.83774 -6.36719,20.86493 -11.55547,6.41971 -41.97746,-13.59532 -32.89705,-20.52886 1.7781,-1.35771 4.21606,-1.50778 6.36718,-2.1224 4.47835,-1.27953 11.01676,-3.34768 15.9179,-2.12239 7.67698,1.91925 14.18274,13.69519 11.67317,21.22391 -6.21838,18.65515 -44.57024,27.6814 -44.57024,2.81784 0,-7.02685 5.0223,-7.7907 10.61199,-7.7907 4.03809,0 10.16374,-0.78302 13.7955,2.12238 12.34638,9.87711 2.91625,28.24632 -6.36719,35.71846 -10.34749,8.3286 -18.70315,10.72829 -30.77466,3.18359 -1.44571,-0.90356 -4.12927,-7.32143 -5.30599,-6.73307 -3.34976,1.67489 -8.90519,4.80407 -12.73437,5.30599 -1.05911,0.13883 -2.12173,-0.48168 -3.18359,-0.3657 -5.62166,0.61406 -11.36437,2.48176 -16.9791,3.18359 -4.2436,0.53046 -8.53184,-0.36258 -12.73437,-0.36258"
       id="path4470" />
    <path
       style="fill:#000000;fill-opacity:1;stroke-width:0.56308;stroke-dasharray:none"
       d="m 150.27983,259.97817 c -15.91794,12.25986 -32.64082,23.54018 -47.75383,36.77961 -37.174698,32.56612 -14.727786,16.80798 6.36719,18.37054 33.55458,2.48549 -0.17505,2.59861 36.08065,2.12236 8.72016,-0.11454 6.5343,1.59288 9.55079,-1.42361"
       id="path4472" />
    <path
       style="fill:#000000;fill-opacity:1;stroke-width:0.56308;stroke-dasharray:none"
       d="m 146.48723,389.54712 c -0.61376,-0.66536 -1.68454,-0.0294 -2.3877,-0.2653 -0.20192,-0.0677 -0.32867,-0.28826 -0.53059,-0.356 -0.69833,-0.23428 -1.72869,-0.30165 -2.38768,-0.7959 -2.0408,-1.53062 -4.66831,-3.1517 -5.83659,-5.48825 -0.36659,-0.73317 -0.2653,-1.65313 -0.2653,-2.47736 0,-0.98635 -0.11484,-2.11836 0.2653,-3.00989 0.23698,-0.55576 0.59701,-0.39812 0.7959,-0.79589 0.0811,-0.16206 -0.1089,-0.47552 0,-0.62199 0.0528,-0.0709 0.17686,0 0.2653,0 0.0884,-0.0884 0.19592,-0.16123 0.2653,-0.2653 0.33382,-0.50072 0.53785,-1.14762 1.0612,-1.32648 0.11227,-0.0384 -0.0839,-0.27207 0,-0.35597 0.0625,-0.0625 0.20276,0.0625 0.2653,0 0.0606,-0.0606 0.76558,-0.97028 0.7959,-1.0612 0.31321,-0.93964 0.5181,-2.79334 0.26529,-3.80458 -0.0303,-0.12133 -0.22575,-0.14666 -0.26529,-0.2653 -0.056,-0.16779 0.056,-0.3628 0,-0.5306 -0.43392,-1.30173 -5.70891,-1.80024 -5.0407,-3.80489 0.36506,-1.09515 3.50963,-2.91513 4.5101,-3.54042 1.8319,-1.14493 3.38848,-2.58068 5.30597,-3.53943 0.11183,-0.056 0.17686,-0.17686 0.2653,-0.2653 0.26529,-0.17686 0.49985,-0.41217 0.79589,-0.53059 0.26401,-0.10563 1.08825,-0.27464 1.3265,-0.35682"
       id="path4476" />
    <path
       style="fill:#000000;fill-opacity:1;stroke-width:0.56308;stroke-dasharray:none"
       d="m 141.97903,417.23778 c -0.68785,-0.91835 -1.50802,-1.75111 -2.06355,-2.75506 -0.001,-0.002 -0.47686,-4.3472 -0.37519,-4.75385 0.077,-0.30813 0.6453,-1.06268 0.75037,-1.37791 0.0593,-0.17796 -0.0697,-0.3886 0,-0.56278 0.16236,-0.40588 1.0804,-1.18273 1.31318,-1.68834 0.11656,-0.25322 0.063,-0.56564 0.18759,-0.81497 0.1125,-0.22512 0.45023,-0.33768 0.56279,-0.56279 0.0884,-0.17686 0.0858,-0.39322 0.18758,-0.56279 0.091,-0.15166 0.26908,-0.2337 0.3752,-0.37519 0.33541,-0.44721 0.33763,-0.96444 0.75037,-1.37718 0.30348,-0.30347 0.75038,-0.3502 0.75038,-0.56279"
       id="path4478" />
    <path
       style="fill:#000000;fill-opacity:1;stroke-width:0.56308;stroke-dasharray:none"
       d="m 141.71149,236.17058 c -0.50367,-3.26703 -8.99549,-1.9e-4 -9.75494,-1.5191 -0.53353,-1.06704 -0.75034,-4.72386 -0.75034,-6.00303 0,-1.11605 -0.49929,-2.63544 0.75034,-3.26027 4.43207,-2.2161 8.16091,2.05244 11.25569,0.98605"
       id="path4480" />
    <path
       style="fill:#ff0000;fill-opacity:1;stroke-width:0.56308;stroke-dasharray:none"
       d="m 221.25167,345.64244 57.02888,-71.29968"
       id="path4482" />
    <path
       style="fill:#ff0000;fill-opacity:1;stroke-width:0.56308;stroke-dasharray:none"
       d="m 124.49518,512.86585 c 0.52624,-2.85099 2.13261,-5.31428 3.00152,-8.06658 1.21654,-3.85342 1.85691,-7.8807 3.18911,-11.69567 1.0416,-2.98274 3.71105,-8.20107 5.62785,-10.6929 1.89023,-2.4573 4.05001,-4.69845 6.19063,-6.94101 1.80155,-1.88734 3.67359,-3.7115 5.62783,-5.44025 1.30218,-1.15192 2.76147,-2.11317 4.1271,-3.18911 0.69809,-0.55002 1.40592,-1.09052 2.06353,-1.68834 0.0619,-0.0563 0.0698,-0.29724 0,-0.25106 -0.36052,0.23858 -0.59185,0.67839 -0.93797,0.93798 -0.15819,0.11864 -0.42295,0.0478 -0.56277,0.1876 -0.25025,0.25023 0.0458,0.71075 0,1.06166 -0.0256,0.19608 -0.13965,0.37095 -0.1876,0.56278 -0.182,0.72798 0,1.50076 0,2.25115 0,1.31316 0.0215,2.62649 0,3.93948 -0.0862,5.25319 -0.22027,12.88345 -1.12557,17.82151 -0.75761,4.13239 -2.17016,8.11783 -3.18912,12.19366 -0.81291,3.43924 -1.62582,6.87848 -2.43873,10.31772 -0.31265,1.60447 -0.56732,3.22135 -0.93798,4.81342 -0.12641,0.54301 -1.64561,5.19806 -1.68835,5.44026 -0.20494,1.16132 -0.18759,2.95042 -0.18759,4.31467"
       id="path9015" />
    <path
       style="fill:#ff0000;fill-opacity:1;stroke-width:0.56308;stroke-dasharray:none"
       d="m 165.39086,528.29374 c 3.87695,-21.49104 7.49568,-43.03026 11.63087,-64.4731 0.20164,-1.04561 0.10271,2.12762 0.18759,3.18909 0.0402,0.50255 0.14195,0.99869 0.18759,1.50077 0.12231,1.34539 -0.0376,2.27245 0.3752,3.68788 0.24387,0.83612 0.62531,1.62582 0.93796,2.43873 0.31266,1.12556 0.63698,2.24796 0.93798,3.3767 0.44941,1.68529 0.91683,3.36652 1.31316,5.06507 0.47934,2.05427 0.70702,4.17013 1.31317,6.19062 3.29746,10.99151 8.30417,20.9361 14.25721,30.70086 1.24587,2.04358 2.61186,4.01159 3.93948,6.00304 0.54844,0.82266 1.08553,1.65505 1.68836,2.43873 0.0382,0.0496 0.1876,0.0625 0.1876,0 0,-0.50414 -0.12507,-1.00051 -0.1876,-1.50076"
       id="path9017" />
    <path
       style="fill:#ff0000;fill-opacity:1;stroke-width:0.56308;stroke-dasharray:none"
       d="m 211.53917,517.9623 c -0.1876,-0.31266 -0.45801,-0.58874 -0.56279,-0.93797 -4.53287,-15.10954 14.76874,-43.76863 15.75797,-45.46093 1.57057,-2.6868 2.26272,5.80244 3.56429,8.62936 2.57694,5.59686 4.76271,11.43094 8.06659,16.63189 2.80745,4.41949 12.51756,12.3568 16.69594,15.00758 13.94112,8.84437 3.45658,0.69653 12.56884,5.25265"
       id="path9019" />
    <path
       style="fill:#ff0000;fill-opacity:1;stroke-width:0.56308;stroke-dasharray:none"
       d="m 283.76317,508.01167 c -0.003,-10.81475 12.82609,-25.37669 17.25872,-28.4543 3.13494,-2.17661 2.04257,7.38052 3.56431,10.8805 0.99638,2.29168 2.68036,4.2197 3.93949,6.37822 5.0323,8.62682 4.32173,9.23107 10.69289,16.13316 2.4126,2.61364 2.36587,2.50562 4.31468,3.31202"
       id="path9021" />
    <path
       style="fill:#008080;fill-opacity:1;stroke-width:0.56308;stroke-dasharray:none"
       d="m 154.22938,436.02414 c 0.87073,15.44793 3.21329,30.8579 4.24479,46.3305 0.14118,2.11769 0,8.48957 0,6.36718 0,-27.88538 16.57273,-37.51175 30.77466,-56.60948 0.548,-0.73692 -1.30101,1.34587 -2.12239,1.75657 -5.85818,2.92909 -2.69343,1.8121 -9.55078,3.18353 -5.27559,1.05508 -11.59502,2.02495 -16.9791,1.06119 -2.19881,-0.39358 -4.13421,-2.03027 -6.36718,-2.08949 -11.70674,-0.31043 -2.91155,3.22928 -13.79557,-0.39872"
       id="path9088" />
    <path
       style="fill:#008080;fill-opacity:1;stroke-width:0.56308;stroke-dasharray:none"
       d="m 195.61602,446.18743 c 1.41493,16.85932 -2.95137,35.26607 4.24479,50.57796 3.29978,7.02121 5.59288,-14.55155 9.55078,-21.22395 6.11434,-10.30784 9.48437,-9.85077 15.9179,-16.2843 2.24971,-2.24971 3.6181,-4.31528 3.18359,-4.6066 -4.78587,-3.20881 -19.71367,-3.7809 -25.46868,-5.306 -2.60071,-0.68919 -4.95226,-2.10474 -7.42838,-3.15711 z"
       id="path9090" />
    <path
       style="fill:#008080;fill-opacity:1;stroke-width:0.56308;stroke-dasharray:none"
       d="m 247.61463,448.25 c 34.10447,42.49536 17.19825,40.462 43.50904,-6.02707 0.38958,-0.68837 2.12239,-0.27023 2.12239,-1.0612 0,-1.76709 -1.56693,0.58117 -6.36719,1.0612 -5.12165,0.51216 -9.76683,-0.42497 -14.85669,-1.0612"
       id="path9092" />
    <path
       style="fill:#000000;fill-opacity:1;stroke-width:0.56308;stroke-dasharray:none"
       d="m 27.181052,515.57189 c -2.629014,-10.71745 1.326899,-19.99803 8.48958,-27.95651 1.991916,-2.21324 6.151713,-5.50013 7.428383,-8.48959 0.42977,-1.00635 -0.32034,-1.52388 0,-2.48491 0.901838,-2.70551 3.064675,-4.83208 4.24479,-7.42832 4.422022,-9.72839 -0.878217,-3.39271 6.367185,-11.67317 4.225573,-4.82923 2.228884,-1.81763 7.428382,-6.36718 3.07681,-2.69221 5.321564,-6.26784 8.489581,-8.8521 3.30845,-2.69882 18.65326,-8.88035 23.346277,-9.55077 8.79969,-1.2571 18.60761,-2.42151 27.59114,-1.42333 10.02807,1.11423 7.76668,1.59105 15.91796,-2.4846 0.31639,-0.15819 0.81106,0.25012 1.06119,0 0.5593,-0.5593 0.53307,-1.53357 1.0612,-2.12239 0.56923,-0.63465 1.68488,-0.6954 2.12239,-1.4271 0.36308,-0.60719 -0.17158,-1.43604 0,-2.12238 2.32255,-9.29018 2.1224,-18.8753 2.1224,-28.65228 0,-21.49635 -2.10654,-42.65175 -4.24479,-64.03423 -3.10259,-31.02586 -1.31959,-63.86194 1.0612,-94.81228 0.80385,-10.45013 -0.41518,-20.8026 1.06119,-31.13728 0.15009,-1.05053 -0.33557,-2.17685 0,-3.18359 1.03874,-3.11619 2.506,-2.98764 4.24473,-5.30599 1.01501,-1.35337 0.99274,-3.35073 2.12239,-4.60998 1.08563,-1.21016 12.80871,-8.88951 14.85678,-9.91355 2.12239,-1.06119 0,2.1224 3.18359,0 0.65812,-0.43875 0.3268,-1.82863 1.0612,-2.12239 2.58796,-1.03519 20.23923,0.44083 23.34633,0.69976 8.58416,0.71535 16.83668,3.5808 25.46869,4.24479 4.18779,0.32214 8.55782,-0.46406 12.73437,0 9.12425,1.01381 25.90231,3.59188 32.89712,9.18773 3.52981,2.82384 6.77334,5.08997 10.61191,7.42834 1.70549,1.03894 2.64434,2.81178 4.24479,3.87875 3.13453,2.08968 8.04625,3.33805 11.67318,4.24479 0.36296,0.0908 1.41493,-0.2437 1.06119,-0.36554 -3.56473,-1.22791 0.31102,9.22934 1.0612,16.97912 0.39744,4.10581 0,8.24999 0,12.37498 0,10.38863 0.98566,21.4864 0,31.8359 -0.74764,7.85024 -3.81864,20.15435 -5.30599,27.5911 -1.80061,9.00302 -2.13282,18.31619 -4.24478,27.22563 -0.594,2.50577 -1.58282,4.91033 -2.1224,7.42838 -3.70573,17.29343 0.6319,-0.81046 -1.0612,12.73437 -0.42991,3.43933 -2.73839,5.98917 -3.18359,9.55078 -0.63974,5.11788 -0.57905,10.41641 -1.06121,15.55526 -0.50646,5.39817 -2.43189,10.65606 -3.18358,15.9179 -0.48524,3.39668 -0.62872,16.26175 -2.1224,18.73948 -1.63989,2.72029 -2.72256,-0.82685 -4.24472,0.69531 -0.51977,0.51977 -0.44861,4.97919 -2.1224,6.36719 -1.31851,1.09338 -0.60994,1.82987 -2.1224,2.8212 -1.63377,1.07086 3.47692,-1.80212 5.306,-2.48802 7.30436,-2.73916 13.42803,-3.54605 21.22388,-3.54605 10.01869,0 17.39886,2.94303 26.52994,6.36718 5.55623,2.08359 2.68764,0.024 7.42838,2.1224 9.82108,4.34725 -6.82748,-1.6105 9.55072,4.9408 9.91367,3.96548 20.09931,6.86606 29.71352,11.67317 12.79627,6.39813 9.28751,14.60889 13.79557,27.23142 0.90608,2.53699 2.33171,4.87264 3.1836,7.42832 2.67093,8.01277 3.54595,17.08277 4.24479,25.46874 0.20956,2.51477 0.88639,14.8363 -4.24479,13.06774"
       id="path488" />
    <path
       style="fill:#000000;fill-opacity:1;stroke-width:0.56308;stroke-dasharray:none"
       d="m 254.27712,201.29217 c 13.97252,-50.8676 -2.67541,-41.53674 23.34629,-49.54342 5.66742,-1.74382 11.25058,-3.77499 16.97916,-5.30599 0.47502,-0.12696 7.30001,-1.15929 8.48958,-0.36624 6.08205,4.0547 1.30432,10.47055 2.1224,15.91796 0.35256,2.34763 2.32652,6.6581 1.06119,9.18877 -0.15819,0.31639 -0.74481,-0.1582 -1.06119,0 -3.63549,1.81774 -7.42839,0.3329 -7.42839,0.70205 0,1.45848 2.89063,-0.51953 4.24479,-1.06119 5.64004,-2.256 29.35989,-14.98306 35.01945,-13.09654 1.20996,0.40333 2.21524,1.29238 3.1836,2.1224 9.40186,8.0587 8.43517,14.6971 9.55078,25.46871 0.1381,1.33342 1.23483,2.54986 1.06119,3.87912 -0.45079,3.45107 -5.57248,9.15343 -8.48957,10.61197 -2.66328,1.33164 -7.29747,4.30543 -10.61198,3.18359 -0.70584,-0.23889 1.42468,0.44039 2.12239,0.70203 2.09476,0.78553 4.26033,1.36992 6.36719,2.12236 2.84621,1.01651 5.82285,1.76134 8.48957,3.1836 4.73321,2.52438 22.65606,14.03391 19.10157,21.91967 -2.07207,4.59693 -18.68552,11.77719 -23.34635,10.61198 -1.84804,-0.46202 -3.56526,-1.34874 -5.30599,-2.12239 -1.49825,-0.66589 -5.74148,-1.81562 -4.24478,-2.48498 19.59748,-8.76446 31.7605,12.20768 24.40754,29.34726 -4.93895,11.51255 -23.18544,12.43703 -32.89713,6.36718 -2.04817,-1.28011 -3.57507,-5.49308 -3.18353,-5.66815 0.96876,-0.43313 2.12235,0 3.18353,0 7.07913,0 11.71656,0.79547 18.04036,4.2448 1.81075,0.98766 3.93568,1.64195 5.30599,3.18355 9.52356,10.71398 2.66948,32.20295 -8.48959,38.89836 -7.81441,4.68863 -15.69195,1.14794 -21.22388,-5.30599 -0.83002,-0.96835 -1.97058,-1.91725 -2.12239,-3.18359 -1.53007,-12.76293 21.21375,-13.63233 28.65226,-9.91307 7.42636,3.71317 9.8162,12.60279 10.61198,20.16272 0.72192,6.85831 0.88177,16.83774 -6.36719,20.86493 -11.55547,6.41971 -41.97746,-13.59532 -32.89705,-20.52886 1.7781,-1.35771 4.21606,-1.50778 6.36718,-2.1224 4.47835,-1.27953 11.01676,-3.34768 15.9179,-2.12239 7.67698,1.91925 14.18274,13.69519 11.67317,21.22391 -6.21838,18.65515 -44.57024,27.6814 -44.57024,2.81784 0,-7.02685 5.0223,-7.7907 10.61199,-7.7907 4.03809,0 10.16374,-0.78302 13.7955,2.12238 12.34638,9.87711 2.91625,28.24632 -6.36719,35.71846 -10.34749,8.3286 -18.70315,10.72829 -30.77466,3.18359 -1.44571,-0.90356 -4.12927,-7.32143 -5.30599,-6.73307 -3.34976,1.67489 -8.90519,4.80407 -12.73437,5.30599 -1.05911,0.13883 -2.12173,-0.48168 -3.18359,-0.3657 -5.62166,0.61406 -11.36437,2.48176 -16.9791,3.18359 -4.2436,0.53046 -8.53184,-0.36258 -12.73437,-0.36258"
       id="path490" />
    <path
       style="fill:#000000;fill-opacity:1;stroke-width:0.56308;stroke-dasharray:none"
       d="m 150.27983,259.97817 c -15.91794,12.25986 -32.64082,23.54018 -47.75383,36.77961 -37.174698,32.56612 -14.727786,16.80798 6.36719,18.37054 33.55458,2.48549 -0.17505,2.59861 36.08065,2.12236 8.72016,-0.11454 6.5343,1.59288 9.55079,-1.42361"
       id="path492" />
    <path
       style="fill:#000000;fill-opacity:1;stroke-width:0.56308;stroke-dasharray:none"
       d="m 146.48723,389.54712 c -0.61376,-0.66536 -1.68454,-0.0294 -2.3877,-0.2653 -0.20192,-0.0677 -0.32867,-0.28826 -0.53059,-0.356 -0.69833,-0.23428 -1.72869,-0.30165 -2.38768,-0.7959 -2.0408,-1.53062 -4.66831,-3.1517 -5.83659,-5.48825 -0.36659,-0.73317 -0.2653,-1.65313 -0.2653,-2.47736 0,-0.98635 -0.11484,-2.11836 0.2653,-3.00989 0.23698,-0.55576 0.59701,-0.39812 0.7959,-0.79589 0.0811,-0.16206 -0.1089,-0.47552 0,-0.62199 0.0528,-0.0709 0.17686,0 0.2653,0 0.0884,-0.0884 0.19592,-0.16123 0.2653,-0.2653 0.33382,-0.50072 0.53785,-1.14762 1.0612,-1.32648 0.11227,-0.0384 -0.0839,-0.27207 0,-0.35597 0.0625,-0.0625 0.20276,0.0625 0.2653,0 0.0606,-0.0606 0.76558,-0.97028 0.7959,-1.0612 0.31321,-0.93964 0.5181,-2.79334 0.26529,-3.80458 -0.0303,-0.12133 -0.22575,-0.14666 -0.26529,-0.2653 -0.056,-0.16779 0.056,-0.3628 0,-0.5306 -0.43392,-1.30173 -5.70891,-1.80024 -5.0407,-3.80489 0.36506,-1.09515 3.50963,-2.91513 4.5101,-3.54042 1.8319,-1.14493 3.38848,-2.58068 5.30597,-3.53943 0.11183,-0.056 0.17686,-0.17686 0.2653,-0.2653 0.26529,-0.17686 0.49985,-0.41217 0.79589,-0.53059 0.26401,-0.10563 1.08825,-0.27464 1.3265,-0.35682"
       id="path494" />
    <path
       style="fill:#000000;fill-opacity:1;stroke-width:0.56308;stroke-dasharray:none"
       d="m 141.97903,417.23778 c -0.68785,-0.91835 -1.50802,-1.75111 -2.06355,-2.75506 -0.001,-0.002 -0.47686,-4.3472 -0.37519,-4.75385 0.077,-0.30813 0.6453,-1.06268 0.75037,-1.37791 0.0593,-0.17796 -0.0697,-0.3886 0,-0.56278 0.16236,-0.40588 1.0804,-1.18273 1.31318,-1.68834 0.11656,-0.25322 0.063,-0.56564 0.18759,-0.81497 0.1125,-0.22512 0.45023,-0.33768 0.56279,-0.56279 0.0884,-0.17686 0.0858,-0.39322 0.18758,-0.56279 0.091,-0.15166 0.26908,-0.2337 0.3752,-0.37519 0.33541,-0.44721 0.33763,-0.96444 0.75037,-1.37718 0.30348,-0.30347 0.75038,-0.3502 0.75038,-0.56279"
       id="path496" />
    <path
       style="fill:#000000;fill-opacity:1;stroke-width:0.56308;stroke-dasharray:none"
       d="m 141.71149,236.17058 c -0.50367,-3.26703 -8.99549,-1.9e-4 -9.75494,-1.5191 -0.53353,-1.06704 -0.75034,-4.72386 -0.75034,-6.00303 0,-1.11605 -0.49929,-2.63544 0.75034,-3.26027 4.43207,-2.2161 8.16091,2.05244 11.25569,0.98605"
       id="path498" />
    <path
       style="fill:#ff0000;fill-opacity:1;stroke-width:0.56308;stroke-dasharray:none"
       d="m 221.25167,345.64244 57.02888,-71.29968"
       id="path500" />
    <path
       style="fill:#ff0000;fill-opacity:1;stroke-width:0.56308;stroke-dasharray:none"
       d="m 124.49518,512.86585 c 0.52624,-2.85099 2.13261,-5.31428 3.00152,-8.06658 1.21654,-3.85342 1.85691,-7.8807 3.18911,-11.69567 1.0416,-2.98274 3.71105,-8.20107 5.62785,-10.6929 1.89023,-2.4573 4.05001,-4.69845 6.19063,-6.94101 1.80155,-1.88734 3.67359,-3.7115 5.62783,-5.44025 1.30218,-1.15192 2.76147,-2.11317 4.1271,-3.18911 0.69809,-0.55002 1.40592,-1.09052 2.06353,-1.68834 0.0619,-0.0563 0.0698,-0.29724 0,-0.25106 -0.36052,0.23858 -0.59185,0.67839 -0.93797,0.93798 -0.15819,0.11864 -0.42295,0.0478 -0.56277,0.1876 -0.25025,0.25023 0.0458,0.71075 0,1.06166 -0.0256,0.19608 -0.13965,0.37095 -0.1876,0.56278 -0.182,0.72798 0,1.50076 0,2.25115 0,1.31316 0.0215,2.62649 0,3.93948 -0.0862,5.25319 -0.22027,12.88345 -1.12557,17.82151 -0.75761,4.13239 -2.17016,8.11783 -3.18912,12.19366 -0.81291,3.43924 -1.62582,6.87848 -2.43873,10.31772 -0.31265,1.60447 -0.56732,3.22135 -0.93798,4.81342 -0.12641,0.54301 -1.64561,5.19806 -1.68835,5.44026 -0.20494,1.16132 -0.18759,2.95042 -0.18759,4.31467"
       id="path502" />
    <path
       style="fill:#ff0000;fill-opacity:1;stroke-width:0.56308;stroke-dasharray:none"
       d="m 165.39086,528.29374 c 3.87695,-21.49104 7.49568,-43.03026 11.63087,-64.4731 0.20164,-1.04561 0.10271,2.12762 0.18759,3.18909 0.0402,0.50255 0.14195,0.99869 0.18759,1.50077 0.12231,1.34539 -0.0376,2.27245 0.3752,3.68788 0.24387,0.83612 0.62531,1.62582 0.93796,2.43873 0.31266,1.12556 0.63698,2.24796 0.93798,3.3767 0.44941,1.68529 0.91683,3.36652 1.31316,5.06507 0.47934,2.05427 0.70702,4.17013 1.31317,6.19062 3.29746,10.99151 8.30417,20.9361 14.25721,30.70086 1.24587,2.04358 2.61186,4.01159 3.93948,6.00304 0.54844,0.82266 1.08553,1.65505 1.68836,2.43873 0.0382,0.0496 0.1876,0.0625 0.1876,0 0,-0.50414 -0.12507,-1.00051 -0.1876,-1.50076"
       id="path504" />
    <path
       style="fill:#ff0000;fill-opacity:1;stroke-width:0.56308;stroke-dasharray:none"
       d="m 211.53917,517.9623 c -0.1876,-0.31266 -0.45801,-0.58874 -0.56279,-0.93797 -4.53287,-15.10954 14.76874,-43.76863 15.75797,-45.46093 1.57057,-2.6868 2.26272,5.80244 3.56429,8.62936 2.57694,5.59686 4.76271,11.43094 8.06659,16.63189 2.80745,4.41949 12.51756,12.3568 16.69594,15.00758 13.94112,8.84437 3.45658,0.69653 12.56884,5.25265"
       id="path506" />
    <path
       style="fill:#ff0000;fill-opacity:1;stroke-width:0.56308;stroke-dasharray:none"
       d="m 283.76317,508.01167 c -0.003,-10.81475 12.82609,-25.37669 17.25872,-28.4543 3.13494,-2.17661 2.04257,7.38052 3.56431,10.8805 0.99638,2.29168 2.68036,4.2197 3.93949,6.37822 5.0323,8.62682 4.32173,9.23107 10.69289,16.13316 2.4126,2.61364 2.36587,2.50562 4.31468,3.31202"
       id="path508" />
    <path
       style="fill:#008080;fill-opacity:1;stroke-width:0.56308;stroke-dasharray:none"
       d="m 154.22938,436.02414 c 0.87073,15.44793 3.21329,30.8579 4.24479,46.3305 0.14118,2.11769 0,8.48957 0,6.36718 0,-27.88538 16.57273,-37.51175 30.77466,-56.60948 0.548,-0.73692 -1.30101,1.34587 -2.12239,1.75657 -5.85818,2.92909 -2.69343,1.8121 -9.55078,3.18353 -5.27559,1.05508 -11.59502,2.02495 -16.9791,1.06119 -2.19881,-0.39358 -4.13421,-2.03027 -6.36718,-2.08949 -11.70674,-0.31043 -2.91155,3.22928 -13.79557,-0.39872"
       id="path510" />
    <path
       style="fill:#008080;fill-opacity:1;stroke-width:0.56308;stroke-dasharray:none"
       d="m 195.61602,446.18743 c 1.41493,16.85932 -2.95137,35.26607 4.24479,50.57796 3.29978,7.02121 5.59288,-14.55155 9.55078,-21.22395 6.11434,-10.30784 9.48437,-9.85077 15.9179,-16.2843 2.24971,-2.24971 3.6181,-4.31528 3.18359,-4.6066 -4.78587,-3.20881 -19.71367,-3.7809 -25.46868,-5.306 -2.60071,-0.68919 -4.95226,-2.10474 -7.42838,-3.15711 z"
       id="path512" />
    <path
       style="fill:#008080;fill-opacity:1;stroke-width:0.56308;stroke-dasharray:none"
       d="m 247.61463,448.25 c 34.10447,42.49536 17.19825,40.462 43.50904,-6.02707 0.38958,-0.68837 2.12239,-0.27023 2.12239,-1.0612 0,-1.76709 -1.56693,0.58117 -6.36719,1.0612 -5.12165,0.51216 -9.76683,-0.42497 -14.85669,-1.0612"
       id="path514" />
    <path
       style="fill:#000000;fill-opacity:1;stroke-width:0.56308;stroke-dasharray:none"
       d="m 27.181052,515.57189 c -2.629014,-10.71745 1.326899,-19.99803 8.48958,-27.95651 1.991916,-2.21324 6.151713,-5.50013 7.428383,-8.48959 0.42977,-1.00635 -0.32034,-1.52388 0,-2.48491 0.901838,-2.70551 3.064675,-4.83208 4.24479,-7.42832 4.422022,-9.72839 -0.878217,-3.39271 6.367185,-11.67317 4.225573,-4.82923 2.228884,-1.81763 7.428382,-6.36718 3.07681,-2.69221 5.321564,-6.26784 8.489581,-8.8521 3.30845,-2.69882 18.65326,-8.88035 23.346277,-9.55077 8.79969,-1.2571 18.60761,-2.42151 27.59114,-1.42333 10.02807,1.11423 7.76668,1.59105 15.91796,-2.4846 0.31639,-0.15819 0.81106,0.25012 1.06119,0 0.5593,-0.5593 0.53307,-1.53357 1.0612,-2.12239 0.56923,-0.63465 1.68488,-0.6954 2.12239,-1.4271 0.36308,-0.60719 -0.17158,-1.43604 0,-2.12238 2.32255,-9.29018 2.1224,-18.8753 2.1224,-28.65228 0,-21.49635 -2.10654,-42.65175 -4.24479,-64.03423 -3.10259,-31.02586 -1.31959,-63.86194 1.0612,-94.81228 0.80385,-10.45013 -0.41518,-20.8026 1.06119,-31.13728 0.15009,-1.05053 -0.33557,-2.17685 0,-3.18359 1.03874,-3.11619 2.506,-2.98764 4.24473,-5.30599 1.01501,-1.35337 0.99274,-3.35073 2.12239,-4.60998 1.08563,-1.21016 12.80871,-8.88951 14.85678,-9.91355 2.12239,-1.06119 0,2.1224 3.18359,0 0.65812,-0.43875 0.3268,-1.82863 1.0612,-2.12239 2.58796,-1.03519 20.23923,0.44083 23.34633,0.69976 8.58416,0.71535 16.83668,3.5808 25.46869,4.24479 4.18779,0.32214 8.55782,-0.46406 12.73437,0 9.12425,1.01381 25.90231,3.59188 32.89712,9.18773 3.52981,2.82384 6.77334,5.08997 10.61191,7.42834 1.70549,1.03894 2.64434,2.81178 4.24479,3.87875 3.13453,2.08968 8.04625,3.33805 11.67318,4.24479 0.36296,0.0908 1.41493,-0.2437 1.06119,-0.36554 -3.56473,-1.22791 0.31102,9.22934 1.0612,16.97912 0.39744,4.10581 0,8.24999 0,12.37498 0,10.38863 0.98566,21.4864 0,31.8359 -0.74764,7.85024 -3.81864,20.15435 -5.30599,27.5911 -1.80061,9.00302 -2.13282,18.31619 -4.24478,27.22563 -0.594,2.50577 -1.58282,4.91033 -2.1224,7.42838 -3.70573,17.29343 0.6319,-0.81046 -1.0612,12.73437 -0.42991,3.43933 -2.73839,5.98917 -3.18359,9.55078 -0.63974,5.11788 -0.57905,10.41641 -1.06121,15.55526 -0.50646,5.39817 -2.43189,10.65606 -3.18358,15.9179 -0.48524,3.39668 -0.62872,16.26175 -2.1224,18.73948 -1.63989,2.72029 -2.72256,-0.82685 -4.24472,0.69531 -0.51977,0.51977 -0.44861,4.97919 -2.1224,6.36719 -1.31851,1.09338 -0.60994,1.82987 -2.1224,2.8212 -1.63377,1.07086 3.47692,-1.80212 5.306,-2.48802 7.30436,-2.73916 13.42803,-3.54605 21.22388,-3.54605 10.01869,0 17.39886,2.94303 26.52994,6.36718 5.55623,2.08359 2.68764,0.024 7.42838,2.1224 9.82108,4.34725 -6.82748,-1.6105 9.55072,4.9408 9.91367,3.96548 20.09931,6.86606 29.71352,11.67317 12.79627,6.39813 9.28751,14.60889 13.79557,27.23142 0.90608,2.53699 2.33171,4.87264 3.1836,7.42832 2.67093,8.01277 3.54595,17.08277 4.24479,25.46874 0.20956,2.51477 0.88639,14.8363 -4.24479,13.06774"
       id="path516" />
    <path
       style="fill:#000000;fill-opacity:1;stroke-width:0.56308;stroke-dasharray:none"
       d="m 254.27712,201.29217 c 13.97252,-50.8676 -2.67541,-41.53674 23.34629,-49.54342 5.66742,-1.74382 11.25058,-3.77499 16.97916,-5.30599 0.47502,-0.12696 7.30001,-1.15929 8.48958,-0.36624 6.08205,4.0547 1.30432,10.47055 2.1224,15.91796 0.35256,2.34763 2.32652,6.6581 1.06119,9.18877 -0.15819,0.31639 -0.74481,-0.1582 -1.06119,0 -3.63549,1.81774 -7.42839,0.3329 -7.42839,0.70205 0,1.45848 2.89063,-0.51953 4.24479,-1.06119 5.64004,-2.256 29.35989,-14.98306 35.01945,-13.09654 1.20996,0.40333 2.21524,1.29238 3.1836,2.1224 9.40186,8.0587 8.43517,14.6971 9.55078,25.46871 0.1381,1.33342 1.23483,2.54986 1.06119,3.87912 -0.45079,3.45107 -5.57248,9.15343 -8.48957,10.61197 -2.66328,1.33164 -7.29747,4.30543 -10.61198,3.18359 -0.70584,-0.23889 1.42468,0.44039 2.12239,0.70203 2.09476,0.78553 4.26033,1.36992 6.36719,2.12236 2.84621,1.01651 5.82285,1.76134 8.48957,3.1836 4.73321,2.52438 22.65606,14.03391 19.10157,21.91967 -2.07207,4.59693 -18.68552,11.77719 -23.34635,10.61198 -1.84804,-0.46202 -3.56526,-1.34874 -5.30599,-2.12239 -1.49825,-0.66589 -5.74148,-1.81562 -4.24478,-2.48498 19.59748,-8.76446 31.7605,12.20768 24.40754,29.34726 -4.93895,11.51255 -23.18544,12.43703 -32.89713,6.36718 -2.04817,-1.28011 -3.57507,-5.49308 -3.18353,-5.66815 0.96876,-0.43313 2.12235,0 3.18353,0 7.07913,0 11.71656,0.79547 18.04036,4.2448 1.81075,0.98766 3.93568,1.64195 5.30599,3.18355 9.52356,10.71398 2.66948,32.20295 -8.48959,38.89836 -7.81441,4.68863 -15.69195,1.14794 -21.22388,-5.30599 -0.83002,-0.96835 -1.97058,-1.91725 -2.12239,-3.18359 -1.53007,-12.76293 21.21375,-13.63233 28.65226,-9.91307 7.42636,3.71317 9.8162,12.60279 10.61198,20.16272 0.72192,6.85831 0.88177,16.83774 -6.36719,20.86493 -11.55547,6.41971 -41.97746,-13.59532 -32.89705,-20.52886 1.7781,-1.35771 4.21606,-1.50778 6.36718,-2.1224 4.47835,-1.27953 11.01676,-3.34768 15.9179,-2.12239 7.67698,1.91925 14.18274,13.69519 11.67317,21.22391 -6.21838,18.65515 -44.57024,27.6814 -44.57024,2.81784 0,-7.02685 5.0223,-7.7907 10.61199,-7.7907 4.03809,0 10.16374,-0.78302 13.7955,2.12238 12.34638,9.87711 2.91625,28.24632 -6.36719,35.71846 -10.34749,8.3286 -18.70315,10.72829 -30.77466,3.18359 -1.44571,-0.90356 -4.12927,-7.32143 -5.30599,-6.73307 -3.34976,1.67489 -8.90519,4.80407 -12.73437,5.30599 -1.05911,0.13883 -2.12173,-0.48168 -3.18359,-0.3657 -5.62166,0.61406 -11.36437,2.48176 -16.9791,3.18359 -4.2436,0.53046 -8.53184,-0.36258 -12.73437,-0.36258"
       id="path518" />
    <path
       style="fill:#000000;fill-opacity:1;stroke-width:0.56308;stroke-dasharray:none"
       d="m 150.27983,259.97817 c -15.91794,12.25986 -32.64082,23.54018 -47.75383,36.77961 -37.174698,32.56612 -14.727786,16.80798 6.36719,18.37054 33.55458,2.48549 -0.17505,2.59861 36.08065,2.12236 8.72016,-0.11454 6.5343,1.59288 9.55079,-1.42361"
       id="path520" />
    <path
       style="fill:#000000;fill-opacity:1;stroke-width:0.56308;stroke-dasharray:none"
       d="m 146.48723,389.54712 c -0.61376,-0.66536 -1.68454,-0.0294 -2.3877,-0.2653 -0.20192,-0.0677 -0.32867,-0.28826 -0.53059,-0.356 -0.69833,-0.23428 -1.72869,-0.30165 -2.38768,-0.7959 -2.0408,-1.53062 -4.66831,-3.1517 -5.83659,-5.48825 -0.36659,-0.73317 -0.2653,-1.65313 -0.2653,-2.47736 0,-0.98635 -0.11484,-2.11836 0.2653,-3.00989 0.23698,-0.55576 0.59701,-0.39812 0.7959,-0.79589 0.0811,-0.16206 -0.1089,-0.47552 0,-0.62199 0.0528,-0.0709 0.17686,0 0.2653,0 0.0884,-0.0884 0.19592,-0.16123 0.2653,-0.2653 0.33382,-0.50072 0.53785,-1.14762 1.0612,-1.32648 0.11227,-0.0384 -0.0839,-0.27207 0,-0.35597 0.0625,-0.0625 0.20276,0.0625 0.2653,0 0.0606,-0.0606 0.76558,-0.97028 0.7959,-1.0612 0.31321,-0.93964 0.5181,-2.79334 0.26529,-3.80458 -0.0303,-0.12133 -0.22575,-0.14666 -0.26529,-0.2653 -0.056,-0.16779 0.056,-0.3628 0,-0.5306 -0.43392,-1.30173 -5.70891,-1.80024 -5.0407,-3.80489 0.36506,-1.09515 3.50963,-2.91513 4.5101,-3.54042 1.8319,-1.14493 3.38848,-2.58068 5.30597,-3.53943 0.11183,-0.056 0.17686,-0.17686 0.2653,-0.2653 0.26529,-0.17686 0.49985,-0.41217 0.79589,-0.53059 0.26401,-0.10563 1.08825,-0.27464 1.3265,-0.35682"
       id="path522" />
    <path
       style="fill:#000000;fill-opacity:1;stroke-width:0.56308;stroke-dasharray:none"
       d="m 141.97903,417.23778 c -0.68785,-0.91835 -1.50802,-1.75111 -2.06355,-2.75506 -0.001,-0.002 -0.47686,-4.3472 -0.37519,-4.75385 0.077,-0.30813 0.6453,-1.06268 0.75037,-1.37791 0.0593,-0.17796 -0.0697,-0.3886 0,-0.56278 0.16236,-0.40588 1.0804,-1.18273 1.31318,-1.68834 0.11656,-0.25322 0.063,-0.56564 0.18759,-0.81497 0.1125,-0.22512 0.45023,-0.33768 0.56279,-0.56279 0.0884,-0.17686 0.0858,-0.39322 0.18758,-0.56279 0.091,-0.15166 0.26908,-0.2337 0.3752,-0.37519 0.33541,-0.44721 0.33763,-0.96444 0.75037,-1.37718 0.30348,-0.30347 0.75038,-0.3502 0.75038,-0.56279"
       id="path524" />
    <path
       style="fill:#000000;fill-opacity:1;stroke-width:0.56308;stroke-dasharray:none"
       d="m 141.71149,236.17058 c -0.50367,-3.26703 -8.99549,-1.9e-4 -9.75494,-1.5191 -0.53353,-1.06704 -0.75034,-4.72386 -0.75034,-6.00303 0,-1.11605 -0.49929,-2.63544 0.75034,-3.26027 4.43207,-2.2161 8.16091,2.05244 11.25569,0.98605"
       id="path526" />
    <path
       style="fill:#ff0000;fill-opacity:1;stroke-width:0.56308;stroke-dasharray:none"
       d="m 221.25167,345.64244 57.02888,-71.29968"
       id="path528" />
    <path
       style="fill:#ff0000;fill-opacity:1;stroke-width:0.56308;stroke-dasharray:none"
       d="m 124.49518,512.86585 c 0.52624,-2.85099 2.13261,-5.31428 3.00152,-8.06658 1.21654,-3.85342 1.85691,-7.8807 3.18911,-11.69567 1.0416,-2.98274 3.71105,-8.20107 5.62785,-10.6929 1.89023,-2.4573 4.05001,-4.69845 6.19063,-6.94101 1.80155,-1.88734 3.67359,-3.7115 5.62783,-5.44025 1.30218,-1.15192 2.76147,-2.11317 4.1271,-3.18911 0.69809,-0.55002 1.40592,-1.09052 2.06353,-1.68834 0.0619,-0.0563 0.0698,-0.29724 0,-0.25106 -0.36052,0.23858 -0.59185,0.67839 -0.93797,0.93798 -0.15819,0.11864 -0.42295,0.0478 -0.56277,0.1876 -0.25025,0.25023 0.0458,0.71075 0,1.06166 -0.0256,0.19608 -0.13965,0.37095 -0.1876,0.56278 -0.182,0.72798 0,1.50076 0,2.25115 0,1.31316 0.0215,2.62649 0,3.93948 -0.0862,5.25319 -0.22027,12.88345 -1.12557,17.82151 -0.75761,4.13239 -2.17016,8.11783 -3.18912,12.19366 -0.81291,3.43924 -1.62582,6.87848 -2.43873,10.31772 -0.31265,1.60447 -0.56732,3.22135 -0.93798,4.81342 -0.12641,0.54301 -1.64561,5.19806 -1.68835,5.44026 -0.20494,1.16132 -0.18759,2.95042 -0.18759,4.31467"
       id="path530" />
    <path
       style="fill:#ff0000;fill-opacity:1;stroke-width:0.56308;stroke-dasharray:none"
       d="m 165.39086,528.29374 c 3.87695,-21.49104 7.49568,-43.03026 11.63087,-64.4731 0.20164,-1.04561 0.10271,2.12762 0.18759,3.18909 0.0402,0.50255 0.14195,0.99869 0.18759,1.50077 0.12231,1.34539 -0.0376,2.27245 0.3752,3.68788 0.24387,0.83612 0.62531,1.62582 0.93796,2.43873 0.31266,1.12556 0.63698,2.24796 0.93798,3.3767 0.44941,1.68529 0.91683,3.36652 1.31316,5.06507 0.47934,2.05427 0.70702,4.17013 1.31317,6.19062 3.29746,10.99151 8.30417,20.9361 14.25721,30.70086 1.24587,2.04358 2.61186,4.01159 3.93948,6.00304 0.54844,0.82266 1.08553,1.65505 1.68836,2.43873 0.0382,0.0496 0.1876,0.0625 0.1876,0 0,-0.50414 -0.12507,-1.00051 -0.1876,-1.50076"
       id="path532" />
    <path
       style="fill:#ff0000;fill-opacity:1;stroke-width:0.56308;stroke-dasharray:none"
       d="m 211.53917,517.9623 c -0.1876,-0.31266 -0.45801,-0.58874 -0.56279,-0.93797 -4.53287,-15.10954 14.76874,-43.76863 15.75797,-45.46093 1.57057,-2.6868 2.26272,5.80244 3.56429,8.62936 2.57694,5.59686 4.76271,11.43094 8.06659,16.63189 2.80745,4.41949 12.51756,12.3568 16.69594,15.00758 13.94112,8.84437 3.45658,0.69653 12.56884,5.25265"
       id="path534" />
    <path
       style="fill:#ff0000;fill-opacity:1;stroke-width:0.56308;stroke-dasharray:none"
       d="m 283.76317,508.01167 c -0.003,-10.81475 12.82609,-25.37669 17.25872,-28.4543 3.13494,-2.17661 2.04257,7.38052 3.56431,10.8805 0.99638,2.29168 2.68036,4.2197 3.93949,6.37822 5.0323,8.62682 4.32173,9.23107 10.69289,16.13316 2.4126,2.61364 2.36587,2.50562 4.31468,3.31202"
       id="path536" />
    <path
       style="fill:#008080;fill-opacity:1;stroke-width:0.56308;stroke-dasharray:none"
       d="m 154.22938,436.02414 c 0.87073,15.44793 3.21329,30.8579 4.24479,46.3305 0.14118,2.11769 0,8.48957 0,6.36718 0,-27.88538 16.57273,-37.51175 30.77466,-56.60948 0.548,-0.73692 -1.30101,1.34587 -2.12239,1.75657 -5.85818,2.92909 -2.69343,1.8121 -9.55078,3.18353 -5.27559,1.05508 -11.59502,2.02495 -16.9791,1.06119 -2.19881,-0.39358 -4.13421,-2.03027 -6.36718,-2.08949 -11.70674,-0.31043 -2.91155,3.22928 -13.79557,-0.39872"
       id="path538" />
    <path
       style="fill:#008080;fill-opacity:1;stroke-width:0.56308;stroke-dasharray:none"
       d="m 195.61602,446.18743 c 1.41493,16.85932 -2.95137,35.26607 4.24479,50.57796 3.29978,7.02121 5.59288,-14.55155 9.55078,-21.22395 6.11434,-10.30784 9.48437,-9.85077 15.9179,-16.2843 2.24971,-2.24971 3.6181,-4.31528 3.18359,-4.6066 -4.78587,-3.20881 -19.71367,-3.7809 -25.46868,-5.306 -2.60071,-0.68919 -4.95226,-2.10474 -7.42838,-3.15711 z"
       id="path540" />
    <path
       style="fill:#008080;fill-opacity:1;stroke-width:0.56308;stroke-dasharray:none"
       d="m 247.61463,448.25 c 34.10447,42.49536 17.19825,40.462 43.50904,-6.02707 0.38958,-0.68837 2.12239,-0.27023 2.12239,-1.0612 0,-1.76709 -1.56693,0.58117 -6.36719,1.0612 -5.12165,0.51216 -9.76683,-0.42497 -14.85669,-1.0612"
       id="path542" />
    <path
       style="fill:#ffe723;fill-opacity:1;stroke-width:0.5"
       d="m 269.86642,335.16854 c -0.96624,1.04689 -1.82001,2.29116 -2.82694,3.2981 -0.43368,0.43367 -1.03329,0.69663 -1.41347,1.17789 -0.42059,0.5324 -0.59941,1.21875 -0.94232,1.8042 -0.28619,0.48862 -0.70799,0.89796 -0.94231,1.41347 -0.16569,0.36451 -0.10896,0.79803 -0.23558,1.17789 -0.18912,0.56735 -0.51762,1.0817 -0.70674,1.64905 -0.30253,0.90758 -0.79291,3.41875 -0.9423,4.24041 -0.42754,2.35154 -1.02168,4.71665 -1.41347,7.06736 -0.19393,1.16357 0.3639,2.38945 0.47116,3.53366 0.1049,1.11912 -0.65751,5.15378 0,5.81128 0.27763,0.27763 0.66468,0.42911 0.94231,0.70674 0.27763,0.27763 0.42909,0.66468 0.70672,0.94231 2.15473,2.15474 5.524,2.59831 8.32491,3.39857 1.3178,0.37651 2.83474,0.79555 4.24042,0.47116 0.58272,-0.13448 1.09701,-0.47672 1.64905,-0.70674 5.83614,-2.43172 7.83835,-4.91911 10.60104,-10.44449 1.3375,-2.67501 2.57056,-4.22641 2.82694,-7.30293 0.1319,-1.58278 -0.0784,-1.67442 -0.47116,-3.37627 -0.90719,-3.93083 -1.47166,-7.4414 -4.1592,-10.60103 -0.39479,-0.46414 -2.29492,-2.84352 -2.82694,-3.16274 -1.58081,-0.94848 0.12135,0.68179 -1.1779,-0.9423 -0.61351,-0.76692 -0.29754,-0.26658 -1.17786,-0.70674 -0.7562,-0.3781 -1.46432,-1.12963 -2.35579,-1.25699 -0.90014,-0.12859 -1.91383,0 -2.82694,0 -1.26069,0 0.53356,0.0497 -1.1779,-0.23557 -0.79088,-0.13182 -1.83231,0.15744 -2.59136,0.15744 -0.27514,0 -1.98355,0.25724 -2.03493,0.47116 -0.11585,0.48234 0.81133,1.06434 0.46056,1.41511 -2.48211,-0.44016 -1.19404,-0.51435 -1.87402,0.61766 -0.0785,0.13073 0.0992,0.32398 0.23558,0.39218 0.1424,0.0712 0.47116,-0.23739 0.47116,-0.0782 0,0.56816 0.90741,-0.0311 1.27822,0.15433 0.27442,0.13721 0.43232,0.33395 0.70673,0.47116 0.14048,0.0702 0.33069,-0.0702 0.47116,0 0.0993,0.0497 0.13019,0.20057 0.23558,0.23557 0.0786,0.0261 0.15697,-0.10521 0.23558,-0.0791 0.38145,0.12669 0.79916,0.75295 1.17789,0.94232 2.27519,1.13759 -0.43933,-0.3035 1.1779,0.23558 1.34659,0.44886 -1.4241,0.045 0.70673,0.47115 1.36858,0.2737 5.65061,0.73428 6.50335,1.4908 0.13135,0.11653 0.11142,0.347 0.23558,0.47116 0.28693,0.28693 0.52633,0.11035 0.70674,0.47116 0.23737,0.47474 0.58549,0.70213 0.94231,1.17789 0.21071,0.28094 0.26045,0.66137 0.47116,0.94231 0.48841,0.65122 1.03365,1.17623 1.17789,2.04165 0.18285,1.0971 0.15934,2.1827 0,3.2981 0.24361,0.60789 -0.37376,0.92647 -0.47116,1.41347 -0.0999,0.49947 0.0444,1.1625 -0.15651,1.64905 -0.35581,0.86154 -0.23366,-0.38343 -0.47116,1.04158 -0.0387,0.23238 0.0875,0.48801 0,0.70674 -0.0825,0.20622 -0.37183,0.2725 -0.47116,0.47116 -0.0702,0.14047 0.0381,0.31879 0,0.47115 -0.3845,1.538 -0.1265,-0.89005 -0.47115,1.1779 -0.0387,0.23237 0.0462,0.47573 0,0.70673 -0.11787,0.58934 -1.93922,3.98035 -2.35579,4.39692 -0.12416,0.12416 -0.33069,0.13023 -0.47116,0.23558 -0.60855,0.45641 -0.97364,1.00822 -1.64905,1.41346 -1.71407,1.02842 -4.66778,0.86415 -6.5962,0.86415 -1.08182,0 -3.72387,0.49715 -4.63038,0.13455 -1.46439,-0.58576 -1.73152,-3.39206 -1.64905,-4.71157 0.10185,-1.62955 1.16491,-2.68534 1.88463,-4.00483 0.76155,-1.39618 1.3333,-2.94241 2.12022,-4.3195 0.24947,-0.43657 0.68362,-0.74674 0.94232,-1.1779 0.72258,-1.2043 0.90329,-2.47279 0.47113,-3.76925 -0.0828,-0.24831 0.0752,-0.53452 0,-0.78523 -0.0319,-0.10637 -0.20862,-0.12785 -0.23555,-0.23558 -0.27896,-1.11597 0.30302,-3.03281 0.79184,-3.85482 0.71919,-1.2094 -0.17817,0.41375 0.47116,-0.23558 0.12412,-0.12412 0.51005,-1.17789 0.70674,-1.17789 0.12232,0 -0.70674,0.74599 -0.70674,0.8632"
       id="path615" />
    <path
       style="fill:#ffe723;stroke-width:0.5;fill-opacity:1"
       d="m 265.68569,339.95513 c 0.45187,-1.22634 1.17865,-2.33818 1.69935,-3.5552 0.12123,-0.28335 0.27259,-0.61334 0.33316,-0.91619 0.0109,-0.0545 -0.0248,-0.11692 0,-0.16658 0.10269,-0.20538 0.93764,-0.71697 1.16605,-0.7496 0.61762,-0.0882 0.0513,0.12807 0.66632,-0.11093 0.49064,-0.19068 0.85653,-0.62885 1.33263,-0.83289 0.59162,-0.25356 0.11944,-0.007 0.49974,-0.0833 0.0833,-0.0278 0.16657,-0.0555 0.24986,-0.0833 0.0278,-0.0371 0.0394,-0.0966 0.0833,-0.11125 0.203,-0.0678 1.062,-0.12255 1.29759,-0.0833 0.31048,0.0517 0.42542,0.29599 0.66632,0.41644 0.0248,0.0124 0.0601,-0.0153 0.0833,0 0.0153,0.0101 -0.0174,0.0494 0,0.0551 0.0527,0.0174 0.11271,-0.0135 0.16658,0 0.17637,0.0441 0.32335,0.20578 0.49973,0.24987 0.0539,0.0135 0.12216,-0.0333 0.16658,0 0.23506,0.1763 0.33797,0.60642 0.49974,0.8329 0.0685,0.0958 0.17628,0.15789 0.24987,0.24986 0.0776,0.097 0.0738,0.25067 0.16658,0.33316 0.0437,0.0389 0.12343,0.016 0.16657,0.0555 0.34777,0.3188 0.62141,0.90965 0.8329,1.33263 0.0248,0.0497 -0.0309,0.12044 0,0.16658 0.0258,0.0385 0.0857,0.0447 0.11147,0.0833 0.0451,0.0673 0.0408,0.70091 0,0.78251 -0.0795,0.15901 -0.24496,0.2621 -0.33315,0.41645 -0.22138,0.38741 -0.0896,0.2583 -0.33316,0.58303 -0.0955,0.12733 -0.0983,0.0655 -0.24986,0.16658 -0.22993,0.15328 0.12273,0.0234 -0.24987,0.22208 -0.62322,0.33236 -1.21928,0.12725 -1.83238,0.24987 -0.0861,0.0172 -0.16326,0.0689 -0.24986,0.0833 -0.12284,0.0205 -0.82556,-0.0351 -0.91619,0.0555 -0.0393,0.0393 0.0304,0.12011 0,0.16658 -0.0761,0.11632 -0.3078,0.30445 -0.38763,0.46411 -0.0888,0.17768 0.0888,0.48863 0,0.66631 -0.0678,0.13568 -0.24337,0.1334 -0.24987,0.13881 -0.0303,0.0252 -0.24987,0.38936 -0.24987,0.16658"
       id="path619" />
    <path
       style="fill:#df9900;stroke-width:0.5;fill-opacity:1"
       d="m 279.77966,179.40517 c -3.05456,4.70261 -4.24042,9.78328 -4.24042,15.37335 0,9.07329 -0.2464,-0.33301 0.47116,6.12505 0.44198,3.97779 0,8.24181 0,12.25007 0,0.96019 1.07633,-1.61087 1.41347,-2.50993 0.47116,-1.25642 1.15031,-2.45346 1.41347,-3.76925 0.38519,-1.92594 0.22563,-4.16082 0.47116,-6.12504 0.25271,-2.02169 0.49517,-4.91686 1.41347,-6.75346 0.24237,-0.48474 0.79236,-0.50954 1.11695,-0.94232 3e-5,-5e-5 1.88457,-2.82688 1.88462,-2.82693 0.11106,-0.11105 0.33069,0.0702 0.47116,0 0.98061,-0.4903 2.06987,-1.53342 2.82695,-2.35578 0.90302,-0.98091 1.78695,-1.68633 2.82694,-2.51832 0.44217,-0.35374 0.90699,-0.68908 1.41347,-0.94232 0.14047,-0.0702 0.36011,0.11106 0.47116,0 0.2221,-0.2221 0.18846,-0.69103 0,-0.94231 -2.01934,-2.69246 -5.2194,-3.78732 -8.00968,-5.33747 -0.71992,-0.39996 -2.34114,-2.35578 -3.2981,-2.35578"
       id="path691" />
    <path
       style="fill:#df9900;stroke-width:0.5;fill-opacity:1"
       d="m 283.01927,212.70095 c 0.76167,-6.37259 5.7113,-9.17941 9.42309,-13.81921 0.43875,-0.54846 0.49267,-1.34507 0.94231,-1.88463 0.50271,-0.60326 1.53345,-0.71112 1.88463,-1.41348 0.0993,-0.19865 0.36329,-0.66531 0.47116,-0.47115 2.1013,3.78235 2.59451,7.66733 3.76926,11.77893 0.64197,2.24692 2.01785,4.43864 2.82694,6.44262 0.15046,0.37266 -0.40078,-0.74714 -0.75209,-0.94231 -1.04556,-0.58087 -2.13051,-1.15401 -3.2981,-1.41347 -2.592,-0.576 -10.82597,-0.64884 -12.72125,-0.47116 -17.2381,1.61607 -1.27564,1.41347 -10.83661,1.41347"
       id="path695" />
    <path
       style="fill:#df9900;stroke-width:0.5;fill-opacity:1"
       d="m 312.34659,186.94543 c -0.94627,2.8901 -0.29584,5.97162 -0.47116,8.95197 -0.0743,1.26401 -0.56137,2.50628 -0.47116,3.76926 0.0708,0.99076 0.72685,1.8573 0.94232,2.82693 0.10221,0.45994 -0.12386,0.95889 0,1.41347 0.0497,0.1824 0.47116,0.12664 0.47116,0.31569 0,0.91319 -0.94232,2.3849 -0.94232,3.2981 0,0.15705 0.35051,0.10054 0.47116,0 0.85313,-0.71094 1.66204,-1.48861 2.35579,-2.35579 0.57207,-0.71509 0.80507,-1.67133 1.41347,-2.35578 0.6681,-0.75162 1.6447,-1.17355 2.35578,-1.88463 1.66734,-1.66734 2.93177,-3.4764 3.76926,-5.65388 0.4817,-1.25241 1.05275,-2.47679 1.41347,-3.76926 1.1555,-4.14003 -0.3668,-1.77844 1.41348,-5.33899 0.25324,-0.50648 1.07965,-0.86411 0.94231,-1.41347 -0.11235,-0.44941 -4.71946,-0.94231 -5.65389,-0.94231 -0.47179,0 -5.65388,0.51014 -5.65388,-0.47116"
       id="path697" />
    <path
       style="fill:#df9900;stroke-width:0.5;fill-opacity:1"
       d="m 290.99232,229.87074 c -0.62821,-0.0633 -1.82134,-0.81807 -1.88463,-0.18986 -0.0633,0.62821 1.27803,0.36503 1.88463,0.18986 1.80697,-0.52181 3.38726,-1.67065 5.18273,-2.23075 6.62579,-2.06692 7.49393,-1.44902 12.72125,-1.88463 1.88463,-0.15705 3.78845,-0.16025 5.65388,-0.47116 0.0173,-0.003 1.88463,-0.68752 1.88463,-0.62571 0,0.71646 -8.34234,6.68221 -8.77566,7.06736 -1.05649,0.93905 -10.10796,10.30683 -10.83656,9.72395 -0.69374,-0.555 -1.16169,-1.36825 -1.88463,-1.88463 -0.40414,-0.28867 -0.98227,-0.22476 -1.41347,-0.47116 -1.21196,-0.69255 -7.7974,-4.85135 -8.00968,-6.12505 -0.26796,-1.60777 0.33312,-4.2404 2.35579,-4.2404"
       id="path699" />
    <path
       style="fill:#df9900;stroke-width:0.5;fill-opacity:1"
       d="m 322.26502,231.25293 c -4.70473,2.78024 -7.95256,6.92009 -11.59808,10.8366 -1.21021,1.30017 -7.44588,6.88207 -8.48083,8.95198 -0.0702,0.14047 0.31531,0.0195 0.47115,0 1.10196,-0.13775 2.21402,-0.23025 3.2981,-0.47116 1.74804,-0.38845 3.47022,-0.8902 5.18273,-1.41347 2.05819,-0.6289 4.04416,-1.49259 6.12505,-2.04172 2.77107,-0.73127 5.76196,-0.50719 8.48083,-1.41348 0.63212,-0.2107 0.94232,-0.94231 1.41347,-1.41347 0.62819,-0.62821 1.48727,-1.09001 1.88457,-1.88463 0.6848,-4.10875 -0.0808,-1.64493 1.88463,-5.18273 0.75099,-1.35177 1.73765,-3.10358 1.41348,-3.29808 -2.85455,-1.71273 -6.90391,-1.68821 -10.0751,-2.66984 z"
       id="path701" />
    <path
       style="fill:#df9900;stroke-width:0.5;fill-opacity:1"
       d="m 308.47335,269.41585 c -1.63153,1.08965 -2.22218,1.4345 -3.76926,2.67217 -0.17344,0.13875 -0.65235,0.59961 -0.47116,0.47115 1.43536,-1.01758 2.73748,-2.22849 4.24042,-3.14332 5.3614,-3.26345 12.63362,-5.18003 16.96166,-10.04907 6.63068,-7.45951 -1.1283,0.55782 1.88463,-3.45436 0.0943,-0.12558 0.0497,0.32217 0,0.47116 -0.65189,1.95565 -0.83635,3.25896 -1.41348,5.18273 -1.1297,3.76569 -2.22172,7.54044 -3.2981,11.30776 -0.53437,1.87032 -2.34636,2.64495 -3.1441,4.24042 -0.48956,0.97912 -0.72046,2.99578 -1.88463,3.57787 -0.85445,0.42723 -1.98828,-0.0137 -2.82694,-0.47116 -1.07683,-0.58736 -1.84561,-1.61981 -2.82689,-2.35578 -2.29637,-1.72231 -5.00162,-3.11699 -7.06736,-5.18272 -0.55526,-0.55526 -1.06229,-1.18227 -1.41347,-1.88463 -0.31417,-0.62835 -0.20097,-2.82694 0.47116,-2.82694"
       id="path703" />
    <path
       style="fill:#df9900;stroke-width:0.5;fill-opacity:1"
       d="m 315.69471,297.03097 c -1.01178,3.41466 -1.04047,6.8222 -1.41342,10.36544 -0.49099,4.66468 -1.00122,9.61949 -2.35579,14.13472 -0.48605,1.62017 -1.34972,3.10687 -1.88463,4.71158 -0.14899,0.44697 -0.33315,1.74663 0,1.41347 0.24833,-0.24832 0.26461,-0.65831 0.47116,-0.94232 1.41418,-1.94449 4.0428,-5.46566 6.12499,-7.06736 4.21755,-3.2443 9.68284,-3.7708 13.1924,-8.15776 0.25213,-0.31516 3.41221,-4.95157 2.82695,-5.65389 -0.85313,-1.02376 -2.14131,-1.68422 -2.82695,-2.82695 -1.46275,-2.43792 -3.79009,-8.45471 -6.91109,-9.42313 -1.72769,-0.53608 -4.66212,0 -6.59621,0"
       id="path705" />
    <path
       style="fill:#df9900;stroke-width:0.5;fill-opacity:1"
       d="m 281.45654,302.06658 c 4.80094,-2.63639 9.4805,-5.61077 13.82406,-8.95198 0.70419,-0.54168 1.1739,-1.35157 1.88463,-1.88462 0.79077,-0.59309 1.77922,-1.22131 2.35573,-1.41348 0.33316,-0.11105 0.85714,-0.81185 0.94232,-0.47115 0.19422,0.7769 -0.40974,1.55733 -0.47116,2.35578 -0.0964,1.25272 0,2.51284 0,3.76926 -0.15705,2.04168 -0.30786,4.08384 -0.47116,6.12503 -0.44167,5.52092 -0.47116,10.95713 -0.47116,16.49048 0,0.60868 -0.51185,-1.13376 -0.94225,-1.56417 -1.61638,-1.61638 -1.66013,-1.76418 -3.76926,-3.2981 -1.68583,-1.22606 -7.37582,-4.10687 -8.48083,-5.65389 -0.69521,-0.97328 -0.87857,-2.2283 -1.41347,-3.2981"
       id="path707" />
    <path
       style="fill:#df9900;stroke-width:0.5;fill-opacity:1"
       d="m 275.96315,268.3138 c 1.80972,2.43647 2.81213,5.63536 4.71158,8.00967 1.55814,1.94769 1.49756,0.90523 2.82694,3.2981 1.94458,3.50023 2.35579,7.40759 2.35579,11.30776 0,0.15706 -0.0222,-0.31568 0,-0.47115 0.1351,-0.94571 0.25634,-1.8961 0.47115,-2.82695 0.31411,-1.09936 0.62821,-2.19873 0.94232,-3.2981 0,-0.3141 -0.0516,-0.63248 0,-0.94231 0.66295,-3.97772 2.53261,-7.52715 3.76926,-11.30776 0.55768,-1.70492 0.94931,-6.60319 2.50628,-8.16016 0.11105,-0.11105 0.12564,0.37693 0,0.47116 -1.1853,0.88897 -2.46194,1.65854 -3.76926,2.35577 -2.43656,1.29949 -14.51105,5.74871 -16.96166,3.2981"
       id="path709" />
    <path
       style="fill:#ffe723;stroke-width:0.5;fill-opacity:1"
       d="m 311.02251,197.87977 c 1.22158,-0.88842 2.34684,-1.92723 3.66474,-2.66526 4.69302,-2.62809 3.8507,-1.25903 7.99581,-3.33158 0.28094,-0.14048 0.44421,-0.44422 0.66631,-0.66632 0.22211,-0.11105 0.80406,-0.53978 0.66632,-0.33316 -0.34847,0.5227 -0.94019,0.84209 -1.33263,1.33263 -1.64394,2.05493 -3.05218,4.09011 -4.89168,5.99685 -0.54521,0.56514 -1.14867,1.07483 -1.66576,1.6658 -0.81636,0.933 -0.90849,1.81581 -0.99947,1.52345 -1.04541,-3.35954 -0.33316,-7.52461 -0.33316,-10.99422"
       id="path782" />
    <path
       style="fill:#ffe723;stroke-width:0.5;fill-opacity:1"
       d="m 291.49347,206.93641 c 0,-0.1527 -0.0286,-0.30809 0,-0.45809 0.028,-0.14687 0.11335,-0.27674 0.16658,-0.41645 0.0578,-0.15184 0.10179,-0.30909 0.16658,-0.45809 0.25584,-0.58843 0.27465,-0.40303 0.41645,-1.04112 0.22522,-1.01351 -0.0672,-0.16473 0.20822,-1.08277 0.0479,-0.15975 0.108,-0.31566 0.16658,-0.47183 0.0109,-0.0291 0.0318,-0.0538 0.0416,-0.0833 0.004,-0.0132 -0.0139,-0.0417 0,-0.0417 0.0196,0 0.0338,0.0237 0.0417,0.0417 0.0899,0.20546 0.19086,0.40831 0.24987,0.62467 0.0667,0.24439 0.074,0.50146 0.12493,0.74961 0.1633,0.79608 0.37902,1.56894 0.49974,2.37375 0.0158,0.10526 0.0891,0.36006 -0.0416,0.45809 -0.0844,0.0633 -0.30792,0.0506 -0.37481,0.0417 -0.67972,-0.0906 -1.03425,-0.65225 -1.5825,-0.99948 -0.17863,-0.11313 -0.38869,-0.16658 -0.58303,-0.24987"
       id="path786" />
    <path
       style="fill:#ffe723;stroke-width:0.5;fill-opacity:1"
       d="m 295.36643,207.15953 c 0.0906,0.3825 0.0341,0.7456 -0.0416,1.12441 -0.0753,0.37649 -0.18675,0.74569 -0.24987,1.12441 -0.0114,0.0685 0,0.13882 0,0.20823 0,0.0373 -0.0358,0.10157 0,0.11178 0.0417,0.0119 0.0632,-0.0603 0.10003,-0.0833 0.16354,-0.1022 0.34324,-0.17883 0.49974,-0.29151 0.35994,-0.25916 1.03276,-0.81201 1.20769,-1.24935 0.0309,-0.0773 0,-0.16658 0,-0.24987 0,-0.0555 0.0176,-0.1139 0,-0.16657 -0.0573,-0.17196 -0.35763,-0.62984 -0.45809,-0.80563"
       id="path788" />
    <path
       style="fill:#ffe723;stroke-width:0.5;fill-opacity:1"
       d="m 295.57367,232.91121 c 0.0903,-0.88652 0.53904,-1.23601 1.08276,-1.91566 0.2411,-0.30137 0.47382,-0.60937 0.70796,-0.91618 0.16844,-0.22071 0.33472,-0.44305 0.49974,-0.66632 0.071,-0.096 0.0888,-0.29151 0.20823,-0.29151 0.10571,0 0.09,0.19173 0.12493,0.29151 0.0624,0.17821 0.14316,0.35403 0.16658,0.54138 0.0846,0.67655 -0.0559,1.37681 -0.16658,2.0406 -0.0343,0.20585 0.0248,0.62868 -0.20822,0.73623 -0.30556,0.14103 -1.04133,-0.0871 -1.2077,-0.12493 -1.485,-0.3375 -0.48198,-0.18899 -1.70744,-0.33316"
       id="path790" />
    <path
       style="fill:#ffe723;stroke-width:0.5;fill-opacity:1"
       d="m 301.66743,229.19523 c -0.0773,1.54597 0.0486,0.10602 -0.29151,1.83237 -0.0587,0.29806 -0.0772,0.60275 -0.12494,0.90276 -0.0355,0.22316 -0.0897,0.44311 -0.12493,0.66632 -0.007,0.0411 -0.0333,0.14992 0,0.12493 0.0801,-0.0601 0.10219,-0.17322 0.16658,-0.24987 0.22763,-0.27099 0.48077,-0.51988 0.70796,-0.79125 0.55202,-0.65936 1.05709,-1.36064 1.5825,-2.04059 0.20547,-0.2659 0.40202,-0.53956 0.62467,-0.79125 0.10406,-0.11764 0.44421,-0.22211 0.33316,-0.33316 -0.01,-0.01 -0.0279,-0.002 -0.0417,0 -0.16691,0.0257 -0.33155,0.068 -0.49973,0.0833 -0.46542,0.0423 -0.91217,0.0416 -1.37428,0.0416"
       id="path792" />
    <path
       style="fill:#ffe723;stroke-width:0.5;fill-opacity:1"
       d="m 289.81242,232.88824 c 0.45662,-0.33177 0.99603,-0.50896 1.49921,-0.74961 0.15692,-0.075 0.29998,-0.17739 0.4581,-0.24987 0.1674,-0.0767 0.78982,-0.38867 1.04111,-0.30491 0.0373,0.0124 0.0631,0.0496 0.0833,0.0833 0.23463,0.39104 0.18498,0.35946 0.16658,0.87454 -0.007,0.20855 0.006,0.42144 -0.0416,0.62467 -0.0766,0.32813 -0.38997,1.071 -0.6516,1.33263 -0.0994,0.0994 -0.37246,-0.12743 -0.54139,-0.20822 -0.5428,-0.2596 -1.28087,-0.62225 -1.87401,-0.72196"
       id="path794" />
    <path
       style="fill:#ffcc00;stroke-width:0.5"
       d="m 309.53588,244.89582 c 0.48281,-0.1052 0.28577,0.19027 0.66632,0"
       id="path796" />
    <path
       style="fill:#ffe723;stroke-width:0.5;fill-opacity:1"
       d="m 309.86904,249.25545 c -0.66189,-0.55868 -0.5072,-0.9566 -0.58303,-1.79072 -0.0539,-0.59247 -0.32946,-2.10452 -0.0699,-2.62362 0.0263,-0.0527 0.0833,-0.0833 0.12493,-0.12494 0.22125,-0.22124 0.41296,-0.41393 0.74961,-0.29151 0.0875,0.0318 0.16428,0.0883 0.24987,0.12493 0.0128,0.005 0.0354,-0.0124 0.0416,0 0.12963,0.25926 0.14523,0.56259 0.24987,0.8329 0.0942,0.24322 0.20092,0.48316 0.33316,0.70796 0.31522,0.53587 0.6049,0.84863 1.04112,1.2773 0.0773,0.076 0.15793,0.15076 0.24987,0.20823 0.0235,0.0147 0.0637,-0.0196 0.0833,0 10e-4,0.001 -0.14918,0.15068 -0.24987,0.20822 -0.0241,0.0138 -0.0565,-0.007 -0.0833,0 -0.2541,0.0693 -0.50506,0.15205 -0.74961,0.24987 -0.46321,0.18528 -1.22783,0.66632 -1.70743,0.66632"
       id="path798" />
    <path
       style="fill:#ffe723;stroke-width:0.5;fill-opacity:1"
       d="m 314.3384,242.49532 c 0.0278,0.61079 0.0178,1.22446 0.0833,1.83236 0.0321,0.29794 0.13695,0.58348 0.20823,0.87454 0.0953,0.38915 0.18769,0.7791 0.29151,1.16606 0.0489,0.18236 0.11793,0.35895 0.16658,0.54138 0.007,0.0268 -0.0124,0.0585 0,0.0833 0.006,0.0124 0.0365,0.0129 0.0417,0 0.28582,-0.71455 0.36949,-1.48417 0.62467,-2.20717 0.024,-0.0679 0.61843,-1.40228 0.62467,-1.41592 0.10844,-0.23721 0.25068,-0.46054 0.33316,-0.70797 0.0441,-0.13234 0.0309,-0.27735 0.0416,-0.41644 0.003,-0.0415 0.0372,-0.10631 0,-0.12494 -0.35402,-0.17701 -0.82301,0.0678 -1.16605,0.12494 -0.53276,0.0888 -0.44101,0.0833 -0.74961,0.0833"
       id="path800" />
    <path
       style="fill:#ffe723;stroke-width:0.5;fill-opacity:1"
       d="m 318.66946,239.7884 c 0.44268,-0.55081 0.92721,-0.78472 1.49921,-1.16605 0.52232,-0.34821 1.03004,-0.71789 1.54086,-1.08276 0.22592,-0.16137 0.43248,-0.35008 0.66632,-0.49974 0.11215,-0.0718 0.37394,-0.28456 0.49974,-0.0833 0.40196,0.64314 0.26996,0.62162 0.45808,1.41592 0.14797,0.62476 0.48724,1.30455 0.24987,1.95731 -0.12876,0.35409 -0.45075,0.62467 -0.83289,0.62467 -0.11447,0 -0.24873,-0.006 -0.33316,-0.0833 -0.20732,-0.18982 -0.33558,-0.45108 -0.49973,-0.67926 -0.23843,-0.33142 -0.44943,-0.68349 -0.70797,-0.99947 -0.65078,-0.7954 -0.59349,-0.70705 -1.24934,-1.12441"
       id="path802" />
    <path
       style="fill:#ffe723;stroke-width:0.5;fill-opacity:1"
       d="m 323.25038,233.94519 c -0.10107,0.45735 0.0858,0.93909 0.20823,1.37428 0.0757,0.26933 0.48308,1.74908 0.91618,1.74908 0.27472,0 0.69298,-0.70838 0.8329,-0.87454 0.18554,-0.22033 0.60518,-0.5912 0.8329,-0.7496 0.28144,-0.19579 0.58255,-0.3617 0.87454,-0.54139 0.0591,-0.0364 0.21566,-0.0759 0.16658,-0.12493 -0.0926,-0.0926 -0.23152,-0.12564 -0.33316,-0.20822 -0.38021,-0.30892 -0.59314,-0.56608 -0.95783,-0.91619 -1.13155,-1.08629 -0.1866,-0.14495 -0.62467,-0.58303"
       id="path804" />
    <path
       style="fill:#ffe723;stroke-width:0.5;fill-opacity:1"
       d="m 317.43381,246.17581 c 0.12494,-0.0972 0.26289,-0.17959 0.37481,-0.29151 0.0981,-0.0982 0.16554,-0.22289 0.24986,-0.33316 0.34734,-0.4542 0.63327,-0.78366 0.8329,-1.33263 0.13429,-0.36929 0.18194,-0.65617 0.49974,-0.91619 0.0569,-0.0466 0.47556,-0.37921 0.58303,-0.33315 0.16853,0.0722 0.71402,1.12921 0.79125,1.24934 0.8246,1.28272 -0.0411,-0.0826 0.70795,0.91618 0.0672,0.0895 0.12354,0.18821 0.16658,0.29152 0.0338,0.081 0.0942,0.33698 0.0833,0.24986 -0.0159,-0.12699 -0.0346,-0.25646 -0.0833,-0.3748 -0.024,-0.0583 -0.48171,-0.70572 -0.58302,-0.62467 -0.36463,0.2917 0.0666,0.1101 -0.58303,0.45809 -0.58463,0.3132 -1.03631,0.45749 -1.70743,0.54138 -0.23417,0.0293 -0.47218,0.01 -0.70797,0 -0.15521,-0.006 -0.51686,-0.12493 -0.29151,-0.12493"
       id="path806" />
    <path
       style="fill:#ffe723;stroke-width:0.5;fill-opacity:1"
       d="m 316.85078,268.26501 c 0.60513,-0.42359 0.30779,-0.10465 0.62468,-0.79125 0.091,-0.19728 0.16783,-0.40438 0.29151,-0.58302 0.12863,-0.1858 0.31039,-0.32872 0.45809,-0.49974 0.1162,-0.13454 0.20746,-0.29074 0.33316,-0.41645 0.12904,-0.12903 0.32423,-0.21569 0.33316,-0.16658 0.0327,0.17981 -0.0416,1.10245 -0.0416,1.16606 0,1.05072 0.0446,0.28299 0.12493,1.16605 0.0292,0.32136 -0.0173,0.64446 -0.0833,0.95783 -0.0181,0.0859 -0.0271,0.18242 -0.0833,0.24987 -0.0994,0.11923 -0.29063,-0.11736 -0.41645,-0.20823 -0.15306,-0.11054 -0.29927,-0.23105 -0.45809,-0.33315 -0.0369,-0.0237 -0.0833,-0.0278 -0.12493,-0.0417"
       id="path808" />
    <path
       style="fill:#ffe723;stroke-width:0.5;fill-opacity:1"
       d="m 310.72901,270.47219 c -0.0694,0.13881 -0.16414,0.26764 -0.20823,0.41645 -0.0681,0.22975 -0.0836,0.47191 -0.12493,0.70795 -0.0559,0.31922 -0.11105,0.63856 -0.16658,0.95784 -0.0907,0.52139 -0.24033,1.16167 -0.20822,1.70743 0.0375,0.6375 0.34826,1.18484 0.49973,1.79073 0.0618,0.24709 0.0291,0.99808 0.41645,1.04111 0.27614,0.0307 1.35893,-0.88954 1.45756,-0.95782 0.59213,-0.40994 1.00335,-0.56204 1.45757,-1.12441 0.52569,-0.65085 0.25799,-1.60982 0.12494,-2.33211 -0.036,-0.19547 -0.0529,-0.39779 -0.12494,-0.58303 -0.15174,-0.3902 -1.39798,-0.14396 -1.73613,-0.48212"
       id="path810" />
    <path
       style="fill:#ffe723;stroke-width:0.5;fill-opacity:1"
       d="m 316.44728,273.77974 c -0.0555,0.0972 -0.13287,0.18479 -0.16657,0.29151 -0.1834,0.58076 -0.16788,1.32657 -0.0417,1.91566 0.0418,0.19501 0.11237,0.50886 0.45809,0.20823 0.36619,-0.31843 1.12677,-1.66804 1.33263,-2.16553 0.0374,-0.0904 0.21645,-0.99947 0.49974,-0.99947 0.0393,0 -0.0592,0.0523 -0.0833,0.0833 -0.10403,0.13376 -0.1717,0.29663 -0.29151,0.41645 -0.0969,0.0969 -0.24388,-0.2171 -0.4581,-0.45809 -0.41089,-0.46226 -0.35798,-0.39082 -0.87453,-0.66632 -0.16781,-0.0895 -0.107,-0.0833 -0.20823,-0.0833"
       id="path812" />
    <path
       style="fill:#ffe723;stroke-width:0.5;fill-opacity:1"
       d="m 281.38239,273.05884 c 0.0642,-0.66474 0.44251,-1.36951 0.66631,-1.99895 0.0806,-0.22676 0.41925,-1.68014 0.8329,-1.74908 0.0306,-0.005 0.0694,0.0139 0.0833,0.0416 0.37893,0.75787 0.62922,1.5933 0.95783,2.37375 0.32924,0.78195 0.22142,0.60151 0.62467,1.16606 0.0471,0.0659 0.20588,0.20822 0.12493,0.20822 -0.29675,0 -0.58182,-0.11779 -0.87454,-0.16658 -0.23277,-0.0388 -0.47197,0 -0.70796,0 -0.40416,0 -0.92531,-0.0602 -1.33263,0.0417"
       id="path814" />
    <path
       style="fill:#ffe723;stroke-width:0.5;fill-opacity:1"
       d="m 288.29542,269.10258 c 0.25944,0.68499 0.0551,1.34947 -0.0417,2.0406 -0.10221,0.73006 -0.10975,1.29008 -0.29151,1.99895 -0.0622,0.24241 -0.16335,0.47313 -0.24987,0.70796 -0.0107,0.0291 -0.0515,0.11273 -0.0416,0.0833 0.27805,-0.83415 0.81302,-1.52049 1.29098,-2.24882 0.13731,-0.20922 0.30745,-0.3994 0.41645,-0.62467 0.10136,-0.20947 0.14548,-0.44224 0.20823,-0.66632 0.019,-0.068 0.0638,-0.43856 0.16658,-0.54138 0.0397,-0.0397 0.22514,-0.10834 0.29151,-0.12494 0.0135,-0.003 0.0549,0.004 0.0416,0 -0.88238,-0.26471 -1.7519,-0.29151 -2.66526,-0.29151"
       id="path816" />
    <path
       style="fill:#ffe723;stroke-width:0.5;fill-opacity:1"
       d="m 281.84048,277.26496 c 0.0462,-0.71261 0.62539,-0.92566 0.95783,-1.45757 0.23538,-0.3766 0.37032,-0.82452 0.66632,-1.16605 0.2718,-0.31363 0.47868,-0.17215 0.66631,0.12493 0.22948,0.36334 0.33699,0.70064 0.41645,1.12441 0.0499,0.26641 0.0643,0.91975 0.20822,1.2077 0.0906,0.18119 0.48165,0.26796 0.24987,0.49974 -0.28272,0.28272 -1.28633,0.10518 -1.5825,-0.0833 -0.29667,-0.18879 0.007,-0.16658 -0.20822,-0.16658"
       id="path818" />
    <path
       style="fill:#ffe723;stroke-width:0.5;fill-opacity:1"
       d="m 287.54581,270.10206 c -0.20604,0.4636 -0.16658,0.23808 -0.16658,0.66631 0,0.31928 0.0227,0.63937 0,0.95783 -0.11273,1.57832 -0.0833,-0.45032 -0.0833,1.2077 0,0.19434 -0.009,0.38889 0,0.58303 0.0109,0.23879 0.0401,0.40075 0.0833,0.3748 0.26991,-0.16194 0.28097,-0.52161 0.33316,-0.79125 0.0785,-0.40537 0.12682,-0.87933 0.0416,-1.29099 -0.16814,-0.81268 -0.23508,-0.37209 -0.49974,-1.16605 -0.0844,-0.25332 -0.0918,-0.5263 -0.12493,-0.79125 -0.003,-0.0276 0.0124,-0.0585 0,-0.0833 -0.006,-0.0124 -0.0288,-0.005 -0.0417,0 -0.12694,0.0508 -0.24632,0.11985 -0.3748,0.16658 -0.51497,0.18726 -0.4513,0.15657 -0.91619,0.20822"
       id="path820" />
    <path
       style="fill:#ffe723;stroke-width:0.5;fill-opacity:1"
       d="m 292.04517,303.82354 c -0.25781,-0.3748 -0.43991,-0.82 -0.58303,-1.24934 -0.0441,-0.13233 -0.42521,-1.48492 -0.45809,-1.66579 -0.0349,-0.1917 -0.0713,-0.39046 -0.0417,-0.58303 0.0769,-0.4998 0.52458,-1.12441 1.08277,-1.12441 0.47037,0 0.53168,0.24018 0.87454,0.58303 0.16657,0.16658 0.33674,0.32965 0.49973,0.49973 0.15636,0.16316 0.29831,0.33995 0.4581,0.49974 0.33834,0.33834 0.79639,0.61103 0.91618,1.12441 0.0506,0.21672 -0.014,0.4455 -0.0417,0.66632 -0.028,0.22423 -0.0726,0.44648 -0.12493,0.66631 -0.0173,0.0727 -0.0304,0.15537 -0.0833,0.20823 -0.11894,0.11894 -0.80584,0.16207 -0.83289,0.16657 -0.44216,0.0737 -0.57757,0.11316 -0.95783,0.20823"
       id="path822" />
    <path
       style="fill:#ffe723;stroke-width:0.5;fill-opacity:1"
       d="m 286.2149,304.06046 c -0.27306,-0.42288 -0.1282,-0.8686 -0.0833,-1.33263 0.0214,-0.2215 0.009,-0.44618 0.0416,-0.66631 0.0308,-0.20781 0.24528,-0.84399 0.33316,-0.99948 0.25896,-0.45815 1.09908,-1.11711 1.37428,-0.29151 0.2857,0.85709 0.067,1.78496 0.0833,2.66526 0.007,0.36193 0.0193,0.72647 0.0833,1.08277 0.34336,1.91301 0.0728,-0.2503 0.33316,0.79125 0.01,0.0381 -0.0584,-0.0529 -0.0833,-0.0833 -0.10023,-0.1225 -0.19435,-0.24987 -0.29152,-0.37481 -0.11105,-0.12493 -0.22614,-0.24639 -0.33316,-0.3748 -0.42771,-0.51326 -0.9735,-1.06221 -1.66579,-1.16605 -0.12355,-0.0185 -0.24986,0 -0.3748,0"
       id="path824" />
    <path
       style="fill:#ffe723;stroke-width:0.5;fill-opacity:1"
       d="m 290.79582,306.51751 c -0.0507,0.20284 -0.17296,0.6542 -0.16658,0.83289 0.008,0.22583 0.0993,0.4418 0.12494,0.66632 0.0495,0.4336 -0.008,0.9903 0.16658,1.41592 0.10199,0.24932 0.31588,0.41859 0.58302,0.24987 0.18259,-0.11532 0.31463,-0.29669 0.4581,-0.4581 0.39315,-0.44229 0.64783,-0.88396 1.1244,-1.24934 0.48715,-0.37348 0.83313,-0.43733 1.41593,-0.58303 0.0819,-0.0205 0.20303,0.0286 0.24986,-0.0416 0.0344,-0.0516 -0.10724,-0.065 -0.16657,-0.0833 -0.12232,-0.0376 -0.25175,-0.0481 -0.37481,-0.0833 -0.57191,-0.1634 -1.03833,-0.41366 -1.45756,-0.83289"
       id="path826" />
    <path
       style="fill:#ffe723;stroke-width:0.5;fill-opacity:1"
       d="m 296.29293,311.01514 c 0.11402,-0.21273 0.34354,-0.32863 0.4581,-0.54138 0.1695,-0.31479 0.15565,-0.54472 0.16658,-0.91619 0.0313,-1.066 -0.10712,-1.88299 -0.62468,-2.83184 -0.21878,-0.4011 -0.39037,-0.55967 -0.45809,-0.45809 -0.13505,0.20258 0.073,0.69134 0.12493,0.79125 0.21796,0.41913 0.57327,0.70145 0.95784,0.95783 0.43803,0.29202 0.76349,0.3321 1.08276,0.7496 0.29472,0.38541 -0.0833,1.51412 -0.0833,1.99895 0,0.39828 0.0221,0.56934 0.16658,0.91619 0.0192,0.0462 0.0675,0.0774 0.0833,0.12493 0.004,0.0132 -0.0279,0.002 -0.0417,0 -0.0974,-0.0122 -0.19349,-0.0365 -0.29151,-0.0416 -0.30593,-0.0161 -0.88389,-0.0417 -1.16605,-0.0417"
       id="path828" />
    <path
       style="fill:#ffe723;stroke-width:0.5;fill-opacity:1"
       d="m 316.78216,305.13028 c 0.11105,-0.19434 0.20361,-0.40048 0.33315,-0.58302 0.17693,-0.24931 0.42388,-0.44695 0.58303,-0.70796 0.38967,-0.63906 0.52358,-1.22019 0.74961,-1.91566 0.0814,-0.25049 0.15356,-0.50446 0.24987,-0.74961 0.0568,-0.14445 0.13881,-0.27763 0.20822,-0.41645 0.0139,-0.0278 0.0197,-0.10524 0.0417,-0.0833 0.0405,0.0405 0.0388,0.10942 0.0416,0.16658 0.04,0.80032 -0.0754,0.68351 0.0833,1.5825 0.072,0.40783 0.20474,0.80277 0.29151,1.2077 0.0799,0.37272 0.11742,0.75421 0.20823,1.12441 0.18399,0.75012 0.38828,1.15995 0.58303,1.87402 0.0523,0.19175 0.0877,0.38778 0.12493,0.58302 0.0184,0.0964 0.0295,0.19412 0.0417,0.29152 0.002,0.0138 0.0124,0.0479 0,0.0416 -0.0621,-0.031 -0.11106,-0.0833 -0.16658,-0.12493 -0.12494,-0.0694 -0.24504,-0.14834 -0.37481,-0.20823 -0.052,-0.024 -0.1126,-0.0226 -0.16658,-0.0416 -0.18232,-0.0643 -0.36391,-0.13148 -0.54138,-0.20823 -0.74526,-0.32227 -1.17173,-0.53312 -1.87402,-0.91618 -0.10888,-0.0594 -0.67309,-0.23632 -0.54137,-0.49974"
       id="path830" />
    <path
       style="fill:#ffe723;stroke-width:0.5;fill-opacity:1"
       d="m 323.95805,302.2568 c 0.10496,1.00961 10e-4,2.02931 -0.0416,3.04006 -0.0136,0.31929 -0.0113,0.63969 -0.0417,0.95783 -0.17817,1.87077 -0.0948,-0.22429 -0.16658,1.49922 -0.004,0.0971 -0.0902,0.3276 0,0.29151 0.14444,-0.0578 0.32372,-0.76464 0.41645,-0.95783 0.0783,-0.16317 0.19434,-0.3054 0.29151,-0.45809 0.29031,-0.45619 0.61002,-0.8873 0.91619,-1.33264 0.0677,-0.0984 0.15104,-0.18668 0.20822,-0.29151 0.0936,-0.17154 0.009,-0.27589 -0.0416,-0.45809 -0.18368,-0.66124 -0.48049,-1.40221 -0.99948,-1.87402 -0.16846,-0.15315 -0.36092,-0.27763 -0.54138,-0.41644 z"
       id="path832" />
    <path
       style="fill:#ffe723;stroke-width:0.5;fill-opacity:1"
       d="m 320.3766,299.59153 c 0.10883,-0.14964 0.51565,-0.70321 0.62467,-0.87454 0.19045,-0.29927 0.37043,-0.60537 0.54138,-0.91618 0.0748,-0.13599 0.12535,-0.28523 0.20823,-0.41645 0.0845,-0.13382 0.20372,-0.24311 0.29151,-0.37481 0.0857,-0.1285 0.13034,-0.30963 0.16658,-0.29151 0.0278,0.0139 0.0331,0.0534 0.0416,0.0833 0.0472,0.1651 0.082,0.33348 0.12494,0.49974 0.30604,1.18589 0.14327,0.42601 0.3748,1.74908 0.0922,0.52711 0.19612,0.77198 0.0833,1.29099 -0.029,0.13359 -0.10224,0.25417 -0.16658,0.3748 -0.0471,0.0883 -0.11691,0.16295 -0.16658,0.24987 -0.007,0.0121 0.0139,0.0416 0,0.0416 -0.0196,0 -0.0297,-0.0261 -0.0416,-0.0416 -0.12696,-0.16505 -0.25378,-0.3303 -0.37481,-0.49974 -0.15666,-0.21933 -0.2821,-0.46217 -0.45809,-0.66632 -0.27609,-0.32026 -0.46449,-0.45248 -0.7496,-0.66631"
       id="path834" />
    <path
       style="fill:#ffe723;stroke-width:0.5;fill-opacity:1"
       d="m 319.50206,312.6478 c -0.43937,0.62176 -0.59836,1.41801 -0.66632,2.16553 -0.0188,0.20737 0.008,0.41659 0,0.62467 -0.002,0.0573 -0.13624,1.01851 -0.12493,1.04112 0.009,0.0176 0.0278,-0.0278 0.0416,-0.0416 0.16658,-0.16658 0.33316,-0.33316 0.49974,-0.49974 0.16658,-0.16658 0.33005,-0.33633 0.49974,-0.49974 0.54926,-0.52891 0.60014,-0.53436 1.08277,-1.04112 0.12879,-0.13524 0.23631,-0.29115 0.3748,-0.41645 0.1544,-0.13969 0.33075,-0.25313 0.49973,-0.3748 0.38804,-0.27939 0.67878,-0.30762 0.70796,-0.83289 0.0184,-0.33192 -0.3306,-0.39435 -0.54138,-0.49974 -0.70815,-0.35408 -1.40811,-0.677 -2.16552,-0.91619 -0.2473,-0.0781 -0.49989,-0.1383 -0.74961,-0.20822 -0.31109,-0.0871 -0.1896,-0.0833 -0.33316,-0.0833"
       id="path836" />
    <path
       style="fill:#ffe723;fill-opacity:1;stroke-width:0.5"
       d="m 279.20392,186.09537 c 0.373,-0.92268 0.61211,-1.91158 1.119,-2.76805 0.10197,-0.17229 0.38925,-0.13205 0.58895,-0.11778 0.0979,0.007 0.16991,0.10372 0.23558,0.17668 0.25698,0.28554 0.39594,0.62063 0.58894,0.94231 0.0837,0.13952 0.0234,0.0117 0.11779,0.0589 0.0889,0.0445 0.22234,0.3626 0.23558,0.41226 0.0566,0.21208 0.0747,0.43262 0.11779,0.64784 0.0355,0.17748 0.0739,0.35446 0.11779,0.53005 0.0196,0.0785 0.11613,0.17834 0.0589,0.23558 -0.0518,0.0518 -0.23126,0.0336 -0.29447,0.0589 -0.30464,0.12186 -0.0441,0.17669 -0.47116,0.17669 -0.62044,0 -0.29456,-0.0482 -0.76563,-0.17669 -0.1152,-0.0314 -0.24008,-0.0211 -0.35337,-0.0589 -0.32525,-0.10842 -0.62398,-0.28493 -0.94231,-0.41226 -0.0425,-0.017 -0.37908,-0.17669 -0.47116,-0.17669"
       id="path1627" />
    <path
       style="fill:#ffe723;fill-opacity:1;stroke-width:0.5"
       d="m 279.20392,190.68915 1.06011,2.65026"
       id="path1692" />
    <path
       style="fill:#ffe723;fill-opacity:1;stroke-width:0.5"
       d="m 278.32249,192.67726 c 0.0278,-0.36092 0.0238,-0.7257 0.0833,-1.08276 0.30169,-1.81013 0.64483,-3.61331 0.99948,-5.41382 0.008,-0.0385 0.044,-0.0833 0.0833,-0.0833 0.0278,0 0,0.0555 0,0.0833 0,0.30539 -0.0404,0.61347 0,0.91618 0.0164,0.12308 0.13391,0.21338 0.16658,0.33316 0.0516,0.1894 0.0357,0.39257 0.0833,0.58303 0.0639,0.25552 0.182,0.49511 0.24987,0.7496 0.16403,0.61512 3.5e-4,0.33423 0.16658,0.8329 0.10899,0.32698 0.3757,0.75678 0.41644,1.08276 0.0207,0.1653 -0.0138,0.33374 0,0.49974 0.0113,0.13528 0.16252,0.67038 0.0833,0.74961 -0.0703,0.0702 -0.31936,0.0639 -0.41644,0.0833 -0.55689,0.11137 -0.95592,0.42028 -1.33264,-0.33316"
       id="path1743" />
    <path
       style="fill:#ffe723;fill-opacity:1;stroke-width:0.5"
       d="m 284.81907,182.26607 c 0.44422,1.61027 0.7185,3.27738 1.33264,4.83079 0.15345,0.38814 0.0486,-0.83341 0.0833,-1.24934 0.29063,-2.61564 -0.0419,0.62852 0.0833,-1.24934 0.0432,-0.64858 0.25992,-1.34553 0.16658,-1.99895 -0.0157,-0.10994 -0.22542,0.0269 -0.33316,0 -0.16564,-0.0414 -0.31858,-0.24987 -0.49974,-0.24987"
       id="path1745" />
    <path
       style="fill:#ffe723;fill-opacity:1;stroke-width:0.5"
       d="m 276.73999,194.7595 c 0.32217,1.93302 0.14797,0.85061 0.66632,4.99737 0.007,0.0551 -0.0248,0.21625 0,0.16658 0.20196,-0.40391 0.15505,-0.57278 0.24987,-0.99947 0.19306,-0.86879 -0.0557,0.53735 0.24987,-0.58303 0.1226,-0.44956 0.14776,-0.95647 0.24986,-1.41592 0.0562,-0.25271 0.4674,-0.96226 0.41645,-1.16605 -0.0301,-0.12046 -0.0788,-0.24537 -0.16658,-0.33316 -0.0305,-0.0305 -0.20544,0.0111 -0.24987,0 -0.2617,-0.0654 -0.49392,-0.19873 -0.7496,-0.24987 -0.0487,-0.01 -0.56877,0.0357 -0.58303,0 -0.0526,-0.13144 -0.0555,-0.27763 -0.0833,-0.41645 z"
       id="path1747" />
    <path
       style="fill:#ffe723;fill-opacity:1;stroke-width:0.5"
       d="m 278.71119,212.08569 c 0.0677,-0.13881 0.13339,-0.2786 0.20302,-0.41644 0.0154,-0.0306 0.0349,-0.0589 0.0521,-0.0885 0.0102,-0.0176 0.0148,-0.01 0.0208,-0.0156 0.001,-10e-4 -0.002,-0.006 0,-0.005 0.005,0.002 0.0642,0.0435 0.0677,0.0521 0.0258,0.0645 0.032,0.12997 0.0469,0.19781 0.0111,0.0506 0.0228,0.10102 0.0364,0.15096 0.004,0.0162 0.0383,0.11504 0.0156,0.13014 -0.0131,0.009 -0.0264,0.0104 -0.0416,0.0104 -0.0849,0 -0.0902,-0.0243 -0.16138,-0.0677 -0.0468,-0.0285 -0.0948,-0.0403 -0.14575,-0.0573"
       id="path1749" />
    <path
       style="fill:#ffe723;fill-opacity:1;stroke-width:0.5"
       d="m 279.78875,211.60157 c -0.0254,0.65249 -0.10146,0.72136 0.11973,0.4633 0.0161,-0.0187 0.0303,-0.039 0.0469,-0.0573 0.0363,-0.04 0.081,-0.0722 0.11453,-0.11452 0.0164,-0.0208 0.0272,-0.0455 0.0416,-0.0677 0.0166,-0.0254 0.0625,-0.0796 0.0625,-0.11452 0,-0.0101 -0.0183,-0.009 -0.026,-0.0156 -0.0242,-0.0207 -0.0326,-0.0561 -0.0573,-0.0781 -0.006,-0.005 -0.014,-0.007 -0.0208,-0.0104 -0.0512,-0.0279 -0.1228,-0.0729 -0.1822,-0.0729"
       id="path1751" />
    <path
       style="fill:#ffe723;fill-opacity:1;stroke-width:0.5"
       d="m 277.01714,207.10534 c -0.23514,-0.0941 -0.0819,-0.0252 -0.5006,-0.35337 -0.0411,-0.0322 -0.0834,-0.0638 -0.11779,-0.10306 -0.008,-0.009 0.0608,-0.0294 0.0736,-0.0294 0.0245,0 0.0494,-0.004 0.0736,0 0.007,0.001 0.009,0.0116 0.0147,0.0147 0.0628,0.0314 0.13574,0.0658 0.20613,0.0736 0.0195,0.002 0.0395,-0.003 0.0589,0 0.0154,0.002 0.0294,0.01 0.0442,0.0147 0.0295,0.005 0.0586,0.0124 0.0884,0.0147 0.0686,0.005 0.32886,-0.0245 0.38281,0.0294 0.015,0.015 -0.0927,0.0234 -0.10306,0.0442 -0.0208,0.0416 -0.0283,0.0888 -0.0442,0.13251 -0.0408,0.11216 0.0237,-0.12301 -0.0442,0.10307 -0.004,0.0124 -0.0442,0.19233 -0.0442,0.14723"
       id="path1753" />
    <path
       style="fill:#ffe723;fill-opacity:1;stroke-width:0.5"
       d="m 276.78156,206.23665 c 0.24049,0.10797 0.48236,0.2129 0.72146,0.32392 0.0359,0.0167 0.0669,0.0428 0.10307,0.0589 0.009,0.004 0.0196,0 0.0294,0 0.01,0 0.0294,0.01 0.0294,0 0,-0.0481 -0.12543,-0.0502 -0.14723,-0.0589 -0.0329,-0.0132 -0.0351,-0.0622 -0.0589,-0.0884 -0.0304,-0.0335 -0.0711,-0.0563 -0.10306,-0.0883 -0.15596,-0.15595 0.0337,0.002 -0.11779,-0.13251 -0.0737,-0.0655 -0.16423,-0.12887 -0.25031,-0.17668 -0.0136,-0.008 -0.032,-0.005 -0.0442,-0.0147 -0.0138,-0.011 -0.0169,-0.0317 -0.0294,-0.0442 -0.008,-0.008 -0.0217,-0.007 -0.0294,-0.0147 -0.003,-0.003 0.003,-0.0113 0,-0.0147 -0.0275,-0.0275 -0.004,0.0803 0,0.11779 0.007,0.0695 0.0147,0.1355 0.0147,0.20613 0,0.10443 0.0104,0.009 -0.0147,0.0589 -0.002,0.004 -0.003,0.0182 0,0.0147 0.008,-0.008 0.01,-0.0196 0.0147,-0.0294"
       id="path1755" />
    <path
       style="fill:#ffe723;fill-opacity:1;stroke-width:0.5"
       d="m 277.44413,205.70659 c -0.22086,-0.19631 -0.45821,-0.3755 -0.66257,-0.58894 -0.0352,-0.0368 -7.7e-4,-0.14698 0.0442,-0.16196 0.0992,-0.0331 0.42043,0.0409 0.51533,0.0883 0.12761,0.0638 0.0883,0.0736 0.17669,0.17668 0.0476,0.0556 0.12714,0.13384 0.1914,0.17669 0.0434,0.0289 0.10174,0.0476 0.14724,0.0736 0.0222,0.0127 0.0826,0.0216 0.0589,0.0294 -0.0636,0.0212 -0.15554,-0.0109 -0.22085,0 -0.12663,0.0211 -0.18884,0.10369 -0.2503,0.20613 z"
       id="path1757" />
    <path
       style="fill:#ffe723;fill-opacity:1;stroke-width:0.5"
       d="m 276.95825,204.10172 c 0.37853,0.30282 0.69609,0.55804 1.14844,0.86869 0.0413,0.0283 0.0972,0.0295 0.14724,0.0295 0.0402,0 -0.11871,-0.14533 -0.2503,-0.29447 -0.13123,-0.14872 -0.2381,-0.30978 -0.35337,-0.47116 -0.0702,-0.0983 -0.26474,-0.38282 -0.41226,-0.38282"
       id="path1759" />
    <path
       style="fill:#ffe723;fill-opacity:1;stroke-width:0.5"
       d="m 278.48951,203.79252 c -0.6006,0 0.0599,0.007 -1.57543,-0.44171 -0.0523,-0.0143 -0.11243,0.007 -0.16196,-0.0147 -0.0162,-0.007 0.0174,-0.0312 0.0294,-0.0442 0.13733,-0.1479 0.27734,-0.2491 0.45644,-0.33865 0.054,-0.027 0.16821,-0.0799 0.23557,-0.0883 0.20348,-0.0254 0.5056,0.0822 0.70674,0.13251 0.006,0.001 0.24891,0.0692 0.27975,0.0736 0.0292,0.004 0.0593,-0.005 0.0883,0 0.0297,0.005 0.1864,0.0474 0.22086,0.0589 0.0519,0.0173 -0.0734,0.0435 -0.0736,0.0442 -0.0171,0.0512 0.003,0.10807 0,0.16196 -0.009,0.14494 -0.0582,0.28264 -0.0736,0.42698 -0.008,0.0782 -0.008,0.15722 -0.0147,0.23558 -0.0363,0.39962 -0.0294,0.10262 -0.0294,0.42699 0,0.0404 -0.004,0.0382 0.0147,0"
       id="path1761" />
    <path
       style="fill:#ffe723;fill-opacity:1;stroke-width:0.5"
       d="m 278.32755,202.49684 c -0.34356,-0.34846 -0.67456,-0.70975 -1.03066,-1.04538 -0.24797,-0.23372 -0.17134,-0.0997 -0.33864,-0.20613 -0.0265,-0.0169 -0.0475,-0.0415 -0.0736,-0.0589 -0.0365,-0.0243 -0.0802,-0.0363 -0.11779,-0.0589 -0.006,-0.004 -0.0215,-0.0161 -0.0147,-0.0147 0.051,-0.0154 0.0775,0.0326 0.11778,0.0442 0.35234,0.10066 0.71761,0.18755 0.98649,0.45643 0.0396,0.0396 0.0675,0.0893 0.10307,0.13251 0.11625,0.14117 0.24165,0.29463 0.38281,0.41226 0.046,0.0384 0.0937,0.0763 0.14724,0.10307 0.007,0.003 0.0763,0.0175 0.0883,0.0294 0.0115,0.0115 -0.0128,0.0256 -0.0147,0.0294 -0.004,0.009 0.005,0.0213 0,0.0294 -0.008,0.0115 -0.0211,0.0183 -0.0294,0.0294 -0.0295,0.0393 -0.0336,0.0904 -0.0589,0.13251 -0.0326,0.0543 -0.0823,0.085 -0.10306,0.14724 -0.005,0.014 0,0.0294 0,0.0442"
       id="path1763" />
    <path
       style="fill:#ffe723;fill-opacity:1;stroke-width:0.5"
       d="m 276.97297,200.43553 c 0.41717,0.29938 0.83214,0.60185 1.25151,0.89814 0.0159,0.0112 0.16398,0.10458 0.11779,0.0442 -0.12953,-0.16939 -0.19835,-0.20222 -0.3092,-0.33864 -0.0691,-0.085 -0.15367,-0.1919 -0.22085,-0.27975 -0.0232,-0.0303 -0.0999,-0.14515 -0.14724,-0.17669 -0.022,-0.0147 -0.05,-0.0176 -0.0736,-0.0294 -0.10677,-0.0534 -0.19755,-0.13252 -0.32392,-0.13252"
       id="path1765" />
    <path
       style="fill:#ffe723;fill-opacity:1;stroke-width:0.5"
       d="m 276.56071,202.04041 c 0.26993,0.18649 0.53681,0.3775 0.8098,0.55949 0.0512,0.0341 0.11033,0.0549 0.16196,0.0884 0.0322,0.0208 0.0574,0.051 0.0883,0.0736 0.0643,0.0472 0.13695,0.091 0.20613,0.13252 0.0114,0.007 0.0594,0.0289 0.0736,0.0147 0.0131,-0.0131 -0.0514,-0.13937 -0.0589,-0.17668 -0.0131,-0.0654 0.0393,0.0982 0,-0.0589 -0.0139,-0.0557 -0.0332,-0.11058 -0.0589,-0.16196 -0.0873,-0.17465 -0.23187,-0.32021 -0.36809,-0.45643 -0.0294,-0.0294 -0.0544,-0.0641 -0.0883,-0.0883 -0.0522,-0.0373 -0.23688,-0.13278 -0.3092,-0.14724 -0.11683,-0.0234 -0.23616,-0.0246 -0.35337,-0.0442 -0.0446,-0.007 -0.0884,-0.0193 -0.13251,-0.0295 -0.0392,-0.009 -0.0736,-0.0207 -0.0736,-0.0147 0,0.005 0.011,-0.003 0.0147,0 0.0366,0.032 0.0668,0.0708 0.10306,0.10306 0.0169,0.015 0.042,0.021 0.0589,0.0294 0.0193,0.01 0.0166,0.0288 0.0294,0.0442 0.0624,0.0748 0.0589,0.0289 0.0589,0.0736"
       id="path1767" />
    <path
       style="fill:#ffe723;fill-opacity:1;stroke-width:0.5"
       d="m 277.32634,209.78504 c -1.03153,-0.45387 0.0197,-9.6e-4 -0.53005,-0.22085 -0.17094,-0.0684 0.0594,0.015 -0.11779,-0.0736 -0.0267,-0.0134 -0.0609,-0.003 -0.0883,-0.0147 -0.0163,-0.007 -0.0277,-0.0229 -0.0442,-0.0294 -0.0109,-0.004 -0.0883,-0.005 -0.0883,-0.0294 0,-0.005 0.13164,-0.0294 0.14724,-0.0294 0.0983,0 0.19711,0.0147 0.29447,0.0147 0.20097,0 0.0866,-0.0144 0.2503,-0.0442 0.0193,-0.004 0.0393,0 0.0589,0 0.0196,-0.005 0.0391,-0.0103 0.0589,-0.0147 0.0115,-0.003 0.39707,-0.0299 0.35337,-0.0736 -0.0143,-0.0143 -0.0147,0.0387 -0.0147,0.0589 0,0.10582 -0.007,0.15093 -0.0294,0.2503 -0.0275,0.12369 0.002,-0.006 -0.0442,0.11779 -0.0173,0.0463 -0.0149,0.1031 -0.0736,0.11779 -0.01,0.002 -0.0201,-0.003 -0.0294,0 -0.007,0.002 -0.008,0.0166 -0.0147,0.0147 -0.0317,-0.009 -0.0651,-0.0675 -0.0883,-0.0442 -0.10779,0.10779 0.0842,0.10307 0.0147,0.10307"
       id="path1769" />
    <path
       style="fill:#ffe723;fill-opacity:1;stroke-width:0.5"
       d="m 276.60488,209.06359 c 0.19141,-0.0638 0.38356,-0.12541 0.57422,-0.19141 0.46779,-0.16193 0.012,-0.006 0.27975,-0.11779 0.0396,-0.0165 0.16055,-0.028 0.19141,-0.0589 0.008,-0.008 0.007,-0.0217 0.0147,-0.0294 0.003,-0.003 0.0113,0.003 0.0147,0 0.008,-0.008 0.009,-0.0203 0.0147,-0.0295 0.004,-0.006 0.0147,-0.008 0.0147,-0.0147 0,-0.007 -0.0395,0.0147 -0.10306,0.0147 -0.1449,0 -0.28184,-0.0294 -0.42699,-0.0294 -0.0807,0 -0.18505,0.0133 -0.26502,0 -0.0595,-0.01 -0.11882,-0.0444 -0.17669,-0.0589 -0.01,-0.002 -0.0201,0.003 -0.0294,0 -0.0172,-0.006 -0.0462,-0.0569 -0.0736,-0.0294 -0.003,0.003 -3.1e-4,0.01 0,0.0147 0.005,0.0736 0.0108,0.14718 0.0147,0.22086 0.003,0.0539 0.009,0.10879 0,0.16196 -0.009,0.0505 -0.0413,0.0961 -0.0442,0.14724 -0.002,0.0404 0.0215,0.0781 0.0294,0.11779 0.0225,0.11241 -0.0387,-0.0865 0.0147,0.0736"
       id="path1771" />
    <path
       style="fill:#ffe723;fill-opacity:1;stroke-width:0.5"
       d="m 277.59136,208.28323 c -0.24043,0 -0.49777,0.0574 -0.72146,-0.0589 -0.0688,-0.0358 -0.1264,-0.0901 -0.1914,-0.13252 -0.0872,-0.0569 -0.16839,-0.10052 -0.2503,-0.16195 -0.0307,-0.023 -0.0564,-0.0524 -0.0883,-0.0736 -0.004,-0.003 -0.0147,0.005 -0.0147,0 0,-0.0325 0.0704,-0.0294 0.0883,-0.0294 0.10006,0 0.19499,0.009 0.29447,0.0147 0.0539,0.003 0.10825,-0.005 0.16196,0 0.045,0.005 0.0876,0.0245 0.13252,0.0294 0.0964,0.0107 0.33986,0.0113 0.44171,0 0.0279,-0.003 0.24937,-0.0446 0.27975,-0.0294 0.0237,0.0118 -0.0294,0.0101 -0.0294,0.0294 0,0.0393 0,0.0785 0,0.11779 0,0.10712 0.007,0.21718 0,0.32392 -0.002,0.0298 -0.0105,0.0588 -0.0147,0.0883 -7e-4,0.005 0.003,0.0113 0,0.0147 -0.0196,0.0196 -0.0147,-0.0245 -0.0147,0.0147"
       id="path1773" />
    <path
       style="fill:#ffe723;fill-opacity:1;stroke-width:0.5"
       d="m 277.91489,206.69325 c 0.0278,-0.10203 0.0557,-0.20407 0.0835,-0.3061 0.004,-0.0132 0.008,-0.0265 0.0119,-0.0398 10e-4,0 0.004,-0.001 0.004,0 10e-4,0.004 0,0.008 0,0.0119 0.004,0.0132 0.007,0.0268 0.0119,0.0397 0.002,0.004 0.005,0.008 0.008,0.0119 0.003,0.007 0.006,0.0131 0.008,0.0199 0.0101,0.0302 0.0181,0.0611 0.0278,0.0914 0.006,0.0196 0.0226,0.0657 0.0278,0.0875 0.007,0.0288 0.0108,0.0583 0.0159,0.0875 10e-4,0.008 0.002,0.0161 0.004,0.0239 5.1e-4,0.002 0.005,0.005 0.004,0.004 -0.0299,-0.0299 -0.10428,-0.0658 -0.14311,-0.0755 -0.004,-9.6e-4 -0.008,0.001 -0.0119,0 -0.0155,-0.005 -3.7e-4,-0.004 -0.0159,-0.004"
       id="path1775" />
    <path
       style="fill:#ffe723;fill-opacity:1;stroke-width:0.5"
       d="m 277.80756,207.28559 c 0.0676,-0.10601 0.12437,-0.21973 0.20274,-0.31803 0.008,-0.0104 0.0224,0.0145 0.0318,0.0239 0.0449,0.0449 0.0702,0.10233 0.0954,0.15901 0.008,0.0172 0.0293,0.046 0.0239,0.0676 -0.005,0.0212 -0.117,0.009 -0.12722,0.008 -0.0634,-0.005 -0.0296,-0.004 -0.0874,-0.004 -0.005,0 -0.013,0.004 -0.0159,0 -0.002,-0.003 -0.003,-0.008 -0.004,-0.0119"
       id="path1777" />
    <path
       style="fill:#ffe723;fill-opacity:1;stroke-width:0.5"
       d="m 277.54518,206.84829 c 0.0358,0.0848 0.0686,0.17094 0.10734,0.25443 0.005,0.01 -0.007,-0.0215 -0.004,-0.0318 0.005,-0.0188 0.0185,-0.0345 0.0278,-0.0517 0.007,-0.012 0.0125,-0.0243 0.0199,-0.0358 0.0364,-0.0562 0.0108,-0.008 0.0517,-0.0636 0.006,-0.009 0.0105,-0.0186 0.0159,-0.0278 0.004,-0.007 0.007,-0.0138 0.0119,-0.0199 8.3e-4,-0.001 0.005,0 0.004,0 -0.0932,0 -0.17489,-0.0636 -0.26635,-0.0636"
       id="path1779" />
    <path
       style="fill:#ffe723;fill-opacity:1;stroke-width:0.5"
       d="m 278.00235,206.73698 c 0.004,0.0265 0.006,0.0533 0.0119,0.0795 0.005,0.023 0.0125,0.0453 0.0199,0.0676 0.002,0.006 0.005,0.0106 0.008,0.0159 0.001,0.003 0.002,0.0101 0.004,0.008 0.005,-0.005 0.005,-0.0135 0.008,-0.0199 0.003,-0.007 0.007,-0.0138 0.0119,-0.0199 8.2e-4,-0.001 0.003,9.4e-4 0.004,0 0.009,-0.009 0.0406,-0.065 0.0358,-0.0795 -0.002,-0.007 -0.007,-0.002 -0.0119,-0.004 -0.004,-0.002 -0.008,-0.006 -0.0119,-0.008 -0.0139,-0.006 -0.0574,-0.0173 -0.0716,-0.0199 -0.005,-9.5e-4 -0.0106,7.5e-4 -0.0159,0 -0.011,-0.002 -0.0167,-0.008 -0.0278,-0.008"
       id="path1781" />
    <path
       style="fill:#ffe723;fill-opacity:1;stroke-width:0.5"
       d="m 278.3005,206.97153 c 0,-0.0832 -0.003,-0.1241 0.0557,-0.2266 0.01,-0.0175 0.0165,0.0368 0.0239,0.0557 0.004,0.0104 0.0585,0.14637 0.0557,0.15504 -9.4e-4,0.003 -10e-4,0.007 -0.004,0.008 -0.008,0.002 -0.016,-9.9e-4 -0.0238,0 -0.003,3.7e-4 -0.005,0.003 -0.008,0.004 -0.0141,0.003 -0.0561,0.003 -0.0716,0 -0.004,-6.9e-4 -0.008,-0.005 -0.0119,-0.004 -0.006,8.4e-4 -0.0106,0.005 -0.0159,0.008 z"
       id="path1783" />
    <path
       style="fill:#ffe723;fill-opacity:1;stroke-width:0.5"
       d="m 278.31641,206.48653 c 0,0.0733 -0.002,0.12705 0.0676,0.20275 0.019,0.0206 0.0179,-0.0532 0.0278,-0.0795 0.009,-0.0228 0.0165,-0.046 0.0278,-0.0676 0.002,-0.003 0.0477,-0.052 0.0477,-0.0557 0,-0.001 -0.003,0 -0.004,0 -0.004,0 -0.008,-5.6e-4 -0.0119,0 -0.0345,0.005 -0.0682,0.0159 -0.10336,0.0159"
       id="path1785" />
    <path
       style="fill:#ffe723;fill-opacity:1;stroke-width:0.5"
       d="m 278.39591,207.28956 c 0.0185,-0.0731 0.0552,-0.14624 0.0875,-0.21069 0.004,-0.008 -0.005,0.0185 -0.004,0.0278 0.004,0.0453 0.014,0.09 0.0199,0.13517 0.001,0.0107 0.0204,0.15698 0.0159,0.17491 -4.6e-4,0.002 -0.003,-0.002 -0.004,-0.004 -0.007,-0.0143 -0.0116,-0.03 -0.0199,-0.0437 -0.007,-0.0114 -0.062,-0.0727 -0.0755,-0.0795 -0.006,-0.003 -0.0133,0 -0.0199,0 z"
       id="path1787" />
    <path
       style="fill:#ffe723;fill-opacity:1;stroke-width:0.5"
       d="m 278.06094,206.00036 c 0.0402,-0.14106 0.12985,-0.28689 0.18553,-0.40479 0.005,-0.0114 0.005,-0.0313 0.0169,-0.0337 0.01,-0.002 0.007,0.0187 0.0112,0.0281 0.0156,0.0391 0.0367,0.0768 0.045,0.11806 0.0117,0.0584 0.011,0.12093 0.0169,0.17991 10e-4,0.0132 0.007,0.0262 0.006,0.0393 -0.002,0.0122 -0.0461,0.0113 -0.0562,0.0113 -0.0244,0 -0.0494,0.006 -0.0731,0 -0.0197,-0.005 -0.037,-0.0164 -0.0562,-0.0225 -0.0276,-0.009 -0.0656,-0.0169 -0.0956,-0.0169"
       id="path1789" />
    <path
       style="fill:#ffe723;fill-opacity:1;stroke-width:0.5"
       d="m 278.37578,205.21889 c 0.0469,0.10682 0.0753,0.22378 0.14055,0.32046 0.0179,0.0266 0.009,-0.0636 0.0112,-0.0956 0.003,-0.0468 9.6e-4,-0.0939 0.006,-0.14056 1e-4,-9.2e-4 0.0115,-0.0756 0.0225,-0.10119 0.003,-0.008 0.007,-0.0153 0.0113,-0.0225 10e-4,-0.002 0.006,-0.003 0.006,-0.006 0,-5.2e-4 -0.0264,0.007 -0.045,0.006 -0.0188,-10e-4 -0.0375,-0.004 -0.0562,-0.006 -0.0244,-0.004 -0.0485,-0.009 -0.0731,-0.0113 -0.0243,-0.002 -0.0487,0 -0.0731,0"
       id="path1791" />
    <path
       style="fill:#ffe723;fill-opacity:1;stroke-width:0.5"
       d="m 278.52757,204.94341 c 0.16965,-0.25395 0.13183,-0.2921 0.19677,-0.0787 0.0111,0.0363 0.0249,0.0717 0.0394,0.10682 0.007,0.0171 0.0225,0.0322 0.0225,0.0506 0,0.002 -0.004,2.7e-4 -0.006,0 -0.0131,-0.002 -0.027,-7e-4 -0.0393,-0.006 -0.05,-0.02 -0.0797,-0.0496 -0.12369,-0.0731 -0.0526,-0.0281 -0.0153,0.007 -0.0337,-0.0112"
       id="path1793" />
    <path
       style="fill:#ffe723;fill-opacity:1;stroke-width:0.5"
       d="m 277.93163,205.26387 c 0.0412,0.0656 0.0788,0.13359 0.12369,0.19677 0.004,0.006 0,-0.015 0,-0.0225 0,-0.0977 -0.003,-0.028 0.006,-0.0956 0.0114,-0.0856 -0.009,-0.0259 0.0225,-0.0675 0.007,-0.009 0.0103,-0.0194 0.0169,-0.0281 3.2e-4,-4.3e-4 0.0339,-0.0279 0.0281,-0.0337 -0.001,-0.001 -0.004,0 -0.006,0 -0.0112,0 -0.0225,0 -0.0337,0 -0.0487,0 -0.0974,0 -0.14617,0"
       id="path1795" />
    <path
       style="fill:#ffe723;fill-opacity:1;stroke-width:0.5"
       d="m 278.17338,205.46626 c 0.006,-0.0806 0.0113,-0.16116 0.0169,-0.24174 0.002,0.003 0.009,-0.003 0.0112,0 0.0378,0.0587 0.0699,0.121 0.0787,0.19115 0.003,0.0261 4.7e-4,0.0529 0.006,0.0787 5.2e-4,0.003 0.007,0.007 0.006,0.006 -0.0418,-0.0418 -0.0581,-0.0537 -0.11807,-0.0337 z"
       id="path1797" />
    <path
       style="fill:#ffe723;fill-opacity:1;stroke-width:0.5"
       d="m 277.80795,205.65179 c 0.0112,0.0693 -0.005,0.14957 0.0337,0.20802 0.0207,0.0311 0.0175,-0.0732 0.0337,-0.10682 0.003,-0.006 0.0787,-0.0924 0.0787,-0.0956 0,-0.002 -0.004,8.4e-4 -0.006,0 -0.002,-0.001 -0.004,-0.004 -0.006,-0.006 -0.007,-0.002 -0.0151,-0.004 -0.0225,-0.006 -0.0154,-0.004 -0.0294,-0.0133 -0.045,-0.0169 -0.0204,-0.005 -0.15179,-0.0291 -0.15179,-0.0112"
       id="path1799" />
    <path
       style="fill:#ffe723;fill-opacity:1;stroke-width:0.5"
       d="m 278.65688,205.70239 c -0.002,0.06 -0.006,0.11991 -0.006,0.17991 0,0.003 0.004,-0.003 0.006,-0.006 0.0117,-0.0184 0.026,-0.0358 0.0337,-0.0562 0.0178,-0.0467 0.005,-0.16866 0.0787,-0.16866 0.002,0 -0.004,0 -0.006,0 -0.0131,0 -0.0263,0.001 -0.0394,0 -0.0245,-0.003 -0.0489,-0.006 -0.0731,-0.0112 -0.0172,-0.003 -0.0323,-0.0112 -0.0506,-0.0112"
       id="path1801" />
    <path
       style="fill:#ffe723;fill-opacity:1;stroke-width:0.5"
       d="m 278.43762,206.20837 c 0.0469,-0.0806 0.0779,-0.17277 0.14055,-0.24174 0.0141,-0.0155 0.0208,0.0366 0.0281,0.0562 0.01,0.0255 0.0139,0.0528 0.0225,0.0787 0.0101,0.0304 0.0194,0.0613 0.0337,0.09 0.0136,0.0271 0.0584,0.039 0.0394,0.0675 -0.0386,0.0579 -0.12381,-0.01 -0.16867,-0.0225 -0.0526,-0.0146 -0.10357,-0.0112 -0.15741,-0.0112"
       id="path1803" />
    <path
       style="fill:#ffe723;fill-opacity:1;stroke-width:0.5"
       d="m 277.93163,206.09031 c 0.0525,0.0918 0.08,0.20341 0.15742,0.27548 0.0302,0.0281 3.4e-4,-0.0828 0.006,-0.12368 0.008,-0.0624 0.0331,-0.0545 0.0506,-0.1012 0.0208,-0.0555 -0.008,-0.058 -0.0506,-0.0843 -0.0897,-0.0555 -0.17534,-0.12931 -0.28672,-0.12931"
       id="path1805" />
    <path
       style="fill:#ffe723;fill-opacity:1;stroke-width:0.5"
       d="m 277.48749,206.19713 c 0.0375,-0.10494 0.0733,-0.21049 0.11244,-0.31483 0.004,-0.01 0.0196,0.0123 0.0225,0.0225 0.0394,0.13992 0.0243,0.13158 0.0506,0.24737 0.006,0.0248 0.0135,0.0414 0.0281,0.0618 0.0122,0.017 0.0176,0.0112 0.0169,0.0112 -0.0344,0 0.002,0.002 -0.045,-0.0112 -0.004,-10e-4 -0.008,0.001 -0.0112,0 -0.0535,-0.0153 -0.10588,-0.045 -0.16304,-0.045"
       id="path1807" />
    <path
       style="fill:#ffe723;fill-opacity:1;stroke-width:0.5"
       d="m 278.19025,204.49927 c 0.045,0.11432 0.0447,0.25962 0.13493,0.34295 0.051,0.0471 0.008,-0.13866 0.0112,-0.20802 3.7e-4,-0.007 -0.001,-0.0151 0,-0.0225 10e-4,-0.007 0.0143,-0.0108 0.0113,-0.0169 -0.006,-0.0115 -0.0338,-0.0349 -0.045,-0.0394 -0.007,-0.003 -0.0157,-0.002 -0.0225,-0.006 -0.0105,-0.006 -0.0178,-0.0163 -0.0281,-0.0225 -0.0194,-0.0117 -0.0416,-0.018 -0.0618,-0.0281 z"
       id="path1809" />
    <path
       style="fill:#ffe723;fill-opacity:1;stroke-width:0.5"
       d="m 278.78056,204.44867 c 0.0412,-0.11806 0.0825,-0.23612 0.12369,-0.35419 0.004,-0.004 0.0102,-0.0164 0.0112,-0.0112 0.006,0.0313 0.003,0.0638 0.006,0.0956 0.006,0.0666 0.01,0.0863 0.0281,0.14617 0.019,0.0618 0.0376,0.12362 0.0562,0.18553 0.001,0.004 0.006,0.007 0.006,0.0112 0,0.002 -0.004,5.9e-4 -0.006,0 -0.0152,-0.005 -0.0302,-0.0106 -0.045,-0.0169 -0.0587,-0.0247 -0.11438,-0.0511 -0.16866,-0.0843 -0.024,-0.0146 -0.0593,-0.045 -0.0899,-0.045"
       id="path1811" />
    <path
       style="fill:#ffe723;fill-opacity:1;stroke-width:0.5"
       d="m 277.95975,204.04951 c 0,0.13664 -0.005,0.21522 0.25861,0.29797 0.0597,0.0187 0.0161,-0.12415 0.0281,-0.18553 0.0164,-0.0839 0.014,-0.078 0.0956,-0.10682 0.0166,-0.006 0.0281,0.004 0.0281,0 0,-8.5e-4 -0.0251,0.002 -0.0394,0 -0.0153,-0.002 -0.0302,-0.007 -0.045,-0.0112 -0.0981,-0.0307 -0.1893,-0.08 -0.28672,-0.11244"
       id="path1813" />
    <path
       style="fill:#ffe723;fill-opacity:1;stroke-width:0.5"
       d="m 278.87614,203.84149 c -0.004,-0.007 -0.009,-0.0144 -0.0113,-0.0225 -0.004,-0.0146 -0.007,-0.0299 -0.006,-0.045 0.0155,-0.16151 0.0312,-0.32318 0.0562,-0.4835 0.003,-0.0171 0.01,0.0334 0.0113,0.0506 0.004,0.0467 -0.009,0.0961 0.006,0.14055 0.0243,0.073 0.14224,0.0978 0.13493,0.18553 -0.003,0.0304 -0.0104,0.0251 -0.0281,0.0393 -0.0137,0.0109 -0.044,0.0394 -0.0618,0.0394 -0.002,0 0.002,-0.005 0,-0.006 -0.0124,-0.007 -0.0262,-0.0112 -0.0394,-0.0169 -0.0479,-0.0205 -0.0333,-0.0204 -0.0899,-0.0169 -0.0194,10e-4 -0.0618,0.002 -0.0618,0.0337"
       id="path1815" />
    <path
       style="fill:#ffe723;fill-opacity:1;stroke-width:0.5"
       d="m 278.71246,202.88194 c 0.0662,-0.18021 0.0967,-0.37804 0.19877,-0.54065 0.0353,-0.0563 0.0128,0.13237 0.0159,0.19877 0.003,0.0688 -0.004,0.13793 0,0.20672 0.001,0.024 0.005,0.0478 0.008,0.0716 0.002,0.016 0.0193,0.0363 0.008,0.0477 -0.049,0.049 -0.12272,-0.0255 -0.15901,-0.0477 -0.0396,-0.0242 -0.0795,-0.0477 -0.11927,-0.0716"
       id="path1817" />
  </g>
  <metadata
     id="metadata198">
    <rdf:RDF>
      <cc:Work
         rdf:about="">
        <cc:license
           rdf:resource="http://creativecommons.org/publicdomain/zero/1.0/" />
      </cc:Work>
      <cc:License
         rdf:about="http://creativecommons.org/publicdomain/zero/1.0/">
        <cc:permits
           rdf:resource="http://creativecommons.org/ns#Reproduction" />
        <cc:permits
           rdf:resource="http://creativecommons.org/ns#Distribution" />
        <cc:permits
           rdf:resource="http://creativecommons.org/ns#DerivativeWorks" />
      </cc:License>
    </rdf:RDF>
  </metadata>
</svg>
