<svg xmlns="http://www.w3.org/2000/svg" viewBox="0 0 210 297"><g paint-order="markers fill stroke"><text xml:space="preserve" x="4.547" y="261.697" fill="#ae2222" stroke="#fff" stroke-width="2.726" font-family="P052" font-size="88.194" font-weight="400" style="-inkscape-font-specification:P052"><tspan x="4.547" y="261.697">Book</tspan></text><text xml:space="preserve" x="188.821" y="120.182" fill="#ae2222" stroke="#fff" stroke-width="3.931" font-family="P052" font-size="127.18" font-weight="400" style="-inkscape-font-specification:P052" transform="scale(.79595 1.25636)"><tspan x="188.821" y="120.182">?</tspan></text><text xml:space="preserve" x="-72.678" y="120.203" fill="#ae2222" stroke="#fff" stroke-width="3.932" font-family="P052" font-size="127.202" font-weight="400" style="-inkscape-font-specification:P052" transform="scale(-.7961 1.25613)"><tspan x="-72.678" y="120.203">?</tspan></text><g fill="#ae2222" stroke="#fff" stroke-width="10.304"><path fill="#000083" fill-opacity=".581" fill-rule="evenodd" stroke="none" d="m141.407 152.908.961-.695v11.868l-.961-.266z"/><path fill="#353564" fill-rule="evenodd" stroke="none" d="M138.864 151.718v12.683l2.543-.586v-10.907z"/><path fill="#afafde" fill-rule="evenodd" stroke="none" d="m138.864 164.401.87.375 2.634-.695-.961-.266z"/><path fill="#4d4d9f" fill-rule="evenodd" stroke="none" d="m138.864 151.718.87-.942 2.634 1.437-.961.695z"/><text xml:space="preserve" x="357.597" y="63.213" stroke-width=".005" font-family="URW Gothic" font-size="2.091" font-weight="400" style="-inkscape-font-specification:&quot;URW Gothic&quot;" transform="matrix(.40447 -.0013 -.07478 2.47262 0 0)"><tspan x="357.597" y="63.213" font-family="URW Bookman" style="-inkscape-font-specification:&quot;URW Bookman&quot;">Book</tspan></text><text xml:space="preserve" x="361.145" y="82.897" stroke-width=".005" font-family="URW Gothic" font-size="2.244" font-weight="400" style="-inkscape-font-specification:&quot;URW Gothic&quot;" transform="matrix(.40447 -.11698 -.07478 2.494 0 0)"><tspan x="361.145" y="82.897" font-family="URW Bookman" style="-inkscape-font-specification:&quot;URW Bookman&quot;">Book</tspan></text><text xml:space="preserve" x="359.541" y="75.007" stroke-width=".005" font-family="URW Gothic" font-size="2.244" font-weight="400" style="-inkscape-font-specification:&quot;URW Gothic&quot;" transform="matrix(.40447 -.07319 -.07478 2.4859 0 0)"><tspan x="359.541" y="75.007" font-family="URW Bookman" style="-inkscape-font-specification:&quot;URW Bookman&quot;">Book</tspan></text><path fill="#c00" fill-rule="evenodd" stroke="none" d="M142.546 150.73v14l2.634-.695v-11.867z"/><path fill="#861e1e" fill-rule="evenodd" stroke="none" d="m138.864 151.718.87-.942v14l-.87-.375z"/></g><g fill="#ae2222" fill-rule="evenodd" stroke-width="10.304"><path fill="#000083" fill-opacity=".581" d="m137.602 147.42 1.496-1.08v18.649l-1.496-.43z"/><path fill="#353564" d="M133.784 145.423v19.93l3.818-.794v-17.14z"/><path fill="#afafde" d="m133.784 165.353 1.367.589 3.947-.953-1.496-.43z"/><path fill="#4d4d9f" d="m133.784 145.423 1.367-1.481 3.947 2.398-1.496 1.08z"/><path fill="#c00" d="M135.151 143.942v22l3.947-.953V146.34z"/><path fill="#861e1e" d="m133.784 145.423 1.367-1.481v22l-1.367-.589z"/></g><g fill="#ae2222" fill-rule="evenodd" stroke-width="10.304"><path fill="#000083" fill-opacity=".581" d="m131.747 138.195 2.379-1.717v29.667l-2.38-.682z"/><path fill="#353564" d="M125.672 135.018v31.707l6.075-1.262v-27.268z"/><path fill="#afafde" d="m125.672 166.725 2.176.937 6.278-1.517-2.38-.682z"/><path fill="#4d4d9f" d="m125.672 135.018 2.176-2.356 6.278 3.816-2.38 1.717z"/><path fill="#c00" d="M127.848 132.662v35l6.278-1.517v-29.667z"/><path fill="#861e1e" d="m125.672 135.018 2.176-2.356v35l-2.176-.937z"/></g><g fill="#ae2222" fill-rule="evenodd" stroke-width="10.304"><path fill="#000083" fill-opacity=".581" d="m122.672 124.342 3.738-2.7v46.622l-3.738-1.073z"/><path fill="#353564" d="M113.125 119.35v49.825l9.547-1.984v-42.849z"/><path fill="#afafde" d="m113.125 169.175 3.42 1.472 9.865-2.383-3.738-1.073z"/><path fill="#4d4d9f" d="m113.125 119.35 3.42-3.703 9.865 5.996-3.738 2.7z"/><path fill="#c00" d="M116.544 115.647v55l9.866-2.383v-46.621Z"/><path fill="#861e1e" d="m113.125 119.35 3.42-3.703v55l-3.42-1.472z"/></g><g fill="#ae2222" fill-rule="evenodd" stroke-width="10.304"><path fill="#000083" fill-opacity=".581" d="m108.507 107.463 5.438-3.926v67.812l-5.438-1.56z"/><path fill="#353564" d="M94.621 100.2v72.474l13.886-2.886v-62.325z"/><path fill="#afafde" d="m94.621 172.674 4.974 2.141 14.35-3.466-5.438-1.56z"/><path fill="#4d4d9f" d="m94.621 100.2 4.974-5.385 14.35 8.722-5.438 3.926z"/><path fill="#c00" d="M99.595 94.815v80l14.35-3.466v-67.812z"/><path fill="#861e1e" d="m94.621 100.2 4.974-5.385v80l-4.974-2.14z"/></g><g fill="#ae2222" fill-rule="evenodd" stroke-width="10.304"><path fill="#000083" fill-opacity=".581" d="m88.173 84.772 7.749-5.594v96.632l-7.75-2.224z"/><path fill="#353564" d="M68.386 74.424V177.7l19.787-4.113V84.772Z"/><path fill="#afafde" d="m68.386 177.699 7.086 3.05 20.45-4.94-7.75-2.223z"/><path fill="#4d4d9f" d="m68.386 74.424 7.086-7.675 20.45 12.429-7.75 5.594z"/><path fill="#c00" d="M75.472 66.75v114l20.45-4.94V79.178Z"/><path fill="#861e1e" d="m68.386 74.424 7.086-7.675v114l-7.086-3.05z"/></g><text xml:space="preserve" x="280.664" y="79.074" fill="#c00" stroke="#fff" stroke-width=".323" font-family="P052" font-size="10.441" font-weight="400" style="-inkscape-font-specification:P052" transform="scale(.48521 2.06094)"><tspan x="280.664" y="79.074">?</tspan></text><text xml:space="preserve" x="295.101" y="79.165" fill="#c00" stroke="#fff" stroke-width=".231" font-family="P052" font-size="7.466" font-weight="400" style="-inkscape-font-specification:P052" transform="scale(.48521 2.06094)"><tspan x="295.101" y="79.165">?</tspan></text><text xml:space="preserve" x="266.313" y="79.739" fill="#c00" stroke="#fff" stroke-width=".588" font-family="P052" font-size="19.01" font-weight="400" style="-inkscape-font-specification:P052" transform="scale(.48521 2.06094)"><tspan x="266.313" y="79.739">?</tspan></text><text xml:space="preserve" x="230.408" y="84.689" fill="#c00" stroke="#fff" stroke-width=".929" font-family="P052" font-size="30.068" font-weight="400" style="-inkscape-font-specification:P052" transform="scale(.51394 1.94576)"><tspan x="230.408" y="84.689">?</tspan></text><text xml:space="preserve" x="188.357" y="90.342" fill="#c00" stroke="#fff" stroke-width="1.475" font-family="P052" font-size="47.711" font-weight="400" style="-inkscape-font-specification:P052" transform="scale(.53832 1.85763)"><tspan x="188.357" y="90.342">?</tspan></text><text xml:space="preserve" x="144.023" y="93.056" fill="#c00" stroke="#fff" stroke-width="2.2" font-family="P052" font-size="71.168" font-weight="400" style="-inkscape-font-specification:P052" transform="scale(.53832 1.85763)"><tspan x="144.023" y="93.056">?</tspan></text></g></svg>